<svg xmlns="http://www.w3.org/2000/svg" viewBox="0 0 41.5 41.5" style="enable-background:new 0 0 41.5 41.5" xml:space="preserve"><path style="fill:none" d="M10.8 10.8h19.8v19.8H10.8z"/><path style="fill:#fff" d="M11.7 11.7h18v18h-18z"/><path d="M29.7 29.3h-18l.4.4v-18l-.4.4h18l-.4-.4v18l.4-.4zm0-18H11.3v18.8h18.8V11.3h-.4z"/><path d="M26.6 19.2v8.5c0-.2.2-.4.4-.4H14.3c.2 0 .4.2.4.4v-8.5c0-.2-.2-.4-.4-.4s-.4.2-.4.4v8.5c0 .2.2.4.4.4H27c.2 0 .4-.2.4-.4v-8.5c0-.2-.2-.4-.4-.4s-.4.2-.4.4z"/><path d="M16.2 18.4h-2.9c.2 0 .3.1.4.3 0 .2 0 .3-.2.4l7.4-4.1c-.1.1-.3.1-.4 0l7.3 4.1c-.2-.1-.2-.3-.2-.4 0-.2.2-.3.4-.3h-2.5c-.2 0-.4.2-.4.4s.2.4.4.4H28c.2 0 .3-.1.4-.3 0-.2 0-.3-.2-.4l-7.3-4.1c-.1-.1-.3-.1-.4 0l-7.3 4.1c-.1.1-.2.3-.2.4 0 .2.2.3.4.3h2.9c.2 0 .4-.2.4-.4-.1-.2-.3-.4-.5-.4zm1.6 2.5c.3 0 .9.1.9.5 0 .2-.1.3-.3.3-.2 0-.3-.2-.7-.2-.5 0-.8.5-.8 1s.3 1 .8 1c.4 0 .5-.2.7-.2.2 0 .3.2.3.3 0 .4-.7.5-1 .5-.9 0-1.5-.7-1.5-1.6 0-.9.7-1.6 1.6-1.6zm1.1 1.6c0-.9.6-1.6 1.5-1.6s1.5.7 1.5 1.6-.6 1.6-1.5 1.6-1.5-.7-1.5-1.6zm2.3 0c0-.5-.3-1-.8-1s-.8.5-.8 1 .3 1 .8 1c.6 0 .8-.5.8-1zm1-1.2c0-.2.1-.3.3-.3h.8c.6 0 1.1.4 1.1 1s-.5 1-1.1 1h-.5v.7c0 .2-.1.3-.3.3-.2 0-.3-.1-.3-.3v-2.4zm.7 1.1h.4c.3 0 .5-.2.5-.5s-.2-.5-.5-.5h-.4v1zm1.7-1.2c0-.2.1-.3.3-.3.2 0 .3.1.3.3v2.5c0 .2-.1.3-.3.3-.2 0-.3-.1-.3-.3v-2.5z"/></svg>