<?xml version="1.0" encoding="utf-8"?>
<!-- Generator: Adobe Illustrator 24.1.2, SVG Export Plug-In . SVG Version: 6.00 Build 0)  -->
<svg version="1.1" id="symbool" xmlns="http://www.w3.org/2000/svg" xmlns:xlink="http://www.w3.org/1999/xlink" x="0px" y="0px"
	 viewBox="0 0 28.3 28.3" style="enable-background:new 0 0 28.3 28.3;" xml:space="preserve">
<style type="text/css">
	.st0{fill:none;}
	.st1{fill:#FFFFFF;}
</style>
<g>
	<rect x="4.3" y="4.3" class="st0" width="19.8" height="19.8"/>
	<g>
		<g>
			<rect x="5.2" y="5.2" class="st1" width="18" height="18"/>
			<path d="M23.2,22.8h-18l0.4,0.4v-18L5.2,5.6h18l-0.4-0.4v18L23.2,22.8z M23.2,4.8h-18H4.8v0.4v18v0.4h0.4h18h0.4v-0.4v-18V4.8
				H23.2z"/>
		</g>
		<g>
			<path d="M20.1,12.7v8.5c0-0.2,0.2-0.4,0.4-0.4H7.8c0.2,0,0.4,0.2,0.4,0.4v-8.5l0,0c0-0.2-0.2-0.4-0.4-0.4c-0.2,0-0.4,0.2-0.4,0.4
				l0,0v8.5c0,0.2,0.2,0.4,0.4,0.4h12.7c0.2,0,0.4-0.2,0.4-0.4v-8.5l0,0c0-0.2-0.2-0.4-0.4-0.4C20.3,12.3,20.1,12.5,20.1,12.7
				L20.1,12.7z"/>
		</g>
		<g>
			<path d="M9.7,11.9H6.8c0.2,0,0.3,0.1,0.4,0.3c0,0.2,0,0.3-0.2,0.4l7.4-4.1c-0.1,0.1-0.3,0.1-0.4,0l7.3,4.1
				c-0.2-0.1-0.2-0.3-0.2-0.4c0-0.2,0.2-0.3,0.4-0.3H19l0,0c-0.2,0-0.4,0.2-0.4,0.4c0,0.2,0.2,0.4,0.4,0.4l0,0h2.5
				c0.2,0,0.3-0.1,0.4-0.3c0-0.2,0-0.3-0.2-0.4l-7.3-4.1c-0.1-0.1-0.3-0.1-0.4,0L6.7,12c-0.1,0.1-0.2,0.3-0.2,0.4
				c0,0.2,0.2,0.3,0.4,0.3h2.9l0,0c0.2,0,0.4-0.2,0.4-0.4C10.1,12.1,9.9,11.9,9.7,11.9L9.7,11.9z"/>
		</g>
		<g>
			<g>
				<path d="M11.3,14.4c0.3,0,0.9,0.1,0.9,0.5c0,0.2-0.1,0.3-0.3,0.3c-0.2,0-0.3-0.2-0.7-0.2c-0.5,0-0.8,0.5-0.8,1
					c0,0.5,0.3,1,0.8,1c0.4,0,0.5-0.2,0.7-0.2c0.2,0,0.3,0.2,0.3,0.3c0,0.4-0.7,0.5-1,0.5c-0.9,0-1.5-0.7-1.5-1.6
					C9.7,15.1,10.4,14.4,11.3,14.4z"/>
			</g>
			<g>
				<path d="M12.4,16c0-0.9,0.6-1.6,1.5-1.6c0.9,0,1.5,0.7,1.5,1.6c0,0.9-0.6,1.6-1.5,1.6C13,17.6,12.4,16.9,12.4,16z M14.7,16
					c0-0.5-0.3-1-0.8-1c-0.5,0-0.8,0.5-0.8,1c0,0.5,0.3,1,0.8,1C14.5,17,14.7,16.5,14.7,16z"/>
			</g>
			<g>
				<path d="M15.7,14.8c0-0.2,0.1-0.3,0.3-0.3h0.8c0.6,0,1.1,0.4,1.1,1c0,0.6-0.5,1-1.1,1h-0.5v0.7c0,0.2-0.1,0.3-0.3,0.3
					s-0.3-0.1-0.3-0.3V14.8z M16.4,15.9h0.4c0.3,0,0.5-0.2,0.5-0.5c0-0.3-0.2-0.5-0.5-0.5h-0.4V15.9z"/>
			</g>
			<g>
				<path d="M18.1,14.7c0-0.2,0.1-0.3,0.3-0.3c0.2,0,0.3,0.1,0.3,0.3v2.5c0,0.2-0.1,0.3-0.3,0.3c-0.2,0-0.3-0.1-0.3-0.3V14.7z"/>
			</g>
		</g>
	</g>
</g>
</svg>
