<?xml version="1.0" encoding="utf-8"?>
<!-- Generator: Adobe Illustrator 24.1.2, SVG Export Plug-In . SVG Version: 6.00 Build 0)  -->
<svg version="1.1" id="symbool" xmlns="http://www.w3.org/2000/svg" xmlns:xlink="http://www.w3.org/1999/xlink" x="0px" y="0px"
	 viewBox="0 0 18.8 18.8" style="enable-background:new 0 0 18.8 18.8;" xml:space="preserve">
<style type="text/css">
	.st0{fill:none;}
	.st1{fill:#FFFFFF;}
</style>
<g>
	<rect x="-0.5" y="-0.5" class="st0" width="19.8" height="19.8"/>
	<g>
		<g>
			<rect x="0.4" y="0.4" class="st1" width="18" height="18"/>
			<path d="M18.4,18h-18l0.4,0.4v-18L0.4,0.8h18L18,0.4v18L18.4,18z M18.4,0h-18H0v0.4v18v0.4h0.4h18h0.4v-0.4v-18V0H18.4z"/>
		</g>
		<g>
			<path d="M15.3,7.9v8.5c0-0.2,0.2-0.4,0.4-0.4H3c0.2,0,0.4,0.2,0.4,0.4V7.9l0,0c0-0.2-0.2-0.4-0.4-0.4c-0.2,0-0.4,0.2-0.4,0.4l0,0
				v8.5c0,0.2,0.2,0.4,0.4,0.4h12.7c0.2,0,0.4-0.2,0.4-0.4V7.9l0,0c0-0.2-0.2-0.4-0.4-0.4C15.5,7.5,15.3,7.7,15.3,7.9L15.3,7.9z"/>
		</g>
		<g>
			<path d="M4.9,7.1H2c0.2,0,0.3,0.1,0.4,0.3c0,0.2,0,0.3-0.2,0.4l7.4-4.1c-0.1,0.1-0.3,0.1-0.4,0l7.3,4.1c-0.2-0.1-0.2-0.3-0.2-0.4
				c0-0.2,0.2-0.3,0.4-0.3h-2.5l0,0c-0.2,0-0.4,0.2-0.4,0.4s0.2,0.4,0.4,0.4l0,0h2.5c0.2,0,0.3-0.1,0.4-0.3c0-0.2,0-0.3-0.2-0.4
				L9.6,3.1C9.5,3,9.3,3,9.2,3.1L1.9,7.2C1.8,7.3,1.7,7.5,1.7,7.6c0,0.2,0.2,0.3,0.4,0.3H5l0,0c0.2,0,0.4-0.2,0.4-0.4
				C5.3,7.3,5.1,7.1,4.9,7.1L4.9,7.1z"/>
		</g>
		<g>
			<g>
				<path d="M6.5,9.6c0.3,0,0.9,0.1,0.9,0.5c0,0.2-0.1,0.3-0.3,0.3s-0.3-0.2-0.7-0.2c-0.5,0-0.8,0.5-0.8,1s0.3,1,0.8,1
					c0.4,0,0.5-0.2,0.7-0.2s0.3,0.2,0.3,0.3c0,0.4-0.7,0.5-1,0.5c-0.9,0-1.5-0.7-1.5-1.6C4.9,10.3,5.6,9.6,6.5,9.6z"/>
			</g>
			<g>
				<path d="M7.6,11.2c0-0.9,0.6-1.6,1.5-1.6s1.5,0.7,1.5,1.6c0,0.9-0.6,1.6-1.5,1.6S7.6,12.1,7.6,11.2z M9.9,11.2
					c0-0.5-0.3-1-0.8-1s-0.8,0.5-0.8,1s0.3,1,0.8,1C9.7,12.2,9.9,11.7,9.9,11.2z"/>
			</g>
			<g>
				<path d="M10.9,10c0-0.2,0.1-0.3,0.3-0.3H12c0.6,0,1.1,0.4,1.1,1s-0.5,1-1.1,1h-0.5v0.7c0,0.2-0.1,0.3-0.3,0.3s-0.3-0.1-0.3-0.3
					C10.9,12.4,10.9,10,10.9,10z M11.6,11.1H12c0.3,0,0.5-0.2,0.5-0.5s-0.2-0.5-0.5-0.5h-0.4V11.1z"/>
			</g>
			<g>
				<path d="M13.3,9.9c0-0.2,0.1-0.3,0.3-0.3c0.2,0,0.3,0.1,0.3,0.3v2.5c0,0.2-0.1,0.3-0.3,0.3c-0.2,0-0.3-0.1-0.3-0.3V9.9z"/>
			</g>
		</g>
	</g>
</g>
</svg>
