<?xml version="1.0" encoding="utf-8"?>
<!-- Generator: Adobe Illustrator 24.1.2, SVG Export Plug-In . SVG Version: 6.00 Build 0)  -->
<svg version="1.1" id="symbool" xmlns="http://www.w3.org/2000/svg" xmlns:xlink="http://www.w3.org/1999/xlink" x="0px" y="0px"
	 viewBox="0 0 41.5 41.5" style="enable-background:new 0 0 41.5 41.5;" xml:space="preserve">
<style type="text/css">
	.st0{fill:none;}
	.st1{fill:#FFFFFF;}
</style>
<g>
	<rect x="10.8" y="10.8" class="st0" width="19.8" height="19.8"/>
	<g>
		<g>
			<rect x="11.7" y="11.7" class="st1" width="18" height="18"/>
			<path d="M29.7,29.3h-18l0.4,0.4v-18l-0.4,0.4h18l-0.4-0.4v18L29.7,29.3z M29.7,11.3h-18h-0.4v0.4v18v0.4h0.4h18h0.4v-0.4v-18
				v-0.4H29.7z"/>
		</g>
		<g>
			<path d="M26.6,19.2v8.5c0-0.2,0.2-0.4,0.4-0.4H14.3c0.2,0,0.4,0.2,0.4,0.4v-8.5l0,0c0-0.2-0.2-0.4-0.4-0.4
				c-0.2,0-0.4,0.2-0.4,0.4l0,0v8.5c0,0.2,0.2,0.4,0.4,0.4H27c0.2,0,0.4-0.2,0.4-0.4v-8.5l0,0c0-0.2-0.2-0.4-0.4-0.4
				C26.8,18.8,26.6,19,26.6,19.2L26.6,19.2z"/>
		</g>
		<g>
			<path d="M16.2,18.4h-2.9c0.2,0,0.3,0.1,0.4,0.3c0,0.2,0,0.3-0.2,0.4l7.4-4.1c-0.1,0.1-0.3,0.1-0.4,0l7.3,4.1
				c-0.2-0.1-0.2-0.3-0.2-0.4c0-0.2,0.2-0.3,0.4-0.3h-2.5l0,0c-0.2,0-0.4,0.2-0.4,0.4c0,0.2,0.2,0.4,0.4,0.4l0,0H28
				c0.2,0,0.3-0.1,0.4-0.3c0-0.2,0-0.3-0.2-0.4l-7.3-4.1c-0.1-0.1-0.3-0.1-0.4,0l-7.3,4.1c-0.1,0.1-0.2,0.3-0.2,0.4
				c0,0.2,0.2,0.3,0.4,0.3h2.9l0,0c0.2,0,0.4-0.2,0.4-0.4C16.6,18.6,16.4,18.4,16.2,18.4L16.2,18.4z"/>
		</g>
		<g>
			<g>
				<path d="M17.8,20.9c0.3,0,0.9,0.1,0.9,0.5c0,0.2-0.1,0.3-0.3,0.3c-0.2,0-0.3-0.2-0.7-0.2c-0.5,0-0.8,0.5-0.8,1s0.3,1,0.8,1
					c0.4,0,0.5-0.2,0.7-0.2c0.2,0,0.3,0.2,0.3,0.3c0,0.4-0.7,0.5-1,0.5c-0.9,0-1.5-0.7-1.5-1.6C16.2,21.6,16.9,20.9,17.8,20.9z"/>
			</g>
			<g>
				<path d="M18.9,22.5c0-0.9,0.6-1.6,1.5-1.6c0.9,0,1.5,0.7,1.5,1.6s-0.6,1.6-1.5,1.6S18.9,23.4,18.9,22.5z M21.2,22.5
					c0-0.5-0.3-1-0.8-1s-0.8,0.5-0.8,1s0.3,1,0.8,1C21,23.5,21.2,23,21.2,22.5z"/>
			</g>
			<g>
				<path d="M22.2,21.3c0-0.2,0.1-0.3,0.3-0.3h0.8c0.6,0,1.1,0.4,1.1,1s-0.5,1-1.1,1h-0.5v0.7c0,0.2-0.1,0.3-0.3,0.3
					c-0.2,0-0.3-0.1-0.3-0.3V21.3z M22.9,22.4h0.4c0.3,0,0.5-0.2,0.5-0.5c0-0.3-0.2-0.5-0.5-0.5h-0.4V22.4z"/>
			</g>
			<g>
				<path d="M24.6,21.2c0-0.2,0.1-0.3,0.3-0.3c0.2,0,0.3,0.1,0.3,0.3v2.5c0,0.2-0.1,0.3-0.3,0.3c-0.2,0-0.3-0.1-0.3-0.3V21.2z"/>
			</g>
		</g>
	</g>
</g>
</svg>
