<?xml version="1.0" encoding="UTF-8" standalone="no"?>
<!-- Generator: Adobe Illustrator 16.0.0, SVG Export Plug-In . SVG Version: 6.00 Build 0)  -->

<svg
   version="1.1"
   id="svg2"
   inkscape:output_extension="org.inkscape.output.svg.inkscape"
   sodipodi:docname="Rijksmonument_NHR91.svg"
   inkscape:version="1.4.2 (f4327f4, 2025-05-13)"
   sodipodi:version="0.32"
   x="0px"
   y="0px"
   width="580px"
   height="580px"
   viewBox="0 0 580 580"
   enable-background="new 0 0 580 580"
   xml:space="preserve"
   xmlns:inkscape="http://www.inkscape.org/namespaces/inkscape"
   xmlns:sodipodi="http://sodipodi.sourceforge.net/DTD/sodipodi-0.dtd"
   xmlns="http://www.w3.org/2000/svg"
   xmlns:svg="http://www.w3.org/2000/svg">
<sodipodi:namedview
   showgrid="false"
   inkscape:cy="267.17592"
   inkscape:cx="310.71428"
   inkscape:zoom="2.6068966"
   pagecolor="#ffffff"
   bordercolor="#666666"
   guidetolerance="10.0"
   objecttolerance="10.0"
   gridtolerance="10.0"
   borderopacity="1.0"
   id="base"
   inkscape:current-layer="svg2"
   inkscape:window-y="-8"
   inkscape:window-x="-8"
   inkscape:pageopacity="0.0"
   inkscape:pageshadow="2"
   inkscape:window-width="1920"
   inkscape:window-height="1009"
   inkscape:showpageshadow="2"
   inkscape:pagecheckerboard="0"
   inkscape:deskcolor="#d1d1d1"
   inkscape:window-maximized="1">
	</sodipodi:namedview>
<defs
   id="defs1">
	
	
		<inkscape:perspective
   inkscape:vp_z="580 : 290 : 1"
   inkscape:vp_y="0 : 1000 : 0"
   inkscape:vp_x="0 : 290 : 1"
   sodipodi:type="inkscape:persp3d"
   id="perspective2441"
   inkscape:persp3d-origin="290 : 193.33333 : 1">
		</inkscape:perspective>
	
		<inkscape:perspective
   inkscape:vp_z="60 : 30 : 1"
   inkscape:vp_y="0 : 1000 : 0"
   inkscape:vp_x="0 : 30 : 1"
   sodipodi:type="inkscape:persp3d"
   id="perspective3452"
   inkscape:persp3d-origin="30 : 20 : 1">
		</inkscape:perspective>
	
		<inkscape:perspective
   inkscape:vp_z="744.09448 : 526.18109 : 1"
   inkscape:vp_y="0 : 1000 : 0"
   inkscape:vp_x="0 : 526.18109 : 1"
   sodipodi:type="inkscape:persp3d"
   id="perspective4471"
   inkscape:persp3d-origin="372.04724 : 350.78739 : 1">
		</inkscape:perspective>
	
		<inkscape:perspective
   inkscape:vp_z="12 : 6 : 1"
   inkscape:vp_y="0 : 1000 : 0"
   inkscape:vp_x="0 : 6 : 1"
   sodipodi:type="inkscape:persp3d"
   id="perspective4668"
   inkscape:persp3d-origin="6 : 4 : 1">
		</inkscape:perspective>
	
		<inkscape:perspective
   inkscape:vp_z="32 : 16 : 1"
   inkscape:vp_y="0 : 1000 : 0"
   inkscape:vp_x="0 : 16 : 1"
   sodipodi:type="inkscape:persp3d"
   id="perspective4904"
   inkscape:persp3d-origin="16 : 10.666667 : 1">
		</inkscape:perspective>
	
		<inkscape:perspective
   inkscape:vp_z="32 : 16 : 1"
   inkscape:vp_y="0 : 1000 : 0"
   inkscape:vp_x="0 : 16 : 1"
   sodipodi:type="inkscape:persp3d"
   id="perspective5233"
   inkscape:persp3d-origin="16 : 10.666667 : 1">
		</inkscape:perspective>
	
		<inkscape:perspective
   inkscape:vp_z="500 : 250 : 1"
   inkscape:vp_y="0 : 1000 : 0"
   inkscape:vp_x="0 : 250 : 1"
   sodipodi:type="inkscape:persp3d"
   id="perspective5412"
   inkscape:persp3d-origin="250 : 166.66667 : 1">
		</inkscape:perspective>
	
		<inkscape:perspective
   inkscape:vp_z="405.71429 : 204.28572 : 1"
   inkscape:vp_y="0 : 1000 : 0"
   inkscape:vp_x="0 : 204.28572 : 1"
   sodipodi:type="inkscape:persp3d"
   id="perspective5571"
   inkscape:persp3d-origin="202.85715 : 136.19048 : 1">
		</inkscape:perspective>
	
		<inkscape:perspective
   inkscape:vp_z="128 : 64 : 1"
   inkscape:vp_y="0 : 1000 : 0"
   inkscape:vp_x="0 : 64 : 1"
   sodipodi:type="inkscape:persp3d"
   id="perspective6552"
   inkscape:persp3d-origin="64 : 42.666667 : 1">
		</inkscape:perspective>
</defs>
<g
   id="layer3"
   transform="matrix(48.14969,0,0,48.14969,-536.27327,-33.306752)"
   inkscape:label="Layout"
   display="none">
	<rect
   id="rect4134"
   x="1"
   y="1"
   display="inline"
   fill="none"
   stroke="#757575"
   stroke-width="0.1"
   width="10"
   height="10" />
	<rect
   id="rect4136"
   x="2"
   y="2"
   display="inline"
   fill="none"
   stroke="#757575"
   stroke-width="0.1"
   width="8"
   height="8" />
</g>
<rect
   x="35.845"
   y="500.614"
   fill="param(fill) #FFF"
   stroke="param(outline) #000"
   stroke-width="param(outline-width) 1"
   width="504.904"
   height="18.023"
   id="rect1" />
<rect
   x="53.554"
   y="464.505"
   fill="param(fill) #FFF"
   stroke="param(outline) #000"
   stroke-width="param(outline-width) 1"
   width="469.233"
   height="18.023"
   id="rect2" />
<path
   id="path2"
   d="m 504.86523,194.18555 -433.111324,0.0605 0.0059,36.04688 18.640625,-0.004 0.0293,198.24805 -18.816407,0.004 0.0039,18.02343 433.111332,-0.0605 -0.002,-18.02344 -17.80078,0.002 -0.0273,-198.24804 17.97265,-0.004 z m -175.875,34.3789 c 1.49953,0.0356 2.99946,0.0889 4.49415,0.22071 2.87767,0.25691 5.74897,0.58657 8.63085,0.79882 1.23206,0.0838 1.62858,0.11473 2.75196,0.17774 0.092,2e-5 0.18334,3.9e-4 0.27539,0.002 0.28031,-0.0336 0.62428,-0.17111 0.74609,0.0488 0.008,0.0152 0.0155,0.0296 0.0234,0.0449 0.11818,-0.01 0.35623,-0.11419 0.42578,-0.082 0.003,0.002 0.007,0.005 0.01,0.008 l 0.002,0.002 c 0.003,0.007 0.007,0.0195 0.006,0.0293 -0.0173,0.14338 -0.0289,0.29127 -0.041,0.43946 l 30.29493,-0.006 c 0.3125,-0.43438 0.94875,-0.76172 1.91015,-0.76172 h 4.86133 c 1.91377,-0.0286 3.82411,0.0848 5.73633,0.13476 0.4315,0.002 0.86381,0.0104 1.29492,0.0234 1.31749,-0.0989 2.6381,-0.14424 3.95898,-0.17383 1.7311,-0.008 3.46236,-0.0226 5.19336,0.004 1.45277,0.054 2.90635,0.083 4.35938,0.13086 1.93042,0.0602 3.86124,0.13097 5.79297,0.12305 0.93139,-0.0921 1.86581,-0.14196 2.80078,-0.18164 0.76699,1.9e-4 1.53552,0.027 2.30078,0.0801 -0.01,0.18269 -0.0108,0.36814 -0.01,0.55274 0.0942,-0.016 0.18744,-0.031 0.28125,-0.0488 0.4137,0.0712 0.56755,0.0781 0.67383,0.11133 l 35.0918,-0.004 0.0273,198.24805 -34.55078,0.006 c -1.16144,0.69074 -2.5209,0.89015 -3.88086,1.04297 -1.93809,0.10089 -3.88148,0.0275 -5.82031,-0.0156 -1.33054,-0.0427 -2.66134,-0.0237 -3.99024,-0.10351 -1.65768,-0.14493 -3.31696,-0.27268 -4.97656,-0.39454 -1.88876,-0.04 -3.7766,-0.13633 -5.66601,-0.11523 -1.84445,-0.0378 -3.69023,-0.0657 -5.53125,-0.18945 -1.26289,-0.0348 -2.52638,-0.0764 -3.78907,-0.10547 -0.92078,-0.0445 -1.83197,-0.0829 -2.7539,-0.0566 -0.85981,0.0244 -1.71883,-0.0137 -2.57813,-0.0586 -0.003,-1.3e-4 -0.005,1.4e-4 -0.008,0 l -27.7793,0.004 c -1.09297,0.88573 -2.78272,0.4966 -4.06836,0.37305 -2.07719,-0.17324 -4.17314,-0.26253 -6.25585,-0.16993 -3.48577,0.2872 -6.97684,0.48 -10.47071,0.64063 -4.87914,0.24214 -9.76441,0.41716 -14.65039,0.34766 -2.96202,-0.10328 -5.91216,-0.31354 -8.85937,-0.62696 -0.82805,-0.0881 -1.52015,-0.28605 -2.08008,-0.55664 l -31.42578,0.004 c -0.30214,0.0795 -0.60811,0.13516 -0.91797,0.17773 -0.28484,0.0193 -0.56567,0.0619 -0.84766,0.10352 -0.33431,0.0478 -0.67069,0.0704 -1.00781,0.0859 -0.4008,0.014 -0.80213,0.0165 -1.20313,0.0195 -0.36852,-0.0155 -0.73556,-0.0635 -1.10351,-0.0879 -0.34298,-0.0109 -0.68651,-0.0165 -1.0293,0.008 -0.4758,0.0444 -0.95245,0.0422 -1.42969,0.0332 -0.78284,-0.0231 -1.56662,-0.0416 -2.3496,-0.0586 -0.54665,-0.0132 -1.09385,-0.0165 -1.64063,-0.0195 -0.54462,0.0223 -1.09038,0.0239 -1.63477,-0.004 -0.5341,-0.008 -1.0675,-0.0526 -1.60156,-0.0566 -0.32977,-0.0167 -0.65882,-0.0167 -0.98828,-0.0391 -0.32782,-0.0313 -0.6563,-0.0208 -0.98437,-0.004 -0.56209,0.022 -1.12116,0.0717 -1.68165,0.11719 -0.70796,0.0517 -1.41743,0.0749 -2.12695,0.0918 -0.6817,0.0115 -1.36416,0.009 -2.04492,0.0488 -0.65043,0.0355 -1.30048,0.0703 -1.95117,0.0996 -0.65003,0.0102 -1.29924,0.0215 -1.94922,0.0312 -0.65167,0.002 -1.30344,-0.006 -1.95508,-0.01 -0.58905,0.0227 -1.17832,0.0101 -1.76758,0.006 -0.64069,-0.006 -1.28116,-0.01 -1.92187,-0.0117 -0.49672,-0.004 -0.99465,-0.0302 -1.49024,-0.0645 -0.53568,-0.029 -1.07047,-0.045 -1.60547,-0.0859 -0.50622,-0.0301 -1.01098,-0.0782 -1.51367,-0.14453 -0.44027,-0.0601 -0.88351,-0.0701 -1.32617,-0.10157 -0.49832,-0.0374 -0.9985,-0.0562 -1.49219,-0.1289 h -0.002 -0.002 l -32.79297,0.006 c -0.003,0.0142 -0.007,0.0276 -0.0117,0.041 -0.0488,0.15574 -0.15656,0.28813 -0.23438,0.43164 -0.1091,0.0736 -0.20909,0.16441 -0.32812,0.22071 -0.3374,0.1595 -0.73529,0.0702 -1.0918,0.0859 -0.42044,-0.007 -0.84293,-0.0118 -1.26172,-0.0527 -0.37355,-0.0731 -0.55809,-0.0751 -0.64648,-0.41797 -2.92903,0.0912 -5.86146,0.0753 -8.79102,0.0137 -0.38219,0.0266 -0.76422,0.0541 -1.14648,0.0801 -0.79003,0.0422 -1.57717,0.1118 -2.36719,0.1543 -1.33918,0.10202 -2.68118,0.13561 -4.02343,0.16601 -1.60332,0.0535 -3.2068,0.10448 -4.81055,0.14258 -0.96212,0.0223 -1.92441,0.0367 -2.88672,0.0469 -0.64457,0.004 -1.28922,0.0168 -1.93359,-0.002 -0.80987,-0.0295 -1.62072,-0.0675 -2.42969,-0.11523 -1.06172,-0.0834 -2.11797,-0.21865 -3.17774,-0.32227 -1.14935,-0.12918 -2.33161,-0.0394 -3.45898,-0.32617 -0.0225,-0.0479 -0.05,-0.0954 -0.0801,-0.14258 l -34.23437,0.006 -0.0273,-198.25 33.86719,-0.004 c 0.30999,-0.28068 0.79269,-0.4805 1.44141,-0.50586 0.0927,-0.004 0.18967,-0.004 0.28906,0 2.36916,0.09 4.73847,0.20017 7.10742,0.29687 2.66705,0.0786 5.33018,0.25318 7.99805,0.30078 1.6835,0.0446 3.36703,0.1 5.05078,0.13477 0.64764,0.006 1.29328,0.0594 1.93945,0.0996 0.0183,-0.006 0.0386,-0.008 0.0586,-0.01 0.0516,-0.004 0.10853,0.005 0.16796,0.0215 0.5479,0.0353 1.09638,0.0562 1.64454,0.0859 0.98838,0.14181 1.97658,0.143 2.9707,0.1211 0.8435,0.0204 1.68109,-0.0273 2.52148,-0.0898 0.96211,-0.0952 1.92487,-0.0952 2.88867,-0.041 0.69212,-0.004 1.38283,-0.0504 2.07422,-0.0781 0.693,-0.0209 1.38347,-0.0833 2.07227,-0.16015 v -0.18164 l 34.73828,-0.004 c 0.1542,-0.0774 0.36542,-0.11522 0.625,-0.082 0.20634,0.0261 0.41319,0.0535 0.61914,0.082 h 0.0625 v 0.008 c 0.0443,0.006 0.0885,0.0132 0.13281,0.0195 0.76993,-0.0414 1.5414,-0.0262 2.3125,-0.0449 1.09861,-0.0198 2.19655,-0.0523 3.29493,-0.082 1.282,-0.0187 2.56363,-0.001 3.8457,0.008 0.4763,0.003 0.95339,0.005 1.42969,0.006 0.16559,-0.009 0.3309,-0.0196 0.49609,-0.0332 0.35989,-0.0409 0.72073,-0.0573 1.08203,-0.082 0.38915,0.0206 0.78038,0.008 1.16992,0 0.44651,-0.017 0.89309,-0.0291 1.33985,-0.0371 0.47412,0.002 0.94783,0.0412 1.42187,0.0332 0.45605,-0.0189 0.91162,-0.0168 1.36719,-0.0449 0.71914,-0.0527 1.43849,-0.10453 2.15625,-0.17383 0.7346,-0.0813 1.47106,-0.13783 2.20898,-0.17773 0.59549,-0.004 1.1933,0.007 1.78711,0.0547 0.55106,0.0627 1.10431,0.0908 1.65821,0.11328 0.56727,0.0342 1.13606,0.056 1.70312,0.0957 0.45533,0.0328 0.9109,0.0521 1.36719,0.0645 0.50289,0.0399 1.0077,0.0293 1.51172,0.0273 0.65051,-0.003 1.30066,-0.005 1.95117,-0.006 0.58458,-0.001 1.16932,-0.002 1.75391,-0.002 0.40671,-2.2e-4 0.81398,5e-5 1.2207,0 0.4216,0.007 0.84311,-0.039 1.25391,0.0684 0.0854,0.0761 0.15641,0.13189 0.21289,0.17969 l 30.07617,-0.004 c 0.24643,-0.0943 0.53737,-0.15284 0.87109,-0.16407 0.15819,-0.005 0.32483,-1.6e-4 0.50195,0.0176 0.35898,0.0358 0.71771,0.0759 1.07618,0.11719 0.307,-0.072 0.61673,-0.13216 0.93164,-0.17383 0.0744,-0.0142 0.1481,-0.0292 0.22265,-0.043 0.22047,-0.32306 0.6951,-0.55625 1.42188,-0.52539 0.54698,0.0232 1.093,0.0568 1.63867,0.0977 0.0396,-0.004 0.0776,-0.008 0.11719,-0.0117 1.2329,-0.0708 2.46377,-0.18109 3.69531,-0.27149 1.19661,-0.0673 2.39274,-0.14878 3.58789,-0.23828 1.0191,-0.0687 2.02577,-0.24501 3.04688,-0.28711 0.98403,-0.0655 1.96868,-0.10051 2.95507,-0.10351 1.07325,-0.0268 2.14504,-0.0741 3.21875,-0.0781 1.45663,0.0197 2.91283,0.002 4.36914,-0.0312 z m -59.44726,2.53711 c 0.008,0.006 0.0156,0.0127 0.0234,0.0176 h 0.002 l 0.002,0.002 h 0.002 l 0.002,0.002 h 0.002 0.002 0.002 0.002 0.002 0.002 l 0.002,-0.002 h 0.002 c 0.01,-0.006 0.018,-0.0125 0.0274,-0.0195 -0.0251,1e-5 -0.0491,0 -0.0742,0 z m -34.89258,0.28516 c -0.0227,0.001 -0.0457,0.003 -0.0684,0.004 v 0.0117 c 0.0994,0.006 0.19984,0.0126 0.29883,0.0176 -0.0762,-0.0111 -0.15425,-0.0222 -0.23047,-0.0332 z m 8.87305,0.01 c -0.0156,0.001 -0.0313,0.002 -0.0469,0.004 0.0137,0.002 0.0273,0.005 0.041,0.008 0.002,-0.004 0.004,-0.008 0.006,-0.0117 z m -81.03321,1.10743 v 0.0723 c 0.13571,0.004 0.26861,0.009 0.39844,0.0156 -0.006,-0.0242 -0.01,-0.0482 -0.0137,-0.0723 -0.12795,-0.005 -0.25682,-0.0103 -0.38477,-0.0156 z m 72.0918,0.92773 v 0.0664 c 0.0319,-6.8e-4 0.0638,-5.6e-4 0.0957,-0.002 -0.003,-0.001 -0.005,-0.002 -0.008,-0.004 -0.0306,-0.0183 -0.0602,-0.0383 -0.0879,-0.0606 z m 0.62695,3.39648 c -0.0299,-9.4e-4 -0.0598,-7.4e-4 -0.0898,0.002 -0.0129,9.7e-4 -0.0451,0.009 -0.0527,0.0117 h -0.002 v 0.002 h 0.002 0.002 c 0.0424,-0.005 0.10263,0.0143 0.13476,-0.01 4.1e-4,-3.1e-4 0.003,-0.003 0.004,-0.004 z m -0.625,0.0215 v 0.11719 c 0.0733,0.0229 0.14664,0.044 0.22071,0.0644 -0.0786,-0.054 -0.15014,-0.11675 -0.22071,-0.18164 z m 12.32227,2.6543 c 0.001,0.005 0.003,0.0104 0.004,0.0156 0.0953,-0.002 0.1898,-0.005 0.28515,-0.008 -0.0966,-0.003 -0.19243,-0.005 -0.28906,-0.008 z m -11.80859,0.96484 c -0.0143,0.0438 -0.0219,0.089 -0.0234,0.13477 0.0188,-7.5e-4 0.0379,-4.4e-4 0.0566,-0.002 -0.017,-0.0663 -0.0286,-0.12438 -0.0312,-0.13281 z m 164.16015,0.53906 c -0.14335,0.0128 -0.28633,0.026 -0.42969,0.0391 0.13964,5.7e-4 0.27835,0.002 0.41797,0.002 0.004,-0.0134 0.008,-0.0275 0.0117,-0.041 z m -14.49023,2.91602 -0.002,0.002 v 0.002 h -0.002 -0.002 v 0.002 h 0.002 v 0.002 c 8.8e-4,1.4e-4 0.005,-1.3e-4 0.006,0 h 0.002 l 0.002,0.002 h 0.002 c 0.17767,0.0452 0.35846,0.0753 0.53906,0.10743 -0.11378,-0.0321 -0.22868,-0.0639 -0.34179,-0.0977 -0.0435,-0.0133 -0.15059,-0.0215 -0.19336,-0.0195 -10e-4,7e-5 -0.004,6e-5 -0.006,0 h -0.002 -0.002 z m 5.66211,4.04297 v 0.002 h 0.002 v -0.002 z m -0.004,0.004 c -0.0293,0.0163 -0.24048,0.17837 -0.32812,0.23242 h -0.002 -0.002 v -0.002 c -10e-4,-0.003 -0.003,-0.01 -0.004,-0.0137 v -0.002 c -0.10664,0.0987 -0.22413,0.188 -0.32031,0.29687 0.26747,-0.19989 0.57337,-0.4313 0.64453,-0.49609 0.006,-0.006 0.009,-0.0101 0.0117,-0.0137 z m -0.0566,0.81836 c -0.26001,0.015 -0.79565,0.15745 -1.07031,0.2461 -0.004,0.005 -0.008,0.0107 -0.0117,0.0156 0.29207,-0.0531 0.58231,-0.10962 0.87305,-0.16992 0.0541,-0.0235 0.19693,-0.0696 0.2207,-0.0859 h 0.002 v -0.002 h 0.002 v -0.002 h -0.002 l -0.002,-0.002 c -0.003,-2.6e-4 -0.007,-2.5e-4 -0.0117,0 z m 1.44531,38.63477 -0.002,0.002 h -0.002 c 0.0216,0.14897 0.0466,0.30216 0.0762,0.46289 v 0.002 0.002 h 0.002 v -0.002 c 0.002,-0.012 0.003,-0.0627 0.008,-0.0801 l 0.002,-0.002 v -0.002 -0.002 h 0.002 0.002 c -0.0169,-0.12569 -0.0434,-0.25265 -0.0781,-0.38086 h -0.002 -0.002 -0.002 -0.002 z m -215.84179,32.36523 c -0.0576,0.0618 -0.11432,0.12375 -0.17188,0.18555 -0.0555,0.0831 -0.11543,0.16431 -0.16992,0.24805 -0.0111,0.0483 -0.0226,0.0969 -0.0312,0.14648 0.16186,-0.16703 0.28801,-0.36809 0.40234,-0.58008 -0.01,3.3e-4 -0.0196,-3.5e-4 -0.0293,0 z m 0.85351,1.81055 c 0.032,0.23257 0.0791,0.46789 0.14258,0.69727 v 0.002 0.002 h 0.002 v 0.002 h 0.002 v -0.002 c 0.01,-0.0394 0.01,-0.33378 -0.002,-0.37695 l -0.002,-0.002 v -0.002 h -0.002 l -0.002,0.002 c -0.004,0.0127 -0.009,0.0563 -0.0156,0.14062 -0.0379,-0.15375 -0.0798,-0.31047 -0.12305,-0.46289 z m 208.37695,37.19141 c -0.006,0.003 -0.013,0.005 -0.0195,0.008 -0.024,0.22797 -0.0482,0.45684 -0.0644,0.68555 -9.4e-4,0.0171 0.009,0.0586 0.0156,0.0723 v 0.002 h 0.002 0.002 v -0.002 -0.002 c 0.0347,-0.25293 0.0548,-0.50801 0.0645,-0.76367 z M 397.41797,413.75 c 0.0645,0.0197 0.13063,0.036 0.19531,0.0547 -0.006,-0.002 0.0373,0.0103 0.0781,0.0215 0.0138,0.004 0.0147,0.003 0.0312,0.008 0.11549,0.0302 0.28434,0.0711 0.31836,0.0664 h 0.002 0.002 v -0.002 h 0.002 v -0.002 -0.002 h -0.002 v -0.002 c -0.006,-0.005 -0.0198,-0.0129 -0.0371,-0.0215 -0.17999,-0.0894 -0.38613,-0.10438 -0.58984,-0.12109 z m -18.62891,0.66211 v 0.10156 c 0.0379,0.002 0.0754,0.006 0.11328,0.008 -0.038,-0.036 -0.0755,-0.0733 -0.11328,-0.10937 z m -209.40039,4.54101 c 0.0941,0.0294 0.18197,0.0606 0.27735,0.0859 0.0816,0.0217 0.16447,0.0435 0.24609,0.0645 0.074,0.002 0.14665,0.004 0.2207,0.006 0.004,-0.005 0.008,-0.009 0.0117,-0.0137 -0.25157,-0.0457 -0.50869,-0.096 -0.75586,-0.14258 z m 12.79492,2.29297 c -0.0105,0.0285 -0.0217,0.0571 -0.0312,0.0859 l 0.002,0.002 0.002,0.002 c 0.10337,0.005 0.20726,0.01 0.31055,0.0156 -0.0946,-0.0353 -0.18881,-0.0697 -0.28321,-0.10547 z m 3.25586,1.13672 c -0.004,0.0158 -0.008,0.031 -0.0117,0.0469 0.12094,0.0214 0.24235,0.043 0.36329,0.0645 -0.11693,-0.0369 -0.23484,-0.0738 -0.35157,-0.11133 z m 227.69336,3.55078 c 0.0442,0.0578 0.091,0.11457 0.14258,0.17188 0.0267,0.011 0.0949,0.0248 0.11719,0.0215 h 0.002 0.002 0.002 v -0.002 -0.002 -0.002 -0.002 c -6.7e-4,-7.1e-4 -0.003,-0.003 -0.004,-0.004 -0.0813,-0.0696 -0.16909,-0.12877 -0.26172,-0.18164 z" />
<polygon
   fill="param(fill) #FFF"
   stroke="param(outline) #000"
   stroke-width="param(outline-width) 1"
   points="196.037,174.702 287.306,144.35 378.835,176.756   440.794,177.038 287.823,112.438 130.548,175.349 "
   id="polygon2" />
<polygon
   fill="param(fill) #FFF"
   stroke="param(outline) #000"
   stroke-width="param(outline-width) 1"
   points="502.566,174.873 502.566,141.908 286.162,53.075   71.974,143.903 71.974,176.867 284.19,90.54 "
   id="polygon3" />
<path
   id="rect3"
   style="fill:#000000;fill-opacity:0"
   d="m 201.87891,231.09961 c 0.42854,0.52171 0.44371,0.93358 0.61132,1.62305 0.13722,1.05743 0.20762,2.12078 0.25196,3.18554 1.66685,0.33808 3.32684,0.70792 4.99023,1.06055 2.92676,0.61898 5.8487,1.26231 8.78125,1.85352 3.01561,0.52653 6.02525,1.0908 9.06445,1.46484 2.14045,0.33495 4.30143,0.42026 6.4629,0.41992 0.0273,-0.88249 0.3574,-1.49091 0.87695,-1.93555 -0.15301,-0.30614 0.0764,-0.70088 0.68164,-0.7246 -0.24516,-0.10681 -0.48009,-0.23354 -0.70117,-0.39063 -0.0881,-0.083 -0.18267,-0.16 -0.26367,-0.25 -0.34831,-0.38685 -0.55123,-0.90665 -0.48243,-1.43164 0.0199,-0.15144 0.0771,-0.29741 0.11524,-0.44531 0.16866,-0.29608 0.21891,-0.44097 0.44531,-0.63282 -0.0267,6.4e-4 -0.0534,5.6e-4 -0.0801,0.002 -1.34221,0.0319 -1.3422,-1.32297 0,-1.35547 0.68156,-0.0165 1.36322,-0.0326 2.04492,-0.0469 -0.003,-0.001 -0.005,-0.002 -0.008,-0.004 -0.0478,-0.0286 -0.0912,-0.0618 -0.13281,-0.0977 -0.0171,0.004 -0.0314,0.009 -0.0371,0.01 v -0.002 l 0.002,-0.002 c 0.004,-0.003 0.0149,-0.008 0.0254,-0.0137 -0.23758,-0.20992 -0.38846,-0.52393 -0.5957,-0.76953 0.0673,-0.0499 0.13154,-0.10582 0.19727,-0.15821 -0.13487,-0.0109 -0.26965,-0.0233 -0.4043,-0.0371 -0.20952,-0.0325 -0.52808,-0.0678 -0.72852,-0.1543 -0.3941,-0.17001 -0.6588,-0.4913 -0.55273,-0.94336 0.0192,-0.0818 0.0681,-0.15258 0.11328,-0.22461 z m 69.36132,0 c 0.19653,0.0326 0.38858,0.0865 0.58008,0.15234 1.21964,0.41905 0.84103,1.64299 -0.30664,1.32617 -0.0206,0.0349 -0.0422,0.0721 -0.0664,0.11133 0.0126,0.12531 0.0213,0.25249 0.0332,0.375 2.8e-4,0.003 3.4e-4,0.005 0,0.008 v 0.002 0.002 l -0.002,0.002 v 0.002 l -0.002,0.002 h -0.002 v 0.002 h -0.002 l -0.002,0.002 h -0.002 c -0.0383,0.009 -0.14488,-0.0427 -0.22656,-0.0762 -0.01,0.0143 -0.0195,0.0282 -0.0293,0.043 0.0792,0.0305 0.15625,0.0666 0.23047,0.10938 0.0926,0.0534 0.17462,0.12365 0.26172,0.18555 0.21996,0.2158 0.34157,0.48756 0.3457,0.76172 0.0929,0.0163 0.18658,0.0331 0.2793,0.0508 0.74934,0.16685 1.97207,0.50644 1.76367,1.55859 -0.0425,0.21473 -0.22002,0.37719 -0.33008,0.56641 -0.16064,0.1132 -0.31231,0.24144 -0.48242,0.33984 -0.12429,0.0719 -0.25477,0.13743 -0.39063,0.19727 -2.9e-4,0.033 -4.5e-4,0.0652 -0.002,0.0976 -1.2e-4,0.008 -0.002,0.0158 -0.004,0.0215 v 0.002 0.002 h -0.002 v 0.002 l -0.002,0.002 v 0.002 h -0.002 v 0.002 l -0.002,0.002 c -0.0454,0.0389 -0.18626,-0.009 -0.27929,-0.0156 -0.37522,0.13804 -0.77749,0.23983 -1.18164,0.32032 0.0203,0.20754 0.0394,0.41575 0.0625,0.62304 0.27384,0.39053 0.314,0.84294 0.13476,1.23242 0.007,0.0977 0.013,0.19492 0.0176,0.29297 -0.0275,0.13376 -0.0269,0.27542 -0.082,0.40039 -0.0435,0.0987 -0.0975,0.19015 -0.16211,0.27344 2.47275,0.0686 4.94371,0.15771 7.41406,0.27735 5.63763,0.5038 11.50318,1.02214 16.73438,3.38671 0.43835,0.19815 0.86681,0.41434 1.29101,0.64063 0.22904,-0.35698 0.46332,-0.71054 0.70117,-1.06055 0.95844,-1.41042 3.67114,-2.59341 6.26368,-3.41797 -0.28465,-0.0116 -0.56892,-0.0242 -0.85352,-0.0371 -0.41175,-0.0335 -3.60231,-0.205 -3.91602,-0.5957 -0.88065,-1.09682 -0.90228,-1.8035 -0.53125,-2.29297 -0.41808,0.0112 -0.72139,0.0169 -1.13867,0.0156 -0.2397,0.0614 -0.47967,0.12676 -0.59765,-0.006 -1.22618,-0.02 -1.74475,-0.0786 -0.38477,-2.85157 5.6e-4,-0.0145 -5.7e-4,-0.0305 0,-0.0449 0.002,-0.0388 0.0224,-0.0554 0.0547,-0.0605 0.21935,-0.31446 0.85558,0.0223 1.26953,0.0215 0.61554,-10e-4 1.23018,0.006 1.8457,0.0117 1.27135,-0.0507 2.54292,-0.10534 3.81446,-0.15234 -0.20273,-0.0207 -0.40484,-0.0423 -0.60743,-0.0645 -0.33629,-0.0417 -0.67442,-0.0763 -1.00976,-0.125 -0.2925,-0.0425 -0.67791,0.0736 -0.87305,-0.14844 -1.12222,-1.27663 -1.08584,-1.76577 -0.50781,-2.125 0.003,-0.1194 0.0257,-0.23695 0.0684,-0.35156 z m 74.97461,0 c -0.0119,0.0611 -0.0256,0.122 -0.041,0.18164 0.006,0.21454 0.0106,0.42847 0.0254,0.63672 v 0.002 0.002 0.002 l -0.002,0.002 v 0.002 0.004 0.002 0.002 l -0.002,0.002 v 0.002 l -0.002,0.002 -0.002,0.002 v 0.002 h -0.002 l -0.002,0.002 c -0.0384,0.0158 -0.15315,-0.0416 -0.25391,-0.0879 -0.0136,0.0215 -0.0263,0.0435 -0.041,0.0645 -0.12571,0.17904 -0.37723,0.10618 -0.62696,0.0332 -0.003,0.006 -0.009,0.0149 -0.0195,0.0234 -0.0226,0.018 -0.0463,0.0352 -0.0703,0.0508 0.33221,0.44151 0.54366,0.96277 0.75586,1.48437 0.2911,0.005 0.58394,0.009 0.73828,0.22266 0.49148,0.67882 1.03126,1.59968 0.76563,2.39453 -0.20578,0.61576 -1.08876,0.69419 -1.74414,0.86328 7.38172,0.33633 14.76618,0.5802 22.14648,0.94727 1.38439,0.0782 2.76802,0.16141 4.15234,0.24414 -0.0107,-0.0394 -0.0211,-0.0796 -0.0312,-0.12109 -0.30042,-0.0221 -0.60001,-0.0459 -0.90039,-0.0684 -0.431,-0.0365 -0.86206,-0.0695 -1.29297,-0.10743 -0.13627,0.011 -0.26294,0.005 -0.36914,-0.0332 h -0.002 -0.002 c -1.70683,-0.16662 -3.35458,-0.44267 -0.34766,-2.94922 -0.006,-0.002 -0.011,-0.004 -0.0176,-0.006 -0.0961,-0.01 -0.19244,-0.0182 -0.28906,-0.0215 -0.007,-2.1e-4 -0.0157,-9e-4 -0.0195,-0.002 0.0242,-0.005 0.19744,-0.01 0.30859,0.0234 0.008,8e-4 0.0156,8.8e-4 0.0234,0.002 0.0421,-0.0351 0.0849,-0.0714 0.12891,-0.10742 0.45138,-0.36939 1.16565,0.0605 1.74804,0.0918 0.75884,0.0408 1.51661,0.0833 2.27539,0.125 1.35431,0.0727 2.7079,0.14009 4.0625,0.20703 v -0.002 -0.002 c -0.0546,-0.34471 0.62941,-0.32143 0.97071,-0.39453 0.11427,-0.0245 0.23062,-0.0325 0.34765,-0.0332 -0.94421,-1.19764 -1.04465,-1.74771 -0.40039,-2.43945 -1.09459,-0.0944 -1.69051,-0.65186 -1.78711,-1.25 z m -76.67187,0.002 c 0.008,0.006 0.0156,0.0127 0.0234,0.0176 h 0.002 l 0.002,0.002 h 0.002 l 0.002,0.002 h 0.002 0.002 0.002 0.002 0.002 0.002 l 0.002,-0.002 h 0.002 c 0.01,-0.006 0.018,-0.0125 0.0274,-0.0195 -0.0251,1e-5 -0.0491,0 -0.0742,0 z m 147.83398,0.15235 c 0.25537,0.1105 0.46053,0.25488 0.61524,0.41797 -0.15326,-0.17347 -0.36494,-0.31808 -0.61524,-0.41797 z m -182.72656,0.13281 c -0.0514,0.003 -0.1029,0.006 -0.1543,0.01 0.12756,0.008 0.25709,0.017 0.38477,0.0234 -0.0762,-0.0111 -0.15425,-0.0222 -0.23047,-0.0332 z m 8.87305,0.01 c -0.0156,0.001 -0.0313,0.002 -0.0469,0.004 0.0137,0.002 0.0273,0.005 0.041,0.008 0.002,-0.004 0.004,-0.008 0.006,-0.0117 z m -10.04688,0.27344 c -0.0494,0.0308 -0.0824,0.064 -0.0918,0.0996 0.0422,-0.0433 0.0721,-0.068 0.0918,-0.0996 z m 111.59766,0.23438 c 0.0104,0.0127 0.0208,0.0262 0.0312,0.0391 0.0321,-0.003 0.0628,-0.007 0.0879,-0.008 -0.0399,-0.0114 -0.0804,-0.0225 -0.11914,-0.0312 z m 73.18555,1.03906 c -0.13616,0.32039 -0.42865,0.60366 -0.87891,0.77734 0.11928,0.16271 0.21596,0.34557 0.28516,0.54883 0.0737,0.21658 0.0803,0.45066 0.12109,0.67578 0.0181,0.72211 -0.23343,1.39221 -0.42773,2.07422 0.13763,0.17132 0.2657,0.34976 0.38476,0.53711 0.117,0.18409 0.21092,0.38135 0.31641,0.57227 0.0787,0.15871 0.14489,0.31952 0.19922,0.48047 z m -257.23633,2.18164 -0.002,0.002 h -0.002 l -0.002,0.002 h -0.002 l -0.002,0.002 -0.002,0.002 -0.002,0.002 -0.002,0.002 -0.002,0.002 v 0.002 h -0.002 v 0.002 0.002 c -0.0117,0.0479 0.0713,0.15785 0.125,0.19141 l 0.002,0.002 v 0.002 l 0.002,0.002 v 0.002 l 0.008,0.0117 h 0.002 0.002 c -0.0513,-0.11947 -0.0907,-0.20021 -0.10937,-0.2168 l -0.002,-0.0117 h -0.002 v -0.002 h -0.002 -0.002 -0.002 z m 110.02929,0.19922 c 0.0151,0.0437 0.0288,0.0889 0.043,0.13281 0.21009,0.0105 0.42107,0.0205 0.63086,0.0312 0.0728,0.004 0.15123,-0.005 0.23242,-0.0176 -0.30128,-0.0563 -0.60327,-0.10474 -0.90625,-0.14648 z m -111.56054,0.0859 v 1.18945 c 0.44596,-0.17473 0.89589,-0.33029 1.34765,-0.4707 -0.002,-3e-5 -0.009,-0.001 -0.0117,-0.002 -0.38355,-0.0688 -0.78105,-0.17968 -1.09374,-0.41211 -0.10555,-0.0784 -0.17916,-0.18693 -0.24219,-0.30468 z m 74.9375,0.40039 c -0.15557,0.0146 -0.83283,-0.0222 -0.92383,0.16601 v 0.002 l -0.002,0.002 v 0.002 0.002 0.002 0.002 c 7.6e-4,0.014 0.009,0.0324 0.008,0.0469 v 0.002 c -0.007,0.0391 -0.0266,0.0755 -0.0391,0.11328 0.01,0.22695 0.16581,0.36332 0.33203,0.49609 0.31616,0.16986 0.65457,0.28928 1,0.38477 -0.16272,-0.1119 -0.2971,-0.26174 -0.44922,-0.38867 0.0608,-0.27349 0.0709,-0.56388 0.15234,-0.83008 -0.026,-6.5e-4 -0.0521,-4.5e-4 -0.0781,-0.002 z m 0.77929,1.01757 c -0.0299,-9.4e-4 -0.0598,-7.4e-4 -0.0898,0.002 -0.0129,9.7e-4 -0.0451,0.009 -0.0527,0.0117 h -0.002 v 0.002 h 0.002 0.002 c 0.0424,-0.005 0.10258,0.0143 0.13476,-0.01 4.1e-4,-3.1e-4 0.003,-0.003 0.004,-0.004 z m 65.29493,2.1504 c -0.0583,0.024 -0.11223,0.0469 -0.15821,0.0703 l -0.002,0.002 h -0.002 v 0.002 h -0.002 v 0.002 0.002 0.002 h 0.002 0.002 c 0.029,0.006 0.12933,-0.005 0.15039,-0.0371 l 0.002,-0.002 v -0.002 l 0.002,-0.002 v -0.002 z m -53.59766,0.52539 c 0.001,0.005 0.003,0.0104 0.004,0.0156 0.0953,-0.002 0.18979,-0.005 0.28515,-0.008 -0.0967,-0.003 -0.19244,-0.005 -0.28906,-0.008 z m 96.16211,0.25 c -0.0118,0.0302 -0.0226,0.0615 -0.0332,0.0918 -0.0588,0.0149 -0.11686,0.0288 -0.17578,0.043 0.40638,0.2168 0.80455,0.44765 1.1914,0.69922 2.50849,1.63131 4.56748,3.9882 6.1836,6.51758 3.90458,-0.49567 8.42021,-0.34543 13.51562,0.64258 0.38068,0.0738 0.76184,0.14719 1.14258,0.2207 1.54792,-1.73015 3.37843,-3.22508 5.39062,-4.5293 1.43902,-0.90199 2.91362,-1.62188 4.4375,-2.20898 -2.34177,-0.13914 -4.68332,-0.28155 -7.02539,-0.41406 -7.85848,-0.39098 -15.72259,-0.64152 -23.58203,-1.01368 -0.34801,-0.0161 -0.6969,-0.0327 -1.04492,-0.0488 z m -107.9707,0.71484 c -0.0142,0.0436 -0.0218,0.0892 -0.0234,0.13477 0.0187,-7.5e-4 0.0379,-0.003 0.0566,-0.004 -0.0169,-0.066 -0.0286,-0.12249 -0.0312,-0.13086 z m 164.16015,0.53906 c -0.14335,0.0128 -0.28632,0.026 -0.42969,0.0391 0.13964,5.7e-4 0.27835,0.002 0.41797,0.002 0.004,-0.0134 0.008,-0.0275 0.0117,-0.041 z m 19.00196,0.41016 c -0.009,0.0345 -0.0181,0.069 -0.0274,0.10351 -0.27232,0.76173 -0.65676,1.25999 -1.29297,1.47071 -0.13291,0.44303 -0.35873,0.85549 -0.70312,1.17187 -0.0453,0.0416 -0.0923,0.0814 -0.14063,0.11914 0.72103,0.12711 1.44227,0.25317 2.16407,0.375 z m -33.49219,2.50586 -0.002,0.002 v 0.002 h -0.002 -0.002 v 0.002 h 0.002 v 0.002 c 8.8e-4,1.4e-4 0.005,-1.3e-4 0.006,0 h 0.002 l 0.002,0.002 h 0.002 c 0.17767,0.0452 0.35846,0.0753 0.53906,0.10743 -0.11378,-0.0321 -0.22868,-0.0639 -0.34179,-0.0977 -0.0435,-0.0133 -0.15059,-0.0215 -0.19336,-0.0195 -10e-4,7e-5 -0.004,6e-5 -0.006,0 h -0.002 -0.002 z m 31.07617,3.23437 c 0.89102,0.94921 1.6948,1.82942 2.41602,2.65235 v -2.23633 c -0.80602,-0.13268 -1.61142,-0.27466 -2.41602,-0.41602 z m -25.41406,0.8086 v 0.002 h 0.002 v -0.002 z m -0.004,0.004 c -0.0293,0.0163 -0.24048,0.17837 -0.32812,0.23242 h -0.002 -0.002 v -0.002 c -10e-4,-0.003 -0.003,-0.01 -0.004,-0.0137 v -0.002 c -0.10664,0.0987 -0.22413,0.188 -0.32031,0.29687 0.26747,-0.19989 0.57337,-0.4313 0.64453,-0.49609 0.006,-0.006 0.009,-0.0101 0.0117,-0.0137 z m -0.0566,0.81836 c -0.26001,0.015 -0.79565,0.15745 -1.07031,0.2461 -0.004,0.005 -0.008,0.0107 -0.0117,0.0156 0.29207,-0.0531 0.58231,-0.10962 0.87305,-0.16992 0.0541,-0.0235 0.19693,-0.0696 0.2207,-0.0859 h 0.002 v -0.002 h 0.002 v -0.002 h -0.002 l -0.002,-0.002 c -0.003,-2.6e-4 -0.007,-2.5e-4 -0.0117,0 z m -109.69336,30.34766 c 0.49134,0.20332 1.02518,0.38127 1.39844,0.36523 0.01,-4.1e-4 0.0172,-0.002 0.0215,-0.004 h 0.002 l 0.002,-0.002 0.002,-0.002 v -0.002 -0.002 h -0.002 v -0.002 l -0.002,-0.002 c -0.0358,-0.0362 -0.26229,-0.11813 -0.35547,-0.13867 -0.35353,-0.0781 -0.70889,-0.14763 -1.06641,-0.21094 z m 75.07227,6.08203 c 0.27679,1.42759 0.56412,2.85228 0.85351,4.27734 1.24611,-0.97141 2.58236,-1.85401 4.01367,-2.64843 0.32634,-0.14711 0.65006,-0.29794 0.97461,-0.44922 -1.38298,-0.26713 -2.76573,-0.53583 -4.14648,-0.8125 -0.5757,-0.11536 -1.14036,-0.23769 -1.69531,-0.36719 z m 36.0664,2.20508 -0.002,0.002 h -0.002 c 0.0216,0.14897 0.0466,0.30216 0.0762,0.46289 v 0.002 0.002 h 0.002 v -0.002 c 0.002,-0.012 0.003,-0.0627 0.008,-0.0801 l 0.002,-0.002 v -0.002 -0.002 h 0.002 0.002 c -0.0169,-0.12569 -0.0434,-0.25265 -0.0781,-0.38086 h -0.002 -0.002 -0.002 -0.002 z m -93.84961,2.51172 c -0.93026,1.00388 -1.89972,1.97209 -2.91406,2.89648 -0.0671,0.0611 -0.13348,0.12124 -0.20117,0.18164 0.58037,0.2851 1.12277,0.62526 1.58594,1.07227 0.24005,0.23167 0.48754,0.46163 0.74023,0.6914 0.10733,-0.6639 0.21912,-1.32672 0.3418,-1.98828 0.27349,-1.47386 0.23267,-0.83688 0.26367,-1.50195 0.0521,-0.4522 0.11345,-0.90283 0.18359,-1.35156 z m -121.99218,29.85351 c -0.0576,0.0618 -0.11432,0.12375 -0.17188,0.18555 -0.0555,0.0831 -0.11543,0.16431 -0.16992,0.24805 -0.0111,0.0483 -0.0226,0.0969 -0.0312,0.14648 0.16186,-0.16703 0.28801,-0.36809 0.40234,-0.58008 -0.01,3.3e-4 -0.0196,-3.5e-4 -0.0293,0 z m 201.86328,1.33789 c -0.12463,0.0351 -0.23939,0.0686 -0.33008,0.0957 -0.20317,0.0607 -0.40632,0.1186 -0.60547,0.1914 -0.0443,0.0162 -0.14979,0.0696 -0.17383,0.0879 l -0.002,0.002 -0.002,0.002 h -0.002 v 0.002 h 0.002 0.002 c 0.002,-7e-5 0.007,-9e-4 0.01,-0.002 0.36171,-0.1092 0.71467,-0.24513 1.07226,-0.36719 0.01,-0.004 0.0195,-0.008 0.0293,-0.0117 z m -80.02735,6.31446 c -0.75376,0.69018 -1.52217,1.36238 -2.32226,1.99609 0.64687,-0.0204 1.29455,-0.0403 1.9414,-0.0605 0.39413,-0.0121 0.78755,-0.0241 1.18165,-0.0371 -0.27891,-0.62667 -0.54495,-1.2595 -0.80079,-1.89843 z m -67.98632,13.46679 c -1.28238,0.1227 -2.56144,0.26476 -3.83789,0.42774 0.3069,0.0114 0.613,0.0238 0.91992,0.0351 0.83505,0.033 1.66884,0.0645 2.5039,0.0937 0.13805,-0.18506 0.27622,-0.37124 0.41407,-0.55664 z m 131.875,3.83985 c -0.80237,4.47064 -3.01294,8.53403 -6.32227,11.91797 -1.36353,1.39424 -3.11174,2.35012 -4.66797,3.52539 -0.87734,0.41694 -1.74381,0.85679 -2.62305,1.26953 0.49509,0.26456 0.98399,0.5426 1.4668,0.83398 3.04453,2.14773 3.63668,2.33382 6.25195,5.17774 2.52027,2.74061 4.50404,6.21067 5.58789,9.76953 0.43077,1.41431 0.62125,2.89239 0.93165,4.33789 -0.0645,2.20925 0.1079,4.43739 -0.19336,6.62695 -0.49572,3.60281 -2.3322,6.85208 -4.18946,9.89649 -0.95173,1.48324 -1.91801,2.96368 -2.96289,4.38281 -1.21855,1.89458 -2.46561,3.77344 -3.78711,5.59765 -1.92083,2.36359 -3.98456,4.60602 -6.29101,6.58594 0.31676,0.19287 0.64543,0.37221 0.89453,0.64258 1.06114,1.15174 0.96374,2.35799 0.49219,3.70898 -0.11364,0.32555 -0.53768,0.81798 -0.70508,1.03711 -0.33122,0.29573 -0.5832,0.64861 -0.86328,0.98829 -0.069,0.0837 -0.1394,0.16429 -0.20899,0.24218 0.0914,0.0443 0.18367,0.0892 0.27539,0.13282 1.12061,0.58251 2.17974,1.26571 3.3711,1.70312 1.32112,0.58613 2.86287,1.12209 2.37695,3.54688 -0.19022,0.94916 -0.57007,1.53819 -1.05859,1.89453 h 32.16796 c -0.57124,-0.0197 -1.14212,-0.0281 -1.71679,-0.0117 -1.38739,0.0394 -2.77411,-0.0816 -4.16016,-0.13672 -1.54121,-0.0629 -3.08467,-0.0298 -4.61914,-0.20117 -0.36692,-0.11844 -0.98004,0.0111 -1.09961,-0.35547 -0.50135,-1.53688 -0.82086,-3.21503 -0.58594,-4.81445 0.0765,-0.52092 0.91039,-0.5399 1.4004,-0.73243 0.35292,-0.13867 0.7381,-0.1767 1.10937,-0.2539 0.59546,-0.12381 2.38426,-0.44156 2.90234,-0.53516 1.19712,-0.19209 2.39173,-0.39541 3.58594,-0.60351 -0.0297,-0.22293 -0.0572,-0.44774 -0.084,-0.67188 -0.116,-0.006 -0.23165,-0.0114 -0.34766,-0.0176 v -0.002 c -5.68816,-0.30144 -5.68969,-6.02487 0,-5.75391 0.29273,0.0139 0.58626,0.0295 0.87891,0.0449 -3.74104,-3.54529 -6.09117,-7.32715 -7.23828,-11.00586 -1.92128,-2.01832 -3.49079,-4.35318 -4.72852,-6.89453 -1.39802,-3.402 -2.51323,-6.91147 -3.2793,-10.51367 -0.73589,-3.69514 -1.28695,-7.42481 -1.42968,-11.19531 -0.15012,-2.89995 -0.25802,-5.80041 -0.19922,-8.70508 0.087,-3.76816 0.42155,-7.52263 1.16797,-11.22265 0.56138,-2.63968 1.16817,-5.73285 2.36132,-8.14844 0.074,-0.14983 0.14664,-0.30279 0.2168,-0.45703 -1.38046,-0.48565 -2.74123,-1.02918 -4.07812,-1.63086 z m 23.50585,14.04297 c -0.006,0.003 -0.013,0.005 -0.0195,0.008 -0.024,0.22797 -0.0482,0.45691 -0.0644,0.68555 -9.4e-4,0.0171 0.009,0.0586 0.0156,0.0723 v 0.002 h 0.002 0.002 v -0.002 -0.002 c 0.0347,-0.25293 0.0549,-0.50801 0.0645,-0.76367 z m 33.05665,18.29296 c -0.74101,1.24005 -1.58121,2.40941 -2.49024,3.52344 0.87519,0.63367 1.70788,1.33138 2.49024,2.0918 z m -258.76758,30.12305 v 12.66992 c 0.22252,-0.49547 0.46792,-0.75212 0.75195,-0.8789 l -0.002,-0.002 h -0.002 v -0.002 l -0.002,-0.002 -0.002,-0.002 -0.002,-0.002 -0.002,-0.002 v -0.002 l -0.002,-0.002 -0.002,-0.002 v -0.002 -0.002 l -0.002,-0.002 v -0.002 l 0.002,-0.002 0.002,-0.002 h 0.002 0.002 c 0.0103,-6.6e-4 0.031,0.004 0.0547,0.0117 0.43934,-0.17326 0.97026,-0.0602 1.65235,-0.0508 0.004,5e-5 0.008,-5e-5 0.0117,0 0.007,-0.10371 0.0402,-0.21749 0.0391,-0.31836 0.0329,-0.14963 0.0706,-0.3107 0.11328,-0.47852 -0.065,-0.0896 -0.12707,-0.17641 -0.18359,-0.25586 -0.19068,-0.26796 -0.37881,-0.53864 -0.5625,-0.8125 -0.0359,-0.006 -0.0717,-0.0121 -0.10743,-0.0195 -0.20065,-0.0417 -0.60565,-0.0434 -0.56445,-0.24414 0.0216,-0.10507 0.0497,-0.21087 0.084,-0.31445 -0.19096,-0.18807 -0.39619,-0.36456 -0.53515,-0.5918 -0.16544,-0.27056 -0.25378,-1.00451 -0.30078,-1.32031 -0.0174,-0.11658 -0.15751,-0.30341 -0.0488,-0.34961 0.0317,-0.0135 0.0635,-0.0262 0.0937,-0.0391 -0.0105,-0.25725 0.0171,-0.52581 0.0293,-0.75391 0.0584,-0.47845 0.0967,-1.10085 0.30664,-1.54492 0.13591,-0.28756 0.28298,-0.5972 0.53515,-0.79102 0.21855,-0.16787 0.43045,-0.26602 0.63867,-0.30078 -0.001,-0.0509 -0.003,-0.0906 -0.004,-0.11719 -0.0371,-0.51456 0.13269,-0.55586 0.59179,-0.55468 0.10141,-0.2314 0.2222,-0.37304 0.35547,-0.44922 -0.0295,-0.0235 -0.0584,-0.0468 -0.0879,-0.0703 -0.96408,-0.78415 -1.91745,-1.58055 -2.85351,-2.39649 z M 397.41797,413.75 c 0.0645,0.0197 0.13063,0.036 0.19531,0.0547 -0.006,-0.002 0.0373,0.0103 0.0781,0.0215 0.0138,0.004 0.0147,0.003 0.0312,0.008 0.11549,0.0302 0.28434,0.0711 0.31836,0.0664 h 0.002 0.002 v -0.002 h 0.002 v -0.002 -0.002 h -0.002 v -0.002 c -0.006,-0.005 -0.0198,-0.0129 -0.0371,-0.0215 -0.17999,-0.0894 -0.38613,-0.10438 -0.58984,-0.12109 z m -235.58203,0.68359 c -0.0472,0.096 -0.0975,0.18743 -0.15235,0.27344 0.0579,0.11286 0.11625,0.22499 0.17774,0.33594 0.0151,-0.007 0.0299,-0.0126 0.0449,-0.0195 0.007,-0.0951 0.0153,-0.19035 0.0254,-0.28516 v -0.002 c -4e-5,-8.3e-4 1e-5,-0.005 0,-0.006 v -0.002 c -0.0105,-0.005 -0.0207,-0.0107 -0.0312,-0.0156 6.5e-4,-0.0267 6.5e-4,-0.0534 0.002,-0.0801 -0.0286,-0.0677 -0.0503,-0.13318 -0.0664,-0.19922 z m 7.55273,4.51953 c 0.0941,0.0294 0.18197,0.0606 0.27735,0.0859 0.0816,0.0217 0.16447,0.0435 0.24609,0.0645 0.074,0.002 0.14665,0.004 0.2207,0.006 0.004,-0.005 0.008,-0.009 0.0117,-0.0137 -0.25157,-0.0457 -0.50869,-0.096 -0.75586,-0.14258 z m 174.04492,0.91993 c -0.11797,0.008 -0.22452,0.0256 -0.32617,0.0508 0.0557,-0.002 0.12142,-0.005 0.20508,-0.01 0.0316,-0.002 0.10714,-0.0247 0.125,-0.0351 l 0.002,-0.002 h 0.002 v -0.002 -0.002 h -0.002 c -9.6e-4,-10e-6 -0.005,-10e-5 -0.006,0 z m -161.25,1.37304 c -0.0105,0.0284 -0.0217,0.0572 -0.0312,0.0859 l 0.002,0.002 0.002,0.002 c 0.10303,0.005 0.20565,0.01 0.30859,0.0156 -0.0943,-0.0352 -0.18715,-0.0698 -0.28125,-0.10547 z m -20.69336,0.14649 c -0.80295,0.11658 -0.30772,0.0454 -1.79882,0.26758 -0.0644,0.01 -0.13128,0.0294 -0.19922,0.0527 v 0.83008 c 0.8445,-0.12626 1.39596,-0.18836 2.10156,-0.26172 0.0512,-0.0614 0.10754,-0.10901 0.16797,-0.14648 -0.11524,-0.11114 -0.18993,-0.24696 -0.19336,-0.41211 -0.016,-0.0128 -0.0272,-0.0298 -0.0332,-0.0527 -0.0237,-0.0912 -0.0372,-0.18419 -0.0449,-0.27734 z m 256.76954,0.0469 c -0.29006,0.21712 -0.59053,0.42045 -0.89649,0.61524 0.0813,0.089 0.16263,0.17885 0.2461,0.26562 0.20857,0.37184 0.47656,0.71558 0.625,1.11524 0.009,0.0234 0.0172,0.0468 0.0254,0.0703 z m -189.55274,0.59375 c -1.39275,0.0348 -2.78551,0.0886 -4.17187,0.23438 -1.96606,0.19929 -3.92234,0.48212 -5.88086,0.74219 -2.88216,0.45792 -5.76267,0.9581 -8.67969,1.14257 -3.40505,0.22771 -6.81761,0.27662 -10.22266,0.50977 -0.37573,-4.8e-4 -0.74915,-0.004 -1.12109,-0.0117 0.0259,0.11058 0.0388,0.22484 0.043,0.33984 0.13245,0.0756 0.23015,0.16515 0.20898,0.29883 0.15192,0.12919 0.26596,0.33882 0.29688,0.625 0.0486,7e-5 0.096,3.6e-4 0.14453,0.002 0.0422,9.5e-4 0.67834,0.0279 0.74219,0.0625 l 0.002,0.002 h 0.002 v 0.002 0.002 h 0.002 c 0.0567,0.43842 0.11665,0.73713 0.1582,0.94531 0.59112,0.39948 0.32509,1.27285 -0.80078,1.29687 -0.009,1.9e-4 -0.0186,-1.9e-4 -0.0273,0 0.008,0.12357 0.003,0.24039 -0.0273,0.33789 v 0.002 h 33.21094 c -0.23812,-0.0233 -0.4754,-0.0541 -0.71094,-0.10157 -0.52418,-0.12257 -0.96552,-0.47057 -0.91992,-1.07031 0.009,-0.11805 0.0783,-0.22216 0.11719,-0.33398 0.2116,-0.3264 0.54582,-0.50551 0.8789,-0.6836 0.0874,-0.0448 0.17692,-0.0848 0.26758,-0.11914 -0.46794,-0.053 -0.90401,-0.16928 -0.96289,-0.67578 -0.55914,-0.20533 -1.09316,-0.4257 -1.0293,-1.26172 0.0209,-0.27426 0.38288,-0.39418 0.57422,-0.59179 0.99673,-0.21391 2.06417,-0.17553 3.0918,-0.1836 0.004,-0.012 0.009,-0.026 0.0156,-0.0391 -0.002,0.0122 -0.002,0.0265 -0.004,0.0391 0.0825,-6.8e-4 0.16441,-0.002 0.24609,-0.004 0.13062,-0.03 0.26289,-0.0576 0.39453,-0.084 -0.0253,-0.0305 -0.0494,-0.0596 -0.0742,-0.0898 -0.37631,-0.007 -0.7526,-0.0146 -1.1289,-0.0215 l -0.002,-0.004 c -1.04237,-0.0192 -1.34922,-0.76642 -0.91992,-1.19532 -0.15563,-0.0164 -0.31076,-0.0355 -0.46484,-0.0605 h -0.002 v -0.002 -0.002 h 0.002 c 0.005,-0.006 0.0183,-0.0192 0.0234,-0.0254 h 0.002 v -0.002 -0.002 h -0.002 c -1.08835,-0.0842 -2.18207,-0.0319 -3.27149,-0.0195 z m 5.19727,1.51172 c -0.004,3e-5 -0.008,-10e-6 -0.0117,0 -0.008,0.0217 -0.0122,0.0432 -0.0137,0.0645 h 0.002 0.002 c 0.003,-6.4e-4 0.009,-0.003 0.0117,-0.004 h 0.002 c 0.003,-0.0196 0.005,-0.0409 0.008,-0.0606 z m -48.46485,-1.16211 c -0.004,0.0157 -0.008,0.0311 -0.0117,0.0469 0.12017,0.0212 0.24117,0.0432 0.36133,0.0645 -0.11617,-0.0367 -0.23363,-0.0741 -0.34961,-0.11133 z m 116.37891,2.27344 c -1.54831,0.007 -3.0966,0.0185 -4.64453,0.041 -2.53805,0.0374 -5.07442,0.0832 -7.61133,0.16992 -3.0847,0.1037 -6.16926,0.15808 -9.25586,0.14648 -2.87479,0.0433 -5.73929,0.31869 -8.61328,0.375 0.16391,0.0417 0.32714,0.0875 0.48828,0.14063 0.43899,0.14466 0.86021,0.35203 1.10156,0.76758 0.0449,0.0774 0.0734,0.16409 0.10938,0.24609 0.15816,0.54649 -0.10609,1.00031 -0.46485,1.38476 -0.30405,0.28341 -0.66926,0.44805 -1.0664,0.55274 -0.11304,0.0321 -0.2257,0.0603 -0.33985,0.0859 h 31.77735 c -1.98382,-0.88921 -2.41786,-2.66916 -1.48047,-3.91016 z m 111.31445,1.27734 c 0.0442,0.0578 0.091,0.11457 0.14258,0.17188 0.0267,0.011 0.0949,0.0248 0.11719,0.0215 h 0.002 0.002 0.002 v -0.002 -0.002 -0.002 -0.002 c -6.7e-4,-7.1e-4 -0.003,-0.003 -0.004,-0.004 -0.0813,-0.0696 -0.16909,-0.12877 -0.26172,-0.18164 z m 5.12696,0.21485 c -0.12264,0.3729 -0.29592,0.72773 -0.51563,1.05078 -0.17108,0.25154 -0.39898,0.46106 -0.59766,0.6914 -0.29626,0.26965 -0.61231,0.49136 -0.94336,0.67579 h 0.3418 c 0.95018,0 1.71485,-0.55085 1.71485,-1.23633 z m -258.76758,0.3457 v 0.0488 c 0.1322,0.0239 0.26435,0.0486 0.39648,0.0723 0.82704,0.13554 1.65651,0.25894 2.48828,0.35352 0.0281,-0.10106 0.0632,-0.1999 0.10547,-0.29492 -0.99647,-0.0602 -1.99352,-0.12112 -2.99023,-0.17969 z m 111.91406,0.36133 c 0.0193,0.0641 0.0375,0.12712 0.0508,0.19141 0.0157,-0.004 0.0312,-0.009 0.0469,-0.0137 0.0819,-0.017 0.15643,-0.0384 0.22851,-0.0723 -0.01,-0.004 -0.0184,-0.0105 -0.0273,-0.0156 -0.0985,-0.0342 -0.19849,-0.0629 -0.29883,-0.0898 z m -39.3125,0.11914 v 0.002 h 0.002 l 0.002,0.002 h 0.002 c 0.0258,0.012 0.053,0.0187 0.0801,0.0273 -0.0198,-0.0148 -0.0691,-0.0301 -0.082,-0.0312 h -0.002 z m 39.89258,0.0742 c 0.002,0.006 0.005,0.011 0.008,0.0176 0.0297,0.0297 0.0576,0.0606 0.10352,0.0586 -0.0289,-0.0334 -0.0679,-0.0571 -0.11133,-0.0762 z M 159.89062,428.125 c 0.20868,0.17928 0.4882,0.31589 0.80665,0.38672 -0.0639,-0.0982 -0.13899,-0.19527 -0.20704,-0.29297 -0.19913,-0.0302 -0.40024,-0.0618 -0.59961,-0.0937 z" /><path
   id="rect4"
   style="fill:#000000;fill-opacity:0"
   d="m 72.238281,284.80664 c -0.950183,0 -1.714843,0.5528 -1.714843,1.23828 v 12.71485 c 0,0.68548 0.76466,1.23632 1.714843,1.23632 h 77.517579 c -0.11093,-0.21368 -0.21842,-0.42926 -0.32031,-0.64843 -2.14056,-4.60445 -2.08384,-9.71342 -0.91211,-14.54102 z" /><path
   id="rect5"
   style="fill:#000000;fill-opacity:0"
   d="m 135.71094,284.80664 c -0.95019,0 -1.7168,0.5528 -1.7168,1.23828 v 7.83203 c 0,0.68548 0.76661,1.23633 1.7168,1.23633 h 12.36718 c -0.64997,-3.39309 -0.37694,-6.91905 0.44532,-10.30664 z" /></svg>
