<?xml version="1.0" encoding="UTF-8" standalone="no"?>
<!-- Generator: Adobe Illustrator 16.0.0, SVG Export Plug-In . SVG Version: 6.00 Build 0)  -->

<svg
   version="1.1"
   id="svg2"
   inkscape:output_extension="org.inkscape.output.svg.inkscape"
   sodipodi:docname="Rijksmonument_NHR91.svg"
   inkscape:version="1.4.2 (f4327f4, 2025-05-13)"
   sodipodi:version="0.32"
   x="0px"
   y="0px"
   width="580px"
   height="580px"
   viewBox="0 0 580 580"
   enable-background="new 0 0 580 580"
   xml:space="preserve"
   xmlns:inkscape="http://www.inkscape.org/namespaces/inkscape"
   xmlns:sodipodi="http://sodipodi.sourceforge.net/DTD/sodipodi-0.dtd"
   xmlns="http://www.w3.org/2000/svg"
   xmlns:svg="http://www.w3.org/2000/svg">
<sodipodi:namedview
   showgrid="false"
   inkscape:cy="275.17771"
   inkscape:cx="218.6232"
   inkscape:zoom="3.6867085"
   pagecolor="#ffffff"
   bordercolor="#666666"
   guidetolerance="10.0"
   objecttolerance="10.0"
   gridtolerance="10.0"
   borderopacity="1.0"
   id="base"
   inkscape:current-layer="svg2"
   inkscape:window-y="-8"
   inkscape:window-x="-8"
   inkscape:pageopacity="0.0"
   inkscape:pageshadow="2"
   inkscape:window-width="1920"
   inkscape:window-height="1009"
   inkscape:showpageshadow="2"
   inkscape:pagecheckerboard="0"
   inkscape:deskcolor="#d1d1d1"
   inkscape:window-maximized="1">
	</sodipodi:namedview>
<defs
   id="defs1">
	
	
		<inkscape:perspective
   inkscape:vp_z="580 : 290 : 1"
   inkscape:vp_y="0 : 1000 : 0"
   inkscape:vp_x="0 : 290 : 1"
   sodipodi:type="inkscape:persp3d"
   id="perspective2441"
   inkscape:persp3d-origin="290 : 193.33333 : 1">
		</inkscape:perspective>
	
		<inkscape:perspective
   inkscape:vp_z="60 : 30 : 1"
   inkscape:vp_y="0 : 1000 : 0"
   inkscape:vp_x="0 : 30 : 1"
   sodipodi:type="inkscape:persp3d"
   id="perspective3452"
   inkscape:persp3d-origin="30 : 20 : 1">
		</inkscape:perspective>
	
		<inkscape:perspective
   inkscape:vp_z="744.09448 : 526.18109 : 1"
   inkscape:vp_y="0 : 1000 : 0"
   inkscape:vp_x="0 : 526.18109 : 1"
   sodipodi:type="inkscape:persp3d"
   id="perspective4471"
   inkscape:persp3d-origin="372.04724 : 350.78739 : 1">
		</inkscape:perspective>
	
		<inkscape:perspective
   inkscape:vp_z="12 : 6 : 1"
   inkscape:vp_y="0 : 1000 : 0"
   inkscape:vp_x="0 : 6 : 1"
   sodipodi:type="inkscape:persp3d"
   id="perspective4668"
   inkscape:persp3d-origin="6 : 4 : 1">
		</inkscape:perspective>
	
		<inkscape:perspective
   inkscape:vp_z="32 : 16 : 1"
   inkscape:vp_y="0 : 1000 : 0"
   inkscape:vp_x="0 : 16 : 1"
   sodipodi:type="inkscape:persp3d"
   id="perspective4904"
   inkscape:persp3d-origin="16 : 10.666667 : 1">
		</inkscape:perspective>
	
		<inkscape:perspective
   inkscape:vp_z="32 : 16 : 1"
   inkscape:vp_y="0 : 1000 : 0"
   inkscape:vp_x="0 : 16 : 1"
   sodipodi:type="inkscape:persp3d"
   id="perspective5233"
   inkscape:persp3d-origin="16 : 10.666667 : 1">
		</inkscape:perspective>
	
		<inkscape:perspective
   inkscape:vp_z="500 : 250 : 1"
   inkscape:vp_y="0 : 1000 : 0"
   inkscape:vp_x="0 : 250 : 1"
   sodipodi:type="inkscape:persp3d"
   id="perspective5412"
   inkscape:persp3d-origin="250 : 166.66667 : 1">
		</inkscape:perspective>
	
		<inkscape:perspective
   inkscape:vp_z="405.71429 : 204.28572 : 1"
   inkscape:vp_y="0 : 1000 : 0"
   inkscape:vp_x="0 : 204.28572 : 1"
   sodipodi:type="inkscape:persp3d"
   id="perspective5571"
   inkscape:persp3d-origin="202.85715 : 136.19048 : 1">
		</inkscape:perspective>
	
		<inkscape:perspective
   inkscape:vp_z="128 : 64 : 1"
   inkscape:vp_y="0 : 1000 : 0"
   inkscape:vp_x="0 : 64 : 1"
   sodipodi:type="inkscape:persp3d"
   id="perspective6552"
   inkscape:persp3d-origin="64 : 42.666667 : 1">
		</inkscape:perspective>
</defs>
<g
   id="layer3"
   transform="matrix(48.14969,0,0,48.14969,-536.27327,-33.306752)"
   inkscape:label="Layout"
   display="none">
	<rect
   id="rect4134"
   x="1"
   y="1"
   display="inline"
   fill="none"
   stroke="#757575"
   stroke-width="0.1"
   width="10"
   height="10" />
	<rect
   id="rect4136"
   x="2"
   y="2"
   display="inline"
   fill="none"
   stroke="#757575"
   stroke-width="0.1"
   width="8"
   height="8" />
</g>
<rect
   x="35.845"
   y="500.614"
   fill="param(fill) #FFF"
   stroke="param(outline) #000"
   stroke-width="param(outline-width) 1"
   width="504.904"
   height="18.023"
   id="rect1" />
<rect
   x="53.554"
   y="464.505"
   fill="param(fill) #FFF"
   stroke="param(outline) #000"
   stroke-width="param(outline-width) 1"
   width="469.233"
   height="18.023"
   id="rect2" />
<path
   id="path2"
   d="m 504.86523,194.18555 -433.111324,0.0605 0.0059,36.04688 18.640625,-0.004 0.0293,198.24805 -18.816407,0.004 0.0039,18.02343 433.111332,-0.0605 -0.002,-18.02344 -17.80078,0.002 -0.0273,-198.24804 17.97265,-0.004 z m -343.11132,35.58789 c 0.0927,-0.004 0.18967,-0.004 0.28906,0 2.36916,0.09 4.73847,0.20017 7.10742,0.29687 2.66705,0.0786 5.33018,0.25318 7.99805,0.30078 1.6835,0.0446 3.36703,0.1 5.05078,0.13477 0.64764,0.006 1.29328,0.0594 1.93945,0.0996 0.0183,-0.006 0.0386,-0.008 0.0586,-0.01 0.0516,-0.004 0.10853,0.005 0.16796,0.0215 0.5479,0.0353 1.09638,0.0562 1.64454,0.0859 0.98838,0.14181 1.97658,0.143 2.9707,0.1211 0.8435,0.0204 1.68109,-0.0273 2.52148,-0.0898 0.96211,-0.0952 1.92483,-0.0952 2.88867,-0.041 0.69212,-0.004 1.38283,-0.0504 2.07422,-0.0781 0.693,-0.0209 1.38347,-0.0833 2.07227,-0.16015 v -0.18164 l 36.04492,-0.004 0.0273,198.24805 -36.04493,0.006 -0.0176,-136.27149 c -1.53112,-0.71361 -3.07289,-1.40725 -4.62891,-2.06445 -0.0614,0.28315 -0.11441,0.5516 -0.15039,0.81836 0.66387,0.15581 1.30485,0.41861 1.79687,0.86133 1.30723,1.17622 1.16108,3.12452 0.28125,4.42187 -0.13881,0.20469 -0.31881,0.36957 -0.51758,0.51758 -0.24897,0.76058 -0.92465,1.06207 -1.54492,0.79102 -0.3789,0.0606 -0.72285,0.12781 -1.04882,0.16015 -0.11162,0.43695 -0.23827,0.86707 -0.56055,1.1543 -0.72341,0.64474 -1.76823,0.79277 -2.65235,1.18945 -0.29103,-0.47671 -0.75749,-0.88324 -0.87304,-1.42968 -0.0745,-0.35265 -0.0756,-0.71401 -0.0508,-1.07618 -0.0575,0.0265 -0.11564,0.0528 -0.17383,0.0762 -0.47589,0.61944 -0.99205,1.14692 -1.50781,1.4121 -0.56658,0.29133 -1.22917,0.27585 -1.88086,0.29688 -0.38803,0.28748 -0.70498,0.52587 -0.78711,0.60156 -0.24512,0.22588 -0.52004,0.46769 -0.61524,0.78711 -0.004,0.0127 -0.005,0.024 -0.004,0.0312 v 0.002 l 0.002,0.002 v 0.002 l 0.002,0.002 0.002,0.002 h 0.002 v 0.002 h 0.002 c 0.0627,0.011 0.31541,-0.18944 0.43555,-0.24414 0.20665,-0.094 0.39415,-0.28825 0.62109,-0.28125 0.62866,0.0185 1.23575,0.23552 1.85352,0.35351 0.76475,0.10325 1.52893,0.20021 2.29297,0.3086 0.66088,0.0938 1.3268,0.1617 1.98047,0.29687 0.91523,0.18927 2.2484,0.50138 2.13867,1.81836 0.51742,-0.0276 1.03516,-0.0486 1.55273,-0.0352 0.47299,0.0123 1.10852,-0.18646 1.40821,0.17968 0.54155,0.66158 0.49866,1.6373 0.74804,2.45508 -1.89359,1.47162 -4.16414,2.21411 -6.33008,3.16406 -0.71341,0.31291 -1.82168,0.75114 -2.50976,1.25977 -0.0678,0.0501 -0.0847,0.14595 -0.12696,0.21875 -0.5269,1.27783 -2.02245,2.05303 -3.10742,2.76172 -3.09896,2.0242 -0.58176,0.28012 -3.66797,2.47656 -0.37747,0.37818 -1.82464,1.39885 -1.61523,2.33985 0.0509,0.22864 0.39945,0.24435 0.59766,0.36914 0.40352,0.25407 0.79432,0.52873 1.20703,0.76757 1.4894,0.86194 2.16831,1.15177 3.72265,1.90235 1.61356,0.85874 2.84545,1.77558 3.27149,3.65039 0.1024,0.4508 0.0429,0.92429 0.084,1.38476 0.0277,0.31068 0.0824,0.61846 0.12305,0.92774 0.34926,2.66237 -2.38018,2.99889 -2.69336,0.33203 -0.0472,-0.4019 -0.11912,-0.80294 -0.14062,-1.20703 -0.0203,-0.38803 0.139,-0.75066 -0.0273,-1.13281 -0.38784,-0.89096 -0.92342,-0.96715 -1.80078,-1.51368 -1.07318,-0.52071 -3.30029,-1.5488 -4.23633,-2.22851 -0.72781,-0.5285 -1.53148,-1.04395 -2.00195,-1.81055 -1.03173,-1.68113 -0.77619,-2.92553 0.2832,-4.38867 0.45082,-0.62263 1.10423,-1.06855 1.65625,-1.60352 2.9862,-2.11872 0.86983,-0.66531 3.73438,-2.52148 0.4418,-0.28628 0.87947,-0.5794 1.3164,-0.87305 0.20221,-0.1359 0.42003,-0.25138 0.59961,-0.41601 0.31515,-0.28891 0.39886,-0.78604 0.71289,-1.06641 0.2456,-0.23565 0.46125,-0.50658 0.73633,-0.70703 0.74537,-0.54316 2.02966,-1.07179 2.81445,-1.41602 0.28517,-0.12508 0.57098,-0.24702 0.85743,-0.36914 -0.20944,0.0141 -0.4193,0.026 -0.62891,0.0371 -0.55112,0.0291 -1.20545,0.33923 -1.72266,0.25782 -0.58713,0.15973 -1.31862,0.3585 -1.32226,0.35546 -0.0272,-0.0208 -0.0555,-0.0421 -0.082,-0.0625 -0.49828,0.1617 -0.7955,0.12806 -0.79297,-0.64648 -1.82505,-1.6026 -0.6975,-1.74747 0.85742,-2.25977 0.0282,-0.009 0.0577,-0.0181 0.0859,-0.0273 -0.0217,-0.0841 -0.0469,-0.16778 -0.0742,-0.24805 0.0106,-0.003 0.0241,-0.006 0.0391,-0.01 -0.28508,-0.0392 -0.47852,-0.0646 -0.51953,-0.0703 -1.64747,-0.39357 -3.64132,-0.47367 -4.57227,-2.29688 -0.62923,-1.2323 0.28706,-2.40176 1.42579,-3.35937 -0.10441,-0.2969 -0.16407,-0.61256 -0.21289,-0.92969 -0.10931,0.11136 -0.23679,0.19813 -0.39063,0.24609 -0.31042,0.0968 -0.62297,0.05 -0.9375,-0.0547 -0.0585,0.16931 -0.12165,0.33724 -0.1875,0.50391 -0.31364,0.79389 -0.38888,1.89578 -1.14648,2.28906 -0.56309,0.2923 -1.21946,0.12541 -1.875,-0.0391 -0.0528,0.14664 -0.1069,0.29181 -0.16211,0.4375 -0.35898,0.94715 -0.60542,1.80573 -1.15039,2.36133 -0.32344,1.35649 -0.972,3.71922 -2.11719,4.23633 -0.73119,0.33016 -1.5919,-0.18745 -2.38867,-0.28125 -0.21883,-0.43163 -0.51839,-0.83162 -0.65821,-1.29492 -0.22718,-0.75275 -0.32275,-1.78784 -0.37109,-2.75196 -0.32883,0.67809 -0.70711,1.33146 -1.16211,1.94531 -0.63386,0.078 -1.27888,0.33478 -1.91016,0.375 -0.16598,0.14869 -0.33039,0.30007 -0.48242,0.45899 -0.1386,-0.14319 -0.29298,-0.2753 -0.44922,-0.40625 -0.0859,0.1317 -0.19192,0.24789 -0.32422,0.33984 -0.30776,0.21391 -0.67954,0.33089 -1.06836,0.375 -0.0461,0.86529 -0.11007,1.73003 -0.16406,2.58985 -0.34792,2.25348 0.19161,3.63952 -3.08594,3.60742 -0.0268,-2.6e-4 -0.0522,-0.004 -0.0762,-0.01 l 0.0176,116.89453 -36.04687,0.006 -0.0273,-198.25 33.86719,-0.004 c 0.30999,-0.28068 0.79269,-0.4805 1.44141,-0.50586 z m 289.10156,0.46484 0.0273,198.24805 -36.04687,0.006 -0.0274,-198.25 z m -72.0918,0.01 0.0274,198.24804 -36.04493,0.006 -0.0273,-198.24804 z m -72.08984,0.0117 0.0254,198.24804 -36.04492,0.004 -0.0273,-198.24805 z m -144.1836,2.24414 v 0.0723 c 0.55837,0.016 1.08027,0.0624 1.45704,0.0762 3.9786,0.21942 7.95671,0.44093 11.9375,0.61719 2.55862,0.0878 5.11782,0.13402 7.67773,0.17188 -0.0152,-0.0206 -0.0268,-0.0444 -0.0352,-0.0723 -0.1045,-0.0228 -0.20997,-0.0454 -0.31445,-0.0684 0.005,-0.0167 0.0107,-0.034 0.0156,-0.0508 -0.36155,-0.0174 -0.72375,-0.0296 -1.08594,-0.0332 -1.68149,-0.0348 -3.36173,-0.0879 -5.04297,-0.13282 -2.6883,-0.0497 -5.37311,-0.22348 -8.06055,-0.30468 -2.1829,-0.0891 -4.36591,-0.18501 -6.54883,-0.27539 z m 36.04688,0.67968 c -0.49991,0.0526 -1.00035,0.0963 -1.50195,0.12305 0.40298,0.0984 0.80411,0.20466 1.21289,0.27344 0.0441,0.007 0.15328,0.0194 0.28906,0.0351 z m -33.65039,2.23633 c 0.38256,0.0719 0.40433,0.0657 0.73242,0.37305 0.23969,-0.0928 0.47716,-0.19293 0.71484,-0.29297 -0.48298,-0.0265 -0.96428,-0.0534 -1.44726,-0.0801 z m -1.66797,0.25781 c -0.0265,0.008 -0.0541,0.0143 -0.0801,0.0215 -0.0256,0.007 -0.0759,0.0531 -0.0859,0.0684 v 0.002 0.002 h 0.002 0.002 l 0.002,-0.002 c 0.0551,-0.0268 0.10833,-0.0585 0.16016,-0.0918 z m 9.07031,0.13672 c 0.81995,0.75482 1.26678,1.84152 1.77149,2.83594 0.40551,0.0163 0.80904,0.0323 1.20703,0.0488 0.64157,-0.0176 1.33172,-0.0282 1.97656,-0.0371 -0.41774,-0.11179 -0.82557,-0.26114 -1.24023,-0.38477 -0.30498,-0.21857 -1.02491,-0.29522 -0.91602,-0.65429 0.16779,-0.55329 0.34161,-0.99503 0.52539,-1.34766 -0.067,-0.10406 -0.11986,-0.208 -0.16016,-0.31055 -1.05445,-0.0473 -2.10999,-0.0978 -3.16406,-0.15039 z m -7.00781,0.004 c -0.0537,0.004 -0.0937,0.027 -0.11328,0.0801 -4e-5,6e-5 -0.001,0.005 -0.002,0.006 v 0.002 l -0.002,0.002 v 0.002 l 0.002,0.002 v 0.002 0.002 l 0.002,0.002 0.002,0.002 h 0.002 l 0.002,0.002 c 0.034,0.0112 0.14398,-0.032 0.19726,-0.0352 0.0327,-0.0117 0.067,-0.025 0.0996,-0.0371 -0.0681,-0.0214 -0.13573,-0.0357 -0.18945,-0.0312 z m 33.25586,1.09375 c -0.0415,0.0111 -0.0692,0.0191 -0.0781,0.0215 -0.71645,0.18993 -1.43702,0.36907 -2.16796,0.49414 0.40184,0.29855 0.78071,0.62996 1.14062,0.99219 0.22116,0.22258 0.42589,0.46057 0.625,0.70117 0.0522,-0.067 0.11987,-0.11267 0.21289,-0.12304 0.0899,-0.01 0.17901,-0.0125 0.26758,-0.01 z m -29.17188,0.54297 c -1.08107,0.0379 -2.06109,0.61367 -3.07031,0.98242 -0.004,9.9e-4 -0.008,0.003 -0.0117,0.004 0.56225,0.002 1.12541,0.0156 1.6875,0.0234 0.16667,0.002 0.33445,0.005 0.50391,0.008 0.73291,-0.16249 1.48123,-0.26065 2.22266,-0.38086 -0.0682,-0.10026 -0.13903,-0.19482 -0.21289,-0.28321 -0.20376,-0.24375 -0.37005,-0.25138 -0.64844,-0.33398 -0.1589,-0.0187 -0.31627,-0.0249 -0.47071,-0.0195 z m -5.75,0.12304 v 0.002 c 0.011,0.0268 0.0976,0.15423 0.14649,0.18554 0.003,0.002 0.007,0.004 0.01,0.006 -0.0461,-0.063 -0.0926,-0.12632 -0.14453,-0.18359 l -0.002,-0.002 -0.002,-0.002 v -0.002 l -0.002,-0.002 -0.002,-0.002 h -0.002 z m -1.12304,0.4004 v 0.91601 c 0.62062,-0.30979 1.21664,-0.34378 2.32812,-0.41406 -0.19176,-0.0617 -0.38265,-0.15582 -0.58203,-0.28711 -0.1245,0.0536 -0.24987,0.10298 -0.38281,0.12305 -0.64191,0.097 -0.96898,0.009 -1.36328,-0.33789 z m 29.68359,0.54492 c -0.0489,0.32898 -0.0553,0.67243 -0.0703,1.01367 0.69849,0.0469 1.39673,0.0941 2.0918,0.17578 0.16708,0.0196 0.44281,-0.0205 0.63085,0.004 -0.4319,-0.36193 -0.91184,-0.66602 -1.48046,-0.8711 -0.38807,-0.11558 -0.7795,-0.22036 -1.17188,-0.32226 z m 2.85156,1.36914 c -0.0537,0.35989 -0.17727,0.69976 -0.33398,1.0293 0.18577,0.0242 0.37081,0.0483 0.55664,0.0723 0.21095,-0.0442 0.44501,-0.0936 0.69336,-0.14453 -0.29215,-0.33605 -0.59087,-0.66195 -0.91602,-0.95703 z m -31.3164,1.21094 c -0.005,8.7e-4 -0.0138,0.004 -0.0195,0.008 -0.15288,0.10631 -0.19613,0.31676 -0.29493,0.47461 -0.28252,0.49042 -0.58244,0.97013 -0.90429,1.43359 v 2.51172 c 0.57365,-0.0776 1.14676,-0.1558 1.72265,-0.21289 -0.42139,-1.39324 -0.3629,-2.86803 0.24805,-4.10547 -0.18287,0.0123 -0.36557,0.0211 -0.54883,0.0137 -0.075,-0.003 -0.14073,-0.13366 -0.20312,-0.12304 z m 5.14453,0.0898 c -0.37901,0.0955 -0.75329,0.20739 -1.12305,0.34375 -0.17275,0.11854 -0.36457,0.21431 -0.51758,0.35742 -0.30462,0.2849 -0.47816,0.64353 -0.55664,1.0293 0.23102,0.0201 0.47854,0.0716 0.68946,0.0527 0.18691,-0.0167 0.43281,-0.0323 0.70507,-0.0508 0.15939,-0.0108 0.32848,-0.022 0.5,-0.0371 0.4149,-0.0365 0.84569,-0.0893 1.20508,-0.17773 0.0226,-0.80572 0.56382,-1.22352 1.2168,-1.46094 -0.69372,-0.0221 -1.39634,-0.041 -2.11914,-0.0566 z m 16.8125,1.63672 c -0.35972,0.009 -0.71844,0.0193 -1.07813,0.0293 -0.5369,0.21885 -0.72368,0.2813 -0.75976,0.27929 h -0.002 -0.002 v -0.002 h -0.002 v -0.002 -0.002 l 0.002,-0.002 v -0.002 l 0.002,-0.002 c 0.0557,-0.0549 0.43384,-0.24277 -0.10937,0.0117 0.0409,0.0404 0.0802,0.0801 0.11523,0.11914 0.76238,0.0368 1.53094,0.0783 2.24805,0.125 -0.0756,-0.13081 -0.16446,-0.26799 -0.27344,-0.41211 -0.0403,-0.0532 -0.0885,-0.0996 -0.14062,-0.14062 z m -10.25586,0.2793 c -0.02,0.0185 -0.0408,0.036 -0.0606,0.0547 0.0394,0.066 0.0696,0.0982 0.0918,0.10156 h 0.002 0.002 0.002 l 0.002,-0.002 h 0.002 0.002 0.002 0.002 v -0.002 h 0.002 c 0.0107,-0.01 0.0215,-0.0331 0.0273,-0.0625 -0.0113,-0.0127 -0.0241,-0.0261 -0.0352,-0.0391 -0.0143,-0.0166 -0.0273,-0.0331 -0.041,-0.0508 z m 0.15625,0.17578 c -0.0492,0.005 -0.0995,0.009 -0.14844,0.0137 0.0314,0.0343 0.0636,0.0693 0.0937,0.10547 0.17547,0.20983 0.28782,0.46655 0.43164,0.69922 0.0817,0.19168 0.13348,0.39764 0.24414,0.57421 0.0323,0.0515 0.10787,0.0549 0.16407,0.0781 0.15714,0.0649 0.31497,0.13265 0.47656,0.18555 0.30219,0.0989 0.60519,0.19828 0.91211,0.28125 -0.0378,-0.32855 -0.0608,-0.66557 -0.0488,-0.9961 -0.79103,-0.14131 -1.56691,-0.37458 -2.125,-0.9414 z m 19.78125,0.45898 c -0.14064,0.0306 -0.2814,0.0625 -0.42188,0.0937 -0.0625,0.0139 -0.12506,0.027 -0.1875,0.041 0.6676,0.82045 1.15375,2.06357 1.50196,3.02343 0.21795,-1.07481 0.38169,-1.89799 0.61523,-2.96289 -0.50273,-0.0665 -1.00512,-0.13091 -1.50781,-0.19531 z m -3.29102,1.38867 c -0.002,6.4e-4 -0.007,0.003 -0.01,0.004 h -0.002 v 0.002 h -0.002 c -0.0549,0.0401 -0.0535,0.21726 -0.12109,0.27539 -0.13191,0.11346 -0.30408,0.17101 -0.45703,0.25391 -0.2301,0.12475 -0.46061,0.24567 -0.69141,0.36914 -0.26691,0.14969 -0.5168,0.26656 -0.75391,0.34961 0.0719,0.26106 0.12596,0.4531 0.1211,0.5039 -0.014,0.14582 -0.29303,0.0165 -0.43946,0.0215 -0.36102,0.0111 -1.39344,0.033 -2.0664,0.0469 -0.0137,0.0338 -0.0273,0.0677 -0.041,0.10157 0.0134,0.12143 0.0216,0.24217 0.0215,0.36523 -3e-5,0.0682 -0.0412,0.1088 -0.10352,0.13281 0.63657,-0.0101 1.27355,-0.0198 1.91016,-0.0293 1.38376,-0.0121 2.76858,-0.0248 4.15234,-0.0391 -0.34047,-0.93849 -0.85342,-2.15107 -1.49023,-2.35546 -0.007,-0.002 -0.0169,-0.002 -0.0234,-0.002 h -0.002 z m 6.48243,7.36328 c -1.45168,0.18921 -2.94543,0.22934 -3.89454,0.27344 -0.82519,0.0383 -1.58461,0.0641 -2.3164,0.082 -0.0334,0.0496 -0.0681,0.10071 -0.10352,0.15235 0.003,0.0138 0.006,0.0273 0.01,0.041 0.003,0.011 0.003,0.02 0.002,0.0274 -2.6e-4,9.7e-4 -0.002,0.005 -0.002,0.006 l -0.002,0.002 v 0.002 0.002 h -0.002 v 0.002 l -0.002,0.002 -0.002,0.002 h -0.002 c -8.1e-4,4.6e-4 -0.005,0.004 -0.006,0.004 -0.0132,0.005 -0.0334,0.005 -0.0566,0 -0.0355,0.0513 -0.072,0.103 -0.10937,0.15625 -0.0796,0.1134 -0.18223,0.19426 -0.30078,0.25391 0.50731,0.10744 1.01149,0.35117 1.49804,0.76757 0.26031,0.22279 0.43579,0.51884 0.59571,0.82813 0.29407,-0.43326 0.59725,-0.8301 0.90234,-1.14063 0.391,-0.39798 0.77372,-0.90574 1.31641,-1.03515 0.65678,-0.15662 1.40254,-0.055 2.00976,0.24023 0.23032,0.11199 0.35329,0.34656 0.46485,0.59375 z m -32.75977,0.51758 c -0.6916,0.0274 -1.38264,0.0558 -2.07422,0.0801 0.0847,0.26035 0.13734,0.54031 0.1875,0.80664 0.88405,-0.006 1.53135,0.30408 2.00977,0.80273 0.0113,-0.0624 0.0246,-0.12346 0.0391,-0.18359 0.069,-0.28633 0.45107,-0.17663 0.82031,-0.082 0.29627,-0.16731 0.6615,-0.14489 1.04297,-0.0742 0.008,-0.21533 0.0364,-0.42634 0.0801,-0.63672 -0.22017,-0.0799 -0.44034,-0.15914 -0.66211,-0.23633 -0.47877,-0.16664 -0.96091,-0.32216 -1.44336,-0.47656 z m 18.37305,0.16211 c -0.3143,0.17565 -0.7072,0.29941 -0.98828,0.49414 -0.23788,0.1648 -0.48911,0.3302 -0.7461,0.5 0.3078,-0.0493 0.61559,-0.0884 0.92578,-0.11914 0.42878,-0.28027 0.84401,-0.58296 1.28321,-0.8457 -0.15837,-0.0105 -0.3161,-0.0208 -0.47461,-0.0293 z m -5.85938,0.12305 c -1.19534,0.15588 -2.38955,0.30793 -3.58594,0.45508 0.12993,0.0842 0.25107,0.17852 0.35743,0.29101 0.0646,0.0684 0.12521,0.13644 0.18164,0.20313 0.20607,0.0388 0.41627,0.0883 0.62304,0.1289 0.62655,0.0154 1.25308,0.0373 1.87891,0.0664 0.19019,-0.3766 0.36023,-0.76447 0.54492,-1.14453 z m -9.91211,0.88086 c -0.11381,0.0371 -0.26945,0.15244 -0.39062,0.22265 0.20709,0.0442 0.41664,0.0945 0.62109,0.13086 0.47003,0.005 0.94001,0.0121 1.41016,0.0176 -0.17218,-0.0704 -0.3447,-0.14016 -0.51758,-0.20898 -0.31763,0.0319 -0.6353,0.0635 -0.95313,0.0937 -0.0534,-0.0862 -0.11092,-0.17188 -0.16992,-0.25586 z m -4.63281,2.08593 c -0.0105,0.20283 -0.0217,0.40481 -0.0332,0.60743 -0.0122,0.41178 -0.026,0.8242 -0.0391,1.23633 0.27857,0.17079 0.53142,0.36831 0.72461,0.6289 0.11648,0.15711 0.16961,0.33938 0.19532,0.5332 -0.0748,-0.85398 -0.16077,-1.73345 -0.51368,-2.50781 -0.0802,-0.17599 -0.18512,-0.3724 -0.33398,-0.49805 z m 5.25,1.02735 c -0.60466,-0.008 -1.32616,0.27223 -1.9043,0.19336 0.16188,0.87814 0.22464,1.76655 0.28907,2.46679 1e-4,0.003 -1.1e-4,0.006 0,0.01 0.0432,0.002 0.0851,0.006 0.125,0.01 0.0613,-0.14276 0.14173,-0.32913 0.25195,-0.58789 0.33264,-0.31106 0.55502,-0.82809 0.99805,-0.9336 0.35267,-0.084 0.65502,-0.11755 0.92187,-0.11133 0.31184,-0.17436 0.62818,-0.31397 0.95313,-0.40234 0.0141,-0.20884 0.0508,-0.41647 0.0996,-0.62305 -0.57804,-0.006 -1.15637,-0.0138 -1.73438,-0.0215 z m 5.40625,0.92969 -0.002,0.002 h -0.002 -0.002 c 0.003,0.005 0.005,0.01 0.008,0.0156 2.3e-4,-0.006 -2.1e-4,-0.012 0,-0.0176 z m -0.60156,0.93945 c 0.34936,0.64883 0.36358,1.43794 0.36328,2.18164 0.29986,0.21757 0.46178,0.26897 1.34961,0.72461 0.22653,-0.0337 0.4652,-0.0213 0.67969,-0.10156 0.46198,-0.17289 0.77068,-0.58598 1.08398,-0.95118 -0.13717,-0.12821 -0.26498,-0.26568 -0.38281,-0.4121 -0.47223,-0.0114 -0.94516,-0.0217 -1.41797,-0.0312 -0.23979,-0.005 -0.48262,0.008 -0.7207,-0.0215 -0.2031,-0.0247 -0.58196,0.0653 -0.59766,-0.13867 -0.0304,-0.39518 0.0108,-0.78738 0.0781,-1.17969 -0.14822,-0.0206 -0.29483,-0.0443 -0.43554,-0.0703 z m -10.15039,0.33008 v 0.002 h 0.002 v -0.002 z m -0.002,0.006 c -0.003,0.003 -0.008,0.007 -0.0117,0.0117 -9e-5,0.006 1.1e-4,0.0117 0,0.0176 0.007,-0.0135 0.01,-0.0233 0.0117,-0.0293 z m 6.33399,1.99414 c -0.10511,0.1175 -0.19992,0.22625 -0.28711,0.32812 -0.0286,0.0776 -0.0634,0.16909 -0.10547,0.28125 0.25379,-0.13618 0.51821,-0.24698 0.79297,-0.32812 -0.0432,-0.0364 -0.0809,-0.0699 -0.11328,-0.0977 -0.0788,-0.0675 -0.18608,-0.12378 -0.28711,-0.18359 z m 25.58789,0.72656 c -0.10275,0.15893 -0.20526,0.31723 -0.3086,0.47461 -0.0339,0.0317 -0.0668,0.0645 -0.0996,0.0977 0.2515,-0.16277 0.49972,-0.32864 0.74609,-0.49805 -0.12712,-0.019 -0.239,-0.0441 -0.33789,-0.0742 z m -10.95313,0.96484 c 0.0378,0.43985 -0.005,0.88661 -0.14062,1.29297 0.19468,0.049 0.38941,0.0973 0.58398,0.14649 0.1273,0.0397 0.25488,0.0754 0.38086,0.10937 0.0182,-0.34252 0.0399,-0.68222 0.0684,-1.02148 -0.13798,-0.15357 -0.2603,-0.32338 -0.36719,-0.50782 -0.18152,-0.008 -0.3564,-0.0137 -0.52539,-0.0195 z m 13.92188,0.89649 c -0.24827,0.43455 -0.50818,0.86652 -0.71289,1.32226 0.23379,0.006 0.4698,0.0104 0.71289,0.0156 z m -27.48047,0.0176 c -8.8e-4,5e-4 -0.002,9.5e-4 -0.004,0.002 0.002,1.3e-4 0.004,-1.3e-4 0.006,0 v -0.002 z m -8.56641,3.32617 v 2.28515 c 0.0688,-0.0916 0.13759,-0.17876 0.20313,-0.26171 0.012,-0.04 0.0245,-0.0794 0.0371,-0.11915 -0.0855,-0.63441 -0.16565,-1.26906 -0.24024,-1.90429 z m 13.13672,0.48047 c 0.0172,0.0347 0.0344,0.0706 0.0508,0.10547 0.0376,-0.0164 0.0756,-0.0326 0.11329,-0.0488 -0.0538,-0.0195 -0.10908,-0.0393 -0.16407,-0.0566 z m 15.15235,0.0508 c -0.018,10e-4 -0.0367,0.003 -0.0547,0.004 -0.0409,0.062 -0.0861,0.13143 -0.13477,0.20704 -0.33367,0.47972 -0.70539,0.93594 -1.00195,1.43945 -0.009,0.0156 -0.0182,0.0312 -0.0273,0.0469 0.82971,0.23897 1.20326,0.36547 1.41211,0.44336 0.15938,-0.1896 0.3331,-0.3593 0.52343,-0.49804 -0.0486,-0.31842 -0.10181,-0.64771 -0.16406,-1.00782 -0.003,-0.017 -0.005,-0.0338 -0.008,-0.0508 -0.0102,-0.004 -0.0213,-0.008 -0.0312,-0.0117 -0.12167,-0.0462 -0.316,-0.27587 -0.51367,-0.57226 z m 3.19922,0.0332 c 0.0101,0.0592 0.0212,0.11911 0.0312,0.17774 0.18669,1.08213 0.26421,1.68248 0.4043,2.69921 0.13616,0.0241 0.28152,0.0505 0.4336,0.0781 0.17087,-0.11648 0.37346,-0.25873 0.58984,-0.41211 -0.23147,-0.40017 -0.42372,-0.83108 -0.66602,-1.22266 -0.0266,-0.43167 -0.0912,-0.86493 -0.13281,-1.29687 -0.2122,-0.008 -0.43273,-0.0154 -0.66015,-0.0234 z m 3.33789,0.11328 c 0.0415,0.2498 0.0979,0.5488 0.1582,0.94922 l 0.004,0.004 c 0.0144,-0.0105 0.0268,-0.0204 0.0391,-0.0293 0.31588,-0.20218 0.65979,-0.4314 1.01953,-0.66406 v -0.23047 c -0.41975,-0.009 -0.82115,-0.018 -1.2207,-0.0293 z m -25.39063,0.3418 c -0.0863,0.10461 -0.1745,0.20311 -0.26562,0.29687 -0.0361,0.0372 -0.0725,0.0741 -0.10938,0.11133 0.0805,0.0659 0.15456,0.13609 0.22266,0.20899 0.044,-0.16277 0.0916,-0.35613 0.14453,-0.58789 0.002,-0.01 0.006,-0.0196 0.008,-0.0293 z m 8.31836,1.02344 c -0.0791,0.0117 -0.15764,0.0238 -0.23633,0.0371 0.004,0.0223 0.008,0.0444 0.0117,0.0664 0.0744,-0.0358 0.14885,-0.07 0.22461,-0.10351 z m -2.89453,0.7832 c -0.33823,0.13121 -0.6742,0.27457 -1.00586,0.42773 0.10654,0.0645 0.20932,0.13878 0.30859,0.22071 0.21641,-0.0901 0.43646,-0.17358 0.65821,-0.25196 0.0183,-0.13289 0.0323,-0.26472 0.0391,-0.39648 z m -7.59961,0.01 c -0.069,0.003 -0.16511,0.0607 -0.20313,0.11328 -0.0819,0.11319 -0.0411,0.27602 -0.0801,0.41015 -0.12443,0.42821 -0.23722,0.42424 -0.60352,0.79492 0.14966,-0.0778 0.29864,-0.16113 0.45117,-0.23046 0.14431,-0.18669 0.32947,-0.34786 0.43164,-0.56055 0.0719,-0.14964 0.14616,-0.34257 0.0742,-0.49219 -0.0128,-0.0266 -0.0389,-0.0365 -0.0703,-0.0351 z m 18.99023,2.0039 c 0.01,0.0776 0.0186,0.15452 0.0254,0.23242 0.1067,-0.0444 0.21143,-0.0839 0.3125,-0.11914 -0.11284,-0.0362 -0.22676,-0.0734 -0.33789,-0.11328 z m -26.25,0.72656 v 0.48243 c 0.48167,7e-4 1.01335,0.18279 1.58985,0.59179 0.2654,0.1883 0.426,0.46963 0.55664,0.77735 0.0227,-0.18246 0.0465,-0.36439 0.0703,-0.54492 -0.48247,-0.19629 -0.8173,-0.60569 -1.06055,-1.09376 -0.48504,0.0453 -0.86586,-0.0209 -1.15625,-0.21289 z m 10.79883,2.625 c -0.047,0.003 -0.0956,0.005 -0.14258,0.008 -0.0436,0.11791 -0.082,0.23818 -0.11328,0.35937 0.14717,-0.0559 0.29608,-0.12182 0.44141,-0.19531 -0.0681,-0.0559 -0.12967,-0.11218 -0.18555,-0.17188 z m 22.87696,0.95118 c -0.0285,0.0175 -0.0561,0.0346 -0.084,0.0527 -0.60722,0.39502 -1.3009,0.80129 -2,1.23633 0.18753,0.26774 0.34269,0.61293 0.46484,1.04101 0.0716,0.25101 0.0933,0.55085 0.0801,0.87696 0.15036,-0.57515 0.32173,-1.14427 0.52149,-1.70508 0.36004,-0.43223 0.54469,-1.20716 1.01562,-1.42383 8.9e-4,-0.0265 0.001,-0.0517 0.002,-0.0781 z m -11.19727,2.45117 c -0.16448,0.13627 -0.3332,0.26699 -0.50391,0.39648 -0.0369,0.0836 -0.0719,0.16379 -0.10351,0.24024 0.10604,0.0804 0.2183,0.17205 0.33789,0.27539 0.0924,-0.31012 0.18123,-0.61385 0.26953,-0.91211 z m -15.2832,0.83203 c 0.005,0.0729 0.0115,0.14605 0.0195,0.21875 0.14519,1.32375 0.46309,3.05036 1.24023,4.20312 0.24691,0.36625 0.68095,0.56243 1.02149,0.84375 0.19646,-0.11396 0.43008,-0.18035 0.58984,-0.34179 0.26381,-0.26659 0.70179,-1.07027 0.99414,-1.64649 -0.3454,-0.42505 -0.42712,-1.16734 0.0332,-2.08007 -0.18847,-0.0702 -0.37441,-0.15071 -0.55664,-0.24024 -0.73497,-0.16481 -2.09375,-0.49526 -3.34179,-0.95703 z m 28.85351,0.24609 c -0.0156,0.1085 -0.0331,0.21443 -0.0488,0.31641 -0.10746,0.69605 -0.28139,1.68918 -0.52148,2.65234 0.31128,0.40004 0.30747,1.06227 -0.082,1.96485 -0.31837,0.73765 -0.85551,1.38157 -1.43555,1.9375 -0.34995,0.33541 -0.75731,0.59979 -1.17187,0.85547 1.09294,0.46594 2.17911,0.94902 3.25976,1.44335 z m -6.94726,1.21875 c -0.0661,0.12462 -0.13248,0.24873 -0.19922,0.37305 0.0157,0.007 0.0311,0.0145 0.0469,0.0215 0.0533,-0.13027 0.10451,-0.26235 0.15235,-0.39453 z m -24.39063,0.36133 c -0.0357,0.0276 -0.0712,0.0535 -0.10742,0.0801 0.082,0.16608 0.1553,0.33797 0.22461,0.51172 -0.0429,-0.19833 -0.0822,-0.39566 -0.11719,-0.5918 z m 14.39258,0.21094 c 0.0402,0.11152 0.0859,0.22346 0.11328,0.33203 0.0564,0.0257 0.11155,0.0525 0.16797,0.0781 0.01,-0.0775 0.0161,-0.1559 0.0176,-0.23438 8.6e-4,-0.0449 -0.002,-0.10175 -0.01,-0.16406 -0.0962,-0.004 -0.19287,-0.007 -0.28906,-0.0117 z m 12.45898,0.53125 c -0.0935,0.27155 -0.18609,0.51306 -0.26757,0.70703 0.0353,0.0648 0.0688,0.13069 0.10156,0.19727 0.0112,-0.06 0.0224,-0.11962 0.0332,-0.17969 0.0434,-0.24132 0.0877,-0.48328 0.13281,-0.72461 z m -29.98632,0.5332 c -0.0657,0.12224 -0.13474,0.24099 -0.20704,0.35547 -0.36222,0.5736 -0.75642,1.23662 -1.36718,1.52148 l 0.002,6.54688 c 0.39923,0.14291 0.83384,0.23884 1.24219,0.36914 0.11094,-0.32505 0.22354,-0.66608 0.38476,-0.95508 -0.002,-0.043 -0.004,-0.0866 -0.006,-0.1289 -0.12063,-0.34043 -0.13004,-0.72886 -0.0488,-1.13477 -6e-5,-0.002 5e-5,-0.004 0,-0.006 -0.0118,-0.40733 -0.0187,-0.81343 -0.0234,-1.2207 -0.0286,-0.0948 -0.0551,-0.19541 -0.0801,-0.30078 -0.0532,-0.22413 -0.0145,-0.56025 0.0664,-0.92383 -9.1e-4,-0.071 -8.6e-4,-0.14191 -0.002,-0.21289 0.0116,-1.35959 0.0145,-2.62745 0.0391,-3.91016 z m 16.81835,1.875 c -0.0601,0.12675 -0.1162,0.25035 -0.16601,0.38086 0.0172,0.0258 0.0346,0.0526 0.0527,0.0801 0.0762,-0.13593 0.15122,-0.27245 0.22461,-0.41016 -0.0374,-0.0169 -0.074,-0.0339 -0.11133,-0.0508 z m -4.56445,0.0293 c 0.005,0.17627 0.0213,0.33593 0.0527,0.46289 v 0.002 0.002 l 0.002,0.002 v 0.002 c 1.5e-4,2.5e-4 0.003,0.005 0.004,0.006 l 0.002,0.002 c 2.2e-4,1.7e-4 0.003,0.003 0.004,0.004 h 0.002 v 0.002 c 4.5e-4,1.3e-4 0.005,-4.6e-4 0.006,0 v 0.002 c 0.0618,0.008 0.20906,-0.11836 0.19336,-0.18946 -7.4e-4,-0.002 -0.003,-0.01 -0.004,-0.0117 -0.058,-0.11448 -0.15681,-0.20205 -0.26172,-0.28515 z m 7.1543,1.10547 c -0.0832,0.15322 -0.16805,0.30448 -0.25586,0.45508 0.45203,-0.0286 0.92637,-0.0188 1.44727,0.0449 l -0.002,-0.002 c -0.39685,-0.1648 -0.79397,-0.33013 -1.18945,-0.49804 z m -5.67774,0.17383 c -0.22726,0.29707 -0.47469,0.55219 -0.74609,0.72461 0.017,0.005 0.0338,0.012 0.0508,0.0176 0.22388,0.0741 0.44205,0.16937 0.6543,0.28321 -0.0181,-0.324 0.0119,-0.66019 0.0371,-0.97461 10e-4,-0.0166 0.002,-0.0339 0.004,-0.0508 z m -3.54101,0.47851 c -0.19671,0.1683 -0.40912,0.32101 -0.63867,0.45117 0.25922,-0.0981 0.51885,-0.19491 0.77148,-0.30468 -0.0466,-0.0457 -0.09,-0.0951 -0.13281,-0.14649 z m -1.50391,0.8086 v 0.002 h 0.002 v -0.002 z m -3.24219,1.14453 c -0.0109,0.0388 -0.0228,0.0783 -0.0332,0.11718 -0.48913,0.74955 -1.21149,2.30628 -2.29883,2.92383 -0.034,1.03264 0.0653,1.41025 -1.07617,1.59961 -0.12537,0.74952 -0.40191,1.46748 -0.54101,2.21485 -0.10581,0.56844 -0.19248,1.09183 -0.26758,1.58789 0.0528,0.50789 0.14279,1.31445 0.24609,2.16211 0.005,-0.54197 -0.20389,-1.19927 0.18164,-1.54883 0.0675,-0.0612 0.1382,-0.11907 0.21094,-0.17383 0.005,-0.0607 0.0102,-0.12548 0.0156,-0.19336 -0.0118,-0.005 -0.0235,-0.009 -0.0352,-0.0137 h -0.002 -0.002 v -0.002 h -0.002 l -0.002,-0.002 v -0.002 h -0.002 v -0.002 l -0.002,-0.002 v -0.002 c -2.5e-4,-0.002 -3.2e-4,-0.008 0,-0.01 0.007,-0.0263 0.0456,-0.0675 0.0566,-0.0957 -0.004,0.0454 -0.006,0.0885 -0.01,0.13086 0.0571,0.0219 0.1147,0.0421 0.17383,0.0606 0.16601,-0.10731 0.34384,-0.20033 0.52735,-0.28125 0.10522,-0.94878 0.24583,-1.89209 0.45117,-2.82227 -0.0472,-0.26098 -0.0638,-0.48786 0.12109,-0.51172 0.0423,-0.17039 0.0857,-0.34047 0.13282,-0.50976 0.86592,0.2249 1.90263,0.11042 2.59765,0.67382 0.35277,0.28594 -0.0351,0.90837 -0.0879,1.35938 -0.0291,0.24904 -0.067,0.54014 -0.11133,0.85547 0.1421,-0.0101 0.28429,-0.0104 0.42774,0.002 0.28603,0.0245 0.16719,0.55519 0.18359,0.8418 8.5e-4,0.0148 9.5e-4,0.0299 0.002,0.0449 0.17075,-0.51114 0.3401,-1.02381 0.51172,-1.5332 0.12393,-0.36783 0.0934,-0.8323 0.3711,-1.10352 0.006,-0.006 0.0131,-0.0115 0.0195,-0.0176 -0.48407,-0.27038 -0.84393,-0.77961 -1.06641,-1.28711 -0.55098,-1.25684 -0.19811,-2.6522 0.54688,-3.77539 -0.29102,-0.25019 -0.59919,-0.46075 -0.9043,-0.58398 -0.11675,-0.0472 -0.22691,-0.0797 -0.33399,-0.10156 z m 14.33204,0.5332 c -0.26029,-0.006 -0.50132,9.4e-4 -0.73047,0.0195 -0.004,0.0263 -0.008,0.0518 -0.0117,0.0781 0.52561,0.15958 1.06238,0.30259 1.50195,0.58398 0.11047,-0.004 0.21972,-0.0119 0.32617,-0.0254 -0.0305,0.091 -0.0543,0.16146 -0.0723,0.21484 0.0466,0.0406 0.0917,0.0833 0.13476,0.12891 0.37397,0.3955 -0.01,1.08698 0,1.63086 0.002,0.10112 0.005,0.22048 0.008,0.35351 0.0669,-0.0403 0.11914,-0.0713 0.15234,-0.0918 0.79398,-0.48919 1.60767,-0.9483 2.41797,-1.41211 -0.66684,-0.79362 -1.62792,-1.27616 -2.88086,-1.41992 -0.30513,-0.035 -0.58542,-0.0541 -0.8457,-0.0606 z m -8.32227,0.0645 c -0.32776,0.006 -0.64939,0.19831 -0.97461,0.27539 -0.0609,0.0349 -0.12138,0.0704 -0.18359,0.10743 0.17257,0.33848 0.3128,0.68612 0.41406,1.03515 0.36347,-0.54374 0.77039,-0.96451 1.21484,-1.32422 -0.10832,-0.0369 -0.21851,-0.0658 -0.33007,-0.084 -0.0471,-0.008 -0.0938,-0.0102 -0.14063,-0.01 z m 2.38477,2.02344 c -0.51392,0.38376 -0.95912,0.83766 -1.28907,1.51367 -0.0409,0.0837 -0.0721,0.16181 -0.0937,0.23438 0.37486,-0.0884 0.75981,-0.12582 1.13086,-0.10938 0.0916,0.004 0.15322,0.0457 0.19727,0.11328 0.0971,0.0159 0.19422,0.0332 0.29101,0.0527 0.0287,-0.0808 0.0522,-0.16295 0.0606,-0.24805 0.0482,-0.48809 -0.0662,-1.03799 -0.29687,-1.55664 z m -5.32422,0.48047 c -0.0107,0.11238 -0.0111,0.23047 0,0.35156 0.0156,0.16959 0.11874,0.35634 0.27148,0.43164 0.0893,0.044 0.23428,-0.0821 0.23828,-0.18164 0.006,-0.16171 -0.14294,-0.28862 -0.21484,-0.43359 -0.0921,-0.0621 -0.19745,-0.11156 -0.29492,-0.16797 z m 1.48047,2.05078 c -0.25065,0.25549 -0.51597,0.50441 -0.73243,0.77734 0.0989,0.23282 0.19535,0.46538 0.28321,0.70118 0.0668,-0.0105 0.13586,-0.0104 0.20703,0.002 0.21086,0.0365 0.11501,0.25626 -0.0352,0.50781 0.0433,0.148 0.0794,0.29751 0.10938,0.44922 0.13581,0.68618 -0.039,1.39817 -0.041,2.09766 -2.6e-4,0.0765 -1e-4,0.16101 0,0.2539 0.14744,-0.9809 0.33302,-2.03913 0.45899,-2.64062 0.0784,-0.3743 0.066,-0.8069 0.12109,-1.20117 -0.1756,-0.29165 -0.2988,-0.61176 -0.37109,-0.94727 z m -4.39258,9.29883 c -0.009,0.0186 -0.0192,0.0363 -0.0293,0.0547 -0.015,0.0274 -0.031,0.0552 -0.0469,0.082 0.007,0.0579 0.0156,0.11595 0.0234,0.17382 4.9e-4,0.004 9.6e-4,0.007 0.002,0.01 v 0.002 0.002 l 0.002,0.002 v 0.004 h 0.002 v 0.002 h 0.002 0.002 0.002 v -0.002 h 0.002 v -0.004 c 0.0314,-0.0344 0.0888,-0.25398 0.0391,-0.32617 z m -5.03906,6.96094 c 0.015,0.0803 0.0299,0.16036 0.0469,0.24023 v 0.002 l 0.002,0.002 v 0.002 l 0.002,0.002 v 0.002 h 0.002 v 0.002 h 0.002 0.002 0.002 0.002 0.002 0.002 v -0.002 c 0.0336,-0.0274 0.0936,-0.1481 0.0723,-0.18946 l -0.002,-0.002 -0.002,-0.002 -0.002,-0.002 -0.002,-0.002 -0.002,-0.002 -0.002,-0.002 h -0.002 c -0.0421,-0.0169 -0.0827,-0.0332 -0.12304,-0.0488 z" />
<polygon
   fill="param(fill) #FFF"
   stroke="param(outline) #000"
   stroke-width="param(outline-width) 1"
   points="196.037,174.702 287.306,144.35 378.835,176.756   440.794,177.038 287.823,112.438 130.548,175.349 "
   id="polygon2" />
<polygon
   fill="param(fill) #FFF"
   stroke="param(outline) #000"
   stroke-width="param(outline-width) 1"
   points="502.566,174.873 502.566,141.908 286.162,53.075   71.974,143.903 71.974,176.867 284.19,90.54 "
   id="polygon3" />
<path
   id="rect3"
   style="fill:#000000;fill-opacity:0"
   d="m 201.87891,231.09961 c 0.42854,0.52171 0.44371,0.93358 0.61132,1.62305 0.29115,2.24363 0.27754,4.51247 0.36524,6.76953 0.0491,1.03939 0.0937,2.07776 0.13281,3.11719 0.0581,0.0367 0.11651,0.0734 0.17578,0.10742 0.0923,0.69617 0.50911,1.42567 0.27539,2.08789 -0.0565,0.16001 -0.18709,0.30708 -0.36328,0.43945 0.002,0.0816 0.004,0.16255 0.006,0.24414 0.012,0.63803 0.0249,1.27612 0.041,1.91406 2.06398,0.25972 2.03166,2.39385 -0.0977,2.66016 -0.0183,0.0765 -0.0367,0.1536 -0.0527,0.23047 -0.30862,0.38097 -0.52587,0.85895 -0.92578,1.14258 -1.65873,1.17641 -5.55615,1.24828 -7.4004,1.33398 -0.82516,0.0383 -1.58463,0.0641 -2.3164,0.082 -0.0335,0.0497 -0.068,0.10061 -0.10352,0.15235 0.003,0.0138 0.006,0.0273 0.01,0.041 0.003,0.011 0.003,0.02 0.002,0.0274 -2.6e-4,9.7e-4 -0.002,0.005 -0.002,0.006 l -0.002,0.002 v 0.002 0.002 h -0.002 v 0.002 l -0.002,0.002 -0.002,0.002 h -0.002 c -8.1e-4,4.6e-4 -0.005,0.004 -0.006,0.004 -0.0132,0.005 -0.0334,0.005 -0.0566,0 -0.0355,0.0513 -0.072,0.103 -0.10937,0.15625 -0.0796,0.11326 -0.18241,0.19428 -0.30078,0.25391 0.5072,0.10747 1.01159,0.35126 1.49804,0.76757 0.26031,0.22279 0.43579,0.51884 0.59571,0.82813 0.29407,-0.43326 0.59725,-0.8301 0.90234,-1.14063 0.391,-0.39798 0.77372,-0.90574 1.31641,-1.03515 0.65678,-0.15662 1.40254,-0.055 2.00976,0.24023 0.38716,0.18825 0.47142,0.72173 0.70703,1.08203 0.0745,0.38442 0.17821,0.76354 0.22461,1.15235 0.16516,1.38513 0.12913,3.18484 -0.0449,4.5664 -0.0328,0.2606 -0.006,0.56184 -0.0254,0.83789 2.43878,0.15551 1.34552,1.26712 0.75,2.03711 -0.15133,0.12394 -0.30413,0.24631 -0.45703,0.36719 -0.0796,0.30082 -0.49628,0.53718 -0.66406,0.83203 -0.25506,0.4482 -0.52523,0.89156 -0.73633,1.36133 1.26521,0.0319 2.61666,0.053 4.59375,0.0664 3.11504,0.0211 6.25261,0.0317 9.34961,-0.35547 2.66444,-0.33311 3.26814,2.26685 0.60937,2.64258 -2.52326,0.35659 -5.08085,0.42875 -7.63086,0.43359 0.0621,0.33384 0.0355,0.71821 -0.0703,1.1543 -0.10153,0.41843 -0.41498,0.7539 -0.62305,1.13086 -0.35629,0.34644 -0.66427,0.74978 -1.06836,1.03906 -0.52214,0.3738 -1.12218,0.66169 -1.75585,0.85156 0.004,0.42068 -0.57482,2.05996 -0.64258,2.26563 -0.49246,1.34183 -1.01152,2.67174 -1.5586,3.99218 -0.14142,0.34135 -0.28061,0.68245 -0.42773,1.01758 -0.0351,0.27422 -0.0723,0.53327 -0.10938,0.77344 -0.10746,0.69605 -0.28139,1.68918 -0.52148,2.65234 0.31128,0.40004 0.30747,1.06227 -0.082,1.96485 -0.31837,0.73765 -0.85551,1.38157 -1.43555,1.9375 -0.3498,0.33526 -0.75554,0.5999 -1.16992,0.85547 2.14958,0.91593 4.27023,1.89694 6.37891,2.90429 2.42291,1.15746 1.25289,3.60493 -1.16993,2.44727 -2.17267,-1.03814 -4.36029,-2.04714 -6.57812,-2.98438 -0.0614,0.28299 -0.11443,0.54979 -0.15039,0.81641 0.66387,0.15581 1.30485,0.41861 1.79687,0.86133 1.30723,1.17622 1.16108,3.12452 0.28125,4.42187 -0.13885,0.20475 -0.31874,0.37149 -0.51758,0.51953 -0.24902,0.76038 -0.92474,1.05998 -1.54492,0.78907 -0.37897,0.0606 -0.7228,0.12781 -1.04882,0.16015 -0.11161,0.43693 -0.23829,0.86708 -0.56055,1.1543 -0.72341,0.64474 -1.76823,0.79277 -2.65235,1.18945 -0.29103,-0.47671 -0.75749,-0.88325 -0.87304,-1.42968 -0.0745,-0.3526 -0.0755,-0.71405 -0.0508,-1.07618 -0.0576,0.0265 -0.1156,0.0528 -0.17383,0.0762 -0.47585,0.61937 -0.9921,1.14694 -1.50781,1.4121 -0.56672,0.2914 -1.23097,0.27583 -1.88282,0.29688 -0.38792,0.28741 -0.70303,0.52589 -0.78515,0.60156 -0.24512,0.22588 -0.52004,0.46769 -0.61524,0.78711 -0.004,0.0127 -0.005,0.024 -0.004,0.0312 v 0.002 l 0.002,0.002 v 0.002 l 0.002,0.002 0.002,0.002 h 0.002 v 0.002 h 0.002 c 0.0627,0.011 0.31541,-0.18944 0.43555,-0.24414 0.20665,-0.094 0.39415,-0.28825 0.62109,-0.28125 0.62866,0.0185 1.23575,0.23552 1.85352,0.35351 0.76475,0.10325 1.52893,0.20021 2.29297,0.3086 0.66088,0.0938 1.3268,0.1617 1.98047,0.29687 0.91523,0.18927 2.2484,0.50138 2.13867,1.81836 0.51742,-0.0276 1.03516,-0.0486 1.55273,-0.0352 0.47299,0.0123 1.10852,-0.18646 1.40821,0.17968 0.54155,0.66158 0.49866,1.6373 0.74804,2.45508 -1.89359,1.47162 -4.16414,2.21411 -6.33008,3.16406 -0.71341,0.31291 -1.82168,0.75114 -2.50976,1.25977 -0.0678,0.0501 -0.0847,0.14595 -0.12696,0.21875 -0.5269,1.27783 -2.02245,2.05303 -3.10742,2.76172 -3.09896,2.0242 -0.58176,0.28012 -3.66797,2.47656 -0.37747,0.37818 -1.82464,1.39885 -1.61523,2.33985 0.0509,0.22864 0.39945,0.24435 0.59766,0.36914 0.40352,0.25407 0.79432,0.52873 1.20703,0.76757 1.4894,0.86194 2.16831,1.15177 3.72265,1.90235 1.61356,0.85874 2.84545,1.77558 3.27149,3.65039 0.1024,0.4508 0.0429,0.92429 0.084,1.38476 0.0277,0.31068 0.0824,0.61846 0.12305,0.92774 0.34926,2.66237 -2.38018,2.99889 -2.69336,0.33203 -0.0472,-0.4019 -0.11912,-0.80294 -0.14062,-1.20703 -0.0203,-0.38803 0.139,-0.75066 -0.0273,-1.13281 -0.38784,-0.89096 -0.92342,-0.96715 -1.80078,-1.51368 -1.07318,-0.52071 -3.30029,-1.5488 -4.23633,-2.22851 -0.72781,-0.5285 -1.53148,-1.04395 -2.00195,-1.81055 -1.03173,-1.68113 -0.77619,-2.92553 0.2832,-4.38867 0.45082,-0.62263 1.10423,-1.06855 1.65625,-1.60352 2.9862,-2.11872 0.86983,-0.66531 3.73438,-2.52148 0.4418,-0.28628 0.87947,-0.5794 1.3164,-0.87305 0.20221,-0.1359 0.42003,-0.25138 0.59961,-0.41601 0.31515,-0.28891 0.39886,-0.78604 0.71289,-1.06641 0.2456,-0.23565 0.46125,-0.50658 0.73633,-0.70703 0.74537,-0.54316 2.02966,-1.07179 2.81445,-1.41602 0.28517,-0.12508 0.57098,-0.24702 0.85743,-0.36914 -0.20944,0.0141 -0.4193,0.026 -0.62891,0.0371 -0.55112,0.0291 -1.20545,0.33923 -1.72266,0.25782 -0.58713,0.15973 -1.31862,0.3585 -1.32226,0.35546 -0.0272,-0.0208 -0.0555,-0.0421 -0.082,-0.0625 -0.49828,0.1617 -0.7955,0.12806 -0.79297,-0.64648 -1.82505,-1.6026 -0.6975,-1.74747 0.85742,-2.25977 0.0282,-0.009 0.0577,-0.0181 0.0859,-0.0273 -0.0217,-0.0841 -0.0469,-0.16778 -0.0742,-0.24805 0.0106,-0.003 0.0241,-0.006 0.0391,-0.01 -0.28508,-0.0392 -0.47852,-0.0646 -0.51953,-0.0703 -1.64747,-0.39357 -3.64132,-0.47367 -4.57227,-2.29688 -0.62925,-1.23235 0.28699,-2.40173 1.42579,-3.35937 -0.10435,-0.29682 -0.16409,-0.61266 -0.21289,-0.92969 -0.10931,0.11136 -0.23679,0.19813 -0.39063,0.24609 -0.31042,0.0968 -0.62297,0.05 -0.9375,-0.0547 -0.0585,0.16931 -0.12165,0.33724 -0.1875,0.50391 -0.31364,0.79389 -0.38888,1.89578 -1.14648,2.28906 -0.56309,0.2923 -1.21946,0.12541 -1.875,-0.0391 -0.0528,0.14664 -0.1069,0.29181 -0.16211,0.4375 -0.35898,0.94715 -0.60542,1.80573 -1.15039,2.36133 -0.32344,1.35649 -0.972,3.71922 -2.11719,4.23633 -0.73119,0.33016 -1.5919,-0.18745 -2.38867,-0.28125 -0.21883,-0.43163 -0.51839,-0.83163 -0.65821,-1.29492 -0.22718,-0.75275 -0.32275,-1.78784 -0.37109,-2.75196 -0.32883,0.67809 -0.70711,1.33146 -1.16211,1.94531 -0.63386,0.078 -1.27888,0.33478 -1.91016,0.375 -0.16598,0.14869 -0.33039,0.30007 -0.48242,0.45899 -0.1386,-0.14319 -0.29298,-0.2753 -0.44922,-0.40625 -0.0859,0.1317 -0.19192,0.24789 -0.32422,0.33984 -0.30776,0.21391 -0.67954,0.33089 -1.06836,0.375 -0.0461,0.86529 -0.11007,1.73003 -0.16406,2.58985 -0.34792,2.25348 0.19162,3.63952 -3.08594,3.60742 -0.41191,-0.004 -0.47735,-0.69105 -0.58789,-1.08789 -0.27822,-0.9989 -0.24702,-3.26826 -0.21679,-4.32422 -0.11703,0.004 -0.23025,-0.0228 -0.33789,-0.0899 -0.81831,-0.5086 -1.09022,-2.05302 -1.19922,-3.4082 -0.0129,0.0155 -0.0263,0.0313 -0.0391,0.0469 -0.23035,-0.019 -0.46734,-0.0137 -0.70508,-0.006 v 124.55664 c 0,0.68548 0.76466,1.23633 1.71484,1.23633 h 255.33789 c 0.95018,0 1.71485,-0.55085 1.71485,-1.23633 V 232.33789 c 0,-0.68548 -0.76467,-1.23828 -1.71485,-1.23828 z m -41.91407,0.38477 c -0.2928,0.22173 -0.47265,0.52165 -0.47265,0.85351 v 1.14453 c 0.0283,-0.046 0.0588,-0.09 0.0918,-0.13281 0.41407,-0.53749 1.22344,-0.72266 2.07032,-0.76758 0.84688,-0.0449 1.73122,0.0498 2.29297,0.0703 3.9786,0.21942 7.95671,0.44093 11.9375,0.61719 2.55856,0.0878 5.1179,0.13403 7.67773,0.17188 -0.0151,-0.0205 -0.0268,-0.0445 -0.0352,-0.0723 -0.1045,-0.0228 -0.20997,-0.0454 -0.31445,-0.0684 0.005,-0.0168 0.0106,-0.0339 0.0156,-0.0508 -0.36157,-0.0174 -0.72373,-0.0296 -1.08594,-0.0332 -1.68149,-0.0348 -3.36173,-0.0879 -5.04297,-0.13282 -2.6883,-0.0497 -5.37311,-0.22348 -8.06055,-0.30468 -2.41396,-0.0986 -4.82834,-0.20639 -7.24218,-0.30469 -1.04835,-0.0427 -1.6487,-0.47932 -1.83204,-0.99023 z m 40.16993,1.50976 c -0.015,-9e-5 -0.0302,7e-4 -0.0449,0.002 -0.0277,0.002 -0.0564,0.005 -0.084,0.008 0.0902,0.0225 0.23416,0.0446 0.26758,0.0371 h 0.002 l 0.002,-0.002 h 0.002 l 0.002,-0.002 v -0.002 -0.002 h -0.002 v -0.002 h -0.002 c -0.003,-0.002 -0.009,-0.007 -0.0137,-0.01 -0.0393,-0.0206 -0.084,-0.0271 -0.1289,-0.0273 z m -0.35157,0.0391 c -0.0612,0.01 -0.12224,0.019 -0.18359,0.0274 -0.85221,0.10409 -1.7086,0.20001 -2.56641,0.24609 0.40324,0.0985 0.80581,0.20462 1.21485,0.27344 0.15502,0.0261 1.11501,0.11666 1.20507,0.18164 h 0.002 l 0.002,0.002 c 0.18716,0.1936 0.34059,0.41375 0.48047,0.64453 -0.0287,-0.3812 -0.0631,-0.76231 -0.10547,-1.14258 -0.007,-0.0755 -0.0405,-0.15677 -0.0488,-0.23242 z m -39.24804,0.4043 c -0.063,0.0214 -0.13617,0.0577 -0.15625,0.0703 0.009,-0.002 0.0519,-0.0179 0.15625,-0.0703 z m 0.48828,1.6875 -0.002,0.002 h -0.002 l -0.002,0.002 h -0.002 l -0.002,0.002 -0.002,0.002 -0.002,0.002 -0.002,0.002 -0.002,0.002 c -8.7e-4,0.001 -0.001,0.003 -0.002,0.004 v 0.002 c -0.0117,0.0479 0.0713,0.15785 0.125,0.19141 0.005,0.003 0.0103,0.007 0.0156,0.01 -0.0513,-0.11947 -0.0907,-0.2002 -0.10937,-0.21679 l -0.002,-0.002 h -0.002 v -0.002 h -0.002 -0.002 -0.002 z m -1.53125,0.28516 v 7.0664 c 0.58743,-0.69406 1.0986,-1.44466 1.54883,-2.23828 0.11627,-0.18712 0.18316,-0.41625 0.3496,-0.56055 1.23178,-1.06782 1.7233,-1.08938 3.42969,-1.19726 -0.19158,-0.0617 -0.38285,-0.15595 -0.58203,-0.28711 -0.1245,0.0536 -0.24987,0.10298 -0.38281,0.12305 -0.87248,0.13181 -1.16376,-0.0787 -1.83203,-0.81446 -0.17048,-0.18769 -0.20553,-0.46364 -0.3086,-0.69531 -0.0285,-0.0631 -0.15874,-0.41436 -0.29882,-0.7793 -0.24445,0.0747 -0.49804,0.11577 -0.5879,0.0996 -0.38355,-0.0688 -0.78095,-0.17968 -1.09374,-0.41211 -0.10555,-0.0784 -0.17916,-0.18693 -0.24219,-0.30468 z m 5.39453,0.01 c 0.38256,0.0719 0.40433,0.0657 0.73242,0.37305 0.23969,-0.0928 0.47716,-0.19293 0.71484,-0.29297 -0.48298,-0.0265 -0.96428,-0.0534 -1.44726,-0.0801 z m -1.66797,0.25781 c -0.0265,0.008 -0.0541,0.0143 -0.0801,0.0215 -0.0256,0.007 -0.0759,0.0531 -0.0859,0.0684 v 0.002 0.002 h 0.002 0.002 l 0.002,-0.002 c 0.0551,-0.0268 0.10833,-0.0585 0.16016,-0.0918 z m 9.07031,0.13672 c 0.81989,0.75476 1.26682,1.84158 1.77149,2.83594 0.40537,0.0163 0.80724,0.0323 1.20507,0.0488 0.6417,-0.0176 1.33354,-0.0282 1.97852,-0.0371 -0.41774,-0.11179 -0.82557,-0.26114 -1.24023,-0.38477 -0.30498,-0.21857 -1.02491,-0.29522 -0.91602,-0.65429 0.16779,-0.55329 0.34161,-0.99503 0.52539,-1.34766 -0.067,-0.10405 -0.11986,-0.20801 -0.16016,-0.31055 -1.05445,-0.0473 -2.10999,-0.0978 -3.16406,-0.15039 z m -7.00781,0.004 c -0.0537,0.004 -0.0937,0.027 -0.11328,0.0801 -4e-5,6e-5 -0.001,0.005 -0.002,0.006 v 0.002 l -0.002,0.002 v 0.002 l 0.002,0.002 v 0.002 0.002 l 0.002,0.002 0.002,0.002 h 0.002 l 0.002,0.002 c 0.034,0.0112 0.14398,-0.032 0.19726,-0.0352 0.0327,-0.0117 0.067,-0.025 0.0996,-0.0371 -0.0681,-0.0214 -0.13573,-0.0357 -0.18945,-0.0312 z m 34.75391,0.36719 c -0.10261,0.12493 -0.21031,0.24499 -0.33204,0.35156 -0.11455,0.10031 -1.17874,0.37918 -1.24414,0.39648 -0.71641,0.18992 -1.43707,0.36907 -2.16796,0.49414 0.40179,0.29852 0.78075,0.63 1.14062,0.99219 0.22116,0.22258 0.42589,0.46057 0.625,0.70117 0.0522,-0.067 0.11987,-0.11267 0.21289,-0.12304 0.64722,-0.0721 1.25732,0.24159 1.87109,0.51953 -0.0418,-1.10957 -0.0618,-2.22196 -0.10546,-3.33203 z m -30.66993,1.26953 c -1.08107,0.0379 -2.06109,0.61367 -3.07031,0.98242 h -0.002 l -0.002,0.002 c 0.56001,0.002 1.11983,0.0176 1.67968,0.0254 0.16666,0.002 0.33446,0.005 0.50391,0.008 0.73291,-0.1625 1.48124,-0.26065 2.22266,-0.38086 -0.0682,-0.10026 -0.13906,-0.19485 -0.21289,-0.28321 -0.20376,-0.24375 -0.37005,-0.25138 -0.64844,-0.33398 -0.1589,-0.0187 -0.31627,-0.0249 -0.47071,-0.0195 z m -5.75,0.12304 v 0.002 c 0.011,0.0268 0.0976,0.15425 0.14649,0.18554 0.003,0.002 0.007,0.004 0.01,0.006 -0.0461,-0.063 -0.0926,-0.12632 -0.14453,-0.18359 l -0.002,-0.002 -0.002,-0.002 v -0.002 l -0.002,-0.002 -0.002,-0.002 h -0.002 z m 28.56055,0.94532 c -0.0489,0.32898 -0.0553,0.67243 -0.0703,1.01367 0.69849,0.0469 1.39673,0.0941 2.0918,0.17578 0.16701,0.0196 0.44283,-0.0204 0.63085,0.004 -0.43186,-0.36182 -0.91197,-0.66606 -1.48046,-0.8711 -0.38807,-0.11558 -0.7795,-0.22036 -1.17188,-0.32226 z m 2.85156,1.36914 c -0.0537,0.35981 -0.17729,0.69977 -0.33398,1.0293 0.18578,0.0242 0.3708,0.0483 0.55664,0.0723 0.21093,-0.0442 0.44504,-0.0936 0.69336,-0.14453 -0.29212,-0.33601 -0.59088,-0.66197 -0.91602,-0.95703 z m -31.3164,1.21094 c -0.005,8.7e-4 -0.0138,0.004 -0.0195,0.008 -0.15288,0.10631 -0.19613,0.31676 -0.29493,0.47461 -0.66322,1.15127 -1.41889,2.24349 -2.34179,3.20508 -0.55107,0.67414 -1.12306,1.32897 -1.5625,2.08007 v 1.26953 c 0.40511,0.0178 0.80982,0.0355 1.21484,0.0547 0.0428,-0.14731 0.0954,-0.29118 0.16211,-0.42969 0.11893,-0.24697 0.27493,-0.47205 0.44336,-0.68945 0.13708,-0.4811 0.32999,-0.9655 0.41211,-1.44336 0.83031,-0.10395 1.65757,-0.23183 2.49023,-0.31445 -0.4214,-1.39324 -0.36288,-2.86803 0.24805,-4.10547 -0.18286,0.0123 -0.36558,0.0211 -0.54883,0.0137 -0.075,-0.003 -0.14073,-0.13366 -0.20312,-0.12304 z m 5.14453,0.0898 c -0.37893,0.0955 -0.75338,0.20742 -1.12305,0.34375 -0.17275,0.11854 -0.36457,0.21431 -0.51758,0.35742 -0.30464,0.28492 -0.47817,0.6435 -0.55664,1.0293 0.23103,0.0201 0.47853,0.0716 0.68946,0.0527 0.18691,-0.0167 0.43281,-0.0323 0.70507,-0.0508 0.15939,-0.0108 0.32848,-0.022 0.5,-0.0371 0.41488,-0.0365 0.8457,-0.0893 1.20508,-0.17773 0.0225,-0.80587 0.56376,-1.2235 1.2168,-1.46094 -0.6938,-0.0221 -1.39625,-0.041 -2.11914,-0.0566 z m 16.8125,1.63672 c -0.35944,0.009 -0.71872,0.0193 -1.07813,0.0293 -0.53732,0.21903 -0.72367,0.2813 -0.75976,0.27929 h -0.002 -0.002 v -0.002 h -0.002 v -0.002 -0.002 l 0.002,-0.002 v -0.002 l 0.002,-0.002 c 0.0557,-0.0549 0.43562,-0.24269 -0.10742,0.0117 0.0408,0.0403 0.0783,0.0801 0.11328,0.11914 0.76235,0.0368 1.53097,0.0764 2.24805,0.12305 -0.0756,-0.13075 -0.16452,-0.26612 -0.27344,-0.41016 -0.0403,-0.0533 -0.0884,-0.0996 -0.14062,-0.14062 z m -10.25586,0.2793 c -0.02,0.0185 -0.0408,0.036 -0.0606,0.0547 0.0394,0.0659 0.0696,0.0982 0.0918,0.10156 h 0.002 0.002 0.002 l 0.002,-0.002 h 0.002 0.002 0.002 0.002 v -0.002 h 0.002 c 0.0107,-0.01 0.0215,-0.0331 0.0273,-0.0625 -0.0113,-0.0127 -0.0241,-0.0261 -0.0352,-0.0391 -0.0142,-0.0166 -0.0273,-0.0331 -0.041,-0.0508 z m 0.15625,0.17578 c -0.0492,0.005 -0.0995,0.009 -0.14844,0.0137 0.0314,0.0343 0.0636,0.0693 0.0937,0.10547 0.17547,0.20983 0.28782,0.46655 0.43164,0.69922 0.0817,0.19168 0.13348,0.39764 0.24414,0.57421 0.0323,0.0515 0.10787,0.0549 0.16407,0.0781 0.15714,0.0649 0.31497,0.13265 0.47656,0.18555 0.30219,0.0989 0.60519,0.19828 0.91211,0.28125 -0.0378,-0.32855 -0.0608,-0.66557 -0.0488,-0.9961 -0.79103,-0.14131 -1.56691,-0.37458 -2.125,-0.9414 z m 19.78125,0.45898 c -0.14064,0.0306 -0.2814,0.0625 -0.42188,0.0937 -0.0625,0.014 -0.12504,0.0289 -0.1875,0.043 0.66764,0.82046 1.15373,2.06158 1.50196,3.02148 0.21796,-1.07485 0.38168,-1.89793 0.61523,-2.96289 -0.50274,-0.0665 -1.00512,-0.13091 -1.50781,-0.19531 z m 5.00391,1.19531 c -0.15718,0.35586 -0.21681,0.62952 0.0176,0.63867 -9e-5,-0.005 1e-4,-0.0104 0,-0.0156 -0.006,-0.20753 -0.0114,-0.41562 -0.0176,-0.62305 z m -8.29493,0.19336 c -0.002,6.4e-4 -0.007,0.003 -0.01,0.004 h -0.002 v 0.002 h -0.002 c -0.0549,0.0401 -0.0535,0.21726 -0.12109,0.27539 -0.13191,0.11346 -0.30408,0.17101 -0.45703,0.25391 -0.2301,0.12475 -0.46061,0.24567 -0.69141,0.36914 -0.2669,0.14968 -0.5168,0.26656 -0.75391,0.34961 0.0719,0.26096 0.12596,0.45314 0.1211,0.5039 -0.014,0.14582 -0.293,0.0165 -0.43946,0.0215 -0.36102,0.0111 -1.39344,0.033 -2.0664,0.0469 -0.0137,0.0338 -0.0273,0.0677 -0.041,0.10157 0.0134,0.12143 0.0216,0.24216 0.0215,0.36523 -3e-5,0.0684 -0.0409,0.10883 -0.10352,0.13281 0.63678,-0.0101 1.27334,-0.0198 1.91016,-0.0293 1.38376,-0.0121 2.76858,-0.0248 4.15234,-0.0391 -0.34047,-0.93849 -0.85342,-2.15107 -1.49023,-2.35546 -0.007,-0.002 -0.0169,-0.002 -0.0234,-0.002 h -0.002 z m 8.32422,1.06836 c -0.42138,0.0773 -0.92594,0.13952 -1.24219,0.0762 -0.0792,0.3832 -0.15819,0.76688 -0.23632,1.15039 0.50132,-0.007 1.00266,-0.0126 1.5039,-0.0195 -0.01,-0.40209 -0.0179,-0.80456 -0.0254,-1.20703 z m -34.59765,6.81445 c -0.69282,0.0277 -1.38533,0.0558 -2.07813,0.0801 0.0846,0.26024 0.13732,0.53886 0.1875,0.80469 0.88407,-0.006 1.53134,0.30406 2.00977,0.80273 0.0113,-0.0624 0.0246,-0.12346 0.0391,-0.18359 0.069,-0.28633 0.45107,-0.17663 0.82031,-0.082 0.29627,-0.16731 0.6615,-0.14489 1.04297,-0.0742 0.008,-0.21543 0.0363,-0.42624 0.0801,-0.63672 -0.2202,-0.0798 -0.44034,-0.15914 -0.66211,-0.23633 -0.47757,-0.16622 -0.95821,-0.32056 -1.43945,-0.47461 z m 18.36914,0.16016 c -0.3143,0.17565 -0.7072,0.29941 -0.98828,0.49414 -0.23775,0.16471 -0.48925,0.3303 -0.7461,0.5 0.30778,-0.0493 0.61756,-0.0884 0.92774,-0.11914 0.42864,-0.2802 0.84218,-0.58304 1.28125,-0.8457 -0.15837,-0.0105 -0.3161,-0.0208 -0.47461,-0.0293 z m -5.85938,0.12305 c -1.19532,0.15588 -2.38957,0.30793 -3.58594,0.45508 0.12996,0.0842 0.25104,0.1785 0.35743,0.29101 0.0646,0.0683 0.12525,0.13649 0.18164,0.20313 0.20611,0.0388 0.41623,0.0883 0.62304,0.1289 0.62661,0.0154 1.25302,0.0353 1.87891,0.0645 0.19014,-0.37654 0.36028,-0.76318 0.54492,-1.14258 z m -9.91211,0.88086 c -0.11384,0.0371 -0.26944,0.15245 -0.39062,0.22265 0.20712,0.0442 0.41661,0.0945 0.62109,0.13086 0.46992,0.005 0.94012,0.0101 1.41016,0.0156 -0.171,-0.0699 -0.34196,-0.13877 -0.51367,-0.20703 -0.3188,0.0321 -0.63804,0.0634 -0.95704,0.0937 -0.0534,-0.0862 -0.11092,-0.17188 -0.16992,-0.25586 z m -4.63281,2.08593 c -0.0105,0.20284 -0.0217,0.4048 -0.0332,0.60743 -0.0122,0.41177 -0.026,0.82422 -0.0391,1.23633 0.27857,0.17079 0.53142,0.36831 0.72461,0.6289 0.11648,0.15711 0.16961,0.33938 0.19532,0.5332 -0.0748,-0.85398 -0.16077,-1.73345 -0.51368,-2.50781 -0.0802,-0.17599 -0.18513,-0.3724 -0.33398,-0.49805 z m 5.25,1.02735 c -0.60465,-0.008 -1.32616,0.27223 -1.9043,0.19336 0.16187,0.87813 0.22464,1.76656 0.28907,2.46679 1e-4,0.003 -1.1e-4,0.006 0,0.01 0.0432,0.002 0.0851,0.006 0.125,0.01 0.0613,-0.14276 0.14173,-0.32913 0.25195,-0.58789 0.33264,-0.31106 0.55502,-0.82809 0.99805,-0.9336 0.35264,-0.084 0.65503,-0.11755 0.92187,-0.11133 0.31186,-0.17438 0.62816,-0.31396 0.95313,-0.40234 0.0141,-0.20883 0.0508,-0.41648 0.0996,-0.62305 -0.57804,-0.006 -1.15637,-0.0138 -1.73438,-0.0215 z m 5.40039,0.92969 c 0.003,0.005 0.005,0.0118 0.008,0.0176 2.3e-4,-0.006 -2.1e-4,-0.012 0,-0.0176 -0.003,5e-5 -0.005,-6e-5 -0.008,0 z m -13.70312,0.71093 c -0.0168,0.001 -0.0319,0.003 -0.0488,0.004 0.003,0.0151 0.005,0.0312 0.008,0.0469 0.0136,-0.0166 0.0271,-0.0344 0.041,-0.0508 z m 13.10742,0.22852 c 0.34935,0.64884 0.36358,1.43794 0.36328,2.18164 0.29986,0.21757 0.46178,0.26897 1.34961,0.72461 0.22653,-0.0337 0.4652,-0.0213 0.67969,-0.10156 0.46194,-0.17288 0.7707,-0.58598 1.08398,-0.95118 -0.13719,-0.12821 -0.26692,-0.26565 -0.38477,-0.4121 -0.47219,-0.0114 -0.94324,-0.0217 -1.41601,-0.0312 -0.23979,-0.005 -0.48262,0.008 -0.7207,-0.0215 -0.2031,-0.0247 -0.58196,0.0653 -0.59766,-0.13867 -0.0303,-0.39513 0.0108,-0.78742 0.0781,-1.17969 -0.14821,-0.0206 -0.29483,-0.0443 -0.43554,-0.0703 z m -10.15039,0.33008 v 0.002 h 0.002 v -0.002 z m -0.002,0.006 c -0.003,0.003 -0.008,0.007 -0.0117,0.0117 -9e-5,0.006 1.1e-4,0.0117 0,0.0176 0.007,-0.0135 0.01,-0.0233 0.0117,-0.0293 z m -2.80859,0.33984 c 0.0125,0.0578 0.0254,0.11942 0.0391,0.18359 0.011,0.006 0.0245,0.0126 0.0391,0.0215 2.2e-4,-0.0435 -3.7e-4,-0.0854 0,-0.12891 -0.0257,-0.0247 -0.0515,-0.0507 -0.0781,-0.0762 z m 9.14258,1.6543 c -0.10509,0.11748 -0.19993,0.22627 -0.28711,0.32812 -0.0286,0.0777 -0.0634,0.16908 -0.10547,0.28125 0.25377,-0.13617 0.51823,-0.24698 0.79297,-0.32812 -0.0432,-0.0363 -0.0809,-0.0699 -0.11328,-0.0977 -0.0788,-0.0675 -0.18608,-0.12378 -0.28711,-0.18359 z m -10.49414,0.68359 v 1.34375 c 0.54143,0.0207 1.08358,0.0411 1.625,0.0625 -0.09,-0.57953 -0.13249,-1.2174 -0.13477,-1.25 -0.002,-0.0323 -0.004,-0.0634 -0.006,-0.0957 -0.0508,0.0129 -0.10249,0.0222 -0.15429,0.0293 -0.606,0.0836 -1.02033,0.044 -1.33008,-0.0898 z m 36.08203,0.043 c -0.10275,0.15893 -0.20527,0.31723 -0.3086,0.47461 -0.0341,0.0319 -0.0666,0.0643 -0.0996,0.0977 0.25177,-0.16294 0.49947,-0.32846 0.74609,-0.49805 -0.12722,-0.019 -0.23893,-0.044 -0.33789,-0.0742 z m -10.95313,0.96484 c 0.0378,0.43986 -0.005,0.8866 -0.14062,1.29297 0.19468,0.049 0.38941,0.0973 0.58398,0.14649 0.1273,0.0397 0.25488,0.0754 0.38086,0.10937 0.0182,-0.34253 0.0399,-0.68221 0.0684,-1.02148 -0.13798,-0.15357 -0.2603,-0.32336 -0.36719,-0.50782 -0.18152,-0.008 -0.3564,-0.0137 -0.52539,-0.0195 z m -13.55859,0.91407 c -8.8e-4,5e-4 -0.002,9.5e-4 -0.004,0.002 0.002,1.3e-4 0.004,-1.3e-4 0.006,0 v -0.002 z m -11.57031,2.13476 v 16.70117 c 0.0937,-0.41044 0.15461,-0.83395 0.35351,-1.20117 0.26003,-0.48005 0.62852,-0.93762 1.06641,-1.31445 -0.56514,-0.78593 -0.88312,-1.39832 -0.97852,-2.82813 -0.0498,-0.74636 -0.0559,-1.55313 0.26563,-2.22851 0.80843,-1.69807 2.13766,-2.53776 3.88672,-1.29688 0.2654,0.1883 0.426,0.46962 0.55664,0.77735 0.0227,-0.18243 0.0465,-0.36441 0.0703,-0.54492 -0.4825,-0.19631 -0.8173,-0.60566 -1.06055,-1.09376 -1.19364,0.11152 -1.75696,-0.4565 -1.88867,-1.89453 -0.0508,-0.55508 0.50589,-1.31748 0.93555,-1.86132 0.012,-0.04 0.0245,-0.0794 0.0371,-0.11915 -0.0869,-0.64467 -0.16852,-1.29002 -0.24414,-1.93554 -0.0509,-0.12974 -0.10021,-0.25994 -0.14844,-0.39063 -0.0871,-0.23603 -0.14376,-0.4568 -0.17383,-0.66211 -0.89253,-0.0383 -1.78508,-0.073 -2.67773,-0.10742 z m 16.14062,1.67188 c 0.0172,0.0347 0.0344,0.0706 0.0508,0.10547 0.0376,-0.0165 0.0756,-0.0326 0.11329,-0.0488 -0.0538,-0.0196 -0.10903,-0.0393 -0.16407,-0.0566 z m 15.15235,0.0508 c -0.018,10e-4 -0.0367,0.003 -0.0547,0.004 -0.0409,0.062 -0.0861,0.13143 -0.13477,0.20704 -0.33367,0.47972 -0.70539,0.93594 -1.00195,1.43945 -0.009,0.0155 -0.0182,0.0312 -0.0273,0.0469 0.82977,0.23899 1.20328,0.36548 1.41211,0.44336 0.15936,-0.18956 0.33313,-0.35932 0.52343,-0.49804 -0.0485,-0.3184 -0.10181,-0.64773 -0.16406,-1.00782 -0.003,-0.017 -0.005,-0.0338 -0.008,-0.0508 -0.0102,-0.004 -0.0213,-0.008 -0.0312,-0.0117 -0.12166,-0.0462 -0.31601,-0.2759 -0.51367,-0.57226 z m 3.19922,0.0332 c 0.0101,0.0592 0.0212,0.11912 0.0312,0.17774 0.18668,1.08209 0.26422,1.68255 0.4043,2.69921 0.1362,0.0242 0.28147,0.0505 0.4336,0.0781 0.17084,-0.11646 0.37352,-0.25877 0.58984,-0.41211 -0.23147,-0.40017 -0.42372,-0.83108 -0.66602,-1.22266 -0.0266,-0.43168 -0.0912,-0.86492 -0.13281,-1.29687 -0.21219,-0.007 -0.43273,-0.0154 -0.66015,-0.0234 z m 3.33789,0.11133 c 0.0415,0.24994 0.0978,0.55038 0.1582,0.95117 l 0.004,0.004 c 0.0144,-0.0105 0.0268,-0.0204 0.0391,-0.0293 0.41699,-0.26689 0.88254,-0.58204 1.36914,-0.88867 -0.54935,-0.0107 -1.06117,-0.0228 -1.57031,-0.0371 z m 4.81445,0.0781 c -0.0608,0.0757 -0.11858,0.21152 -0.11328,0.28711 0.004,0.0599 0.0198,0.11679 0.043,0.17383 0.01,-0.0126 0.0192,-0.0247 0.0293,-0.0371 0.0469,-0.14006 0.2019,-0.2888 0.16407,-0.42187 -0.0415,-2.9e-4 -0.0821,-0.002 -0.12305,-0.002 z m -30.20508,0.26563 c -0.0863,0.10461 -0.1745,0.20311 -0.26562,0.29687 -0.0361,0.0371 -0.0725,0.0741 -0.10938,0.11133 0.0804,0.0658 0.15457,0.1361 0.22266,0.20899 0.044,-0.16275 0.0916,-0.35617 0.14453,-0.58789 0.002,-0.01 0.006,-0.0196 0.008,-0.0293 z m 8.31836,1.02344 c -0.0791,0.0117 -0.1577,0.0239 -0.23633,0.0371 0.004,0.0223 0.008,0.0444 0.0117,0.0664 0.0743,-0.0358 0.14891,-0.07 0.22461,-0.10351 z m -2.89453,0.7832 c -0.3382,0.1312 -0.67423,0.27459 -1.00586,0.42773 0.10651,0.0645 0.20935,0.13881 0.30859,0.22071 0.21641,-0.0901 0.43646,-0.17358 0.65821,-0.25196 0.0183,-0.13285 0.0323,-0.26476 0.0391,-0.39648 z m -7.59961,0.01 c -0.069,0.003 -0.16511,0.0607 -0.20313,0.11328 -0.0819,0.11319 -0.0411,0.27602 -0.0801,0.41015 -0.12443,0.42821 -0.23722,0.42424 -0.60352,0.79492 0.14966,-0.0778 0.29864,-0.16113 0.45117,-0.23046 0.14431,-0.18669 0.32947,-0.34786 0.43164,-0.56055 0.0719,-0.14964 0.14616,-0.34257 0.0742,-0.49219 -0.0128,-0.0266 -0.0389,-0.0365 -0.0703,-0.0351 z m 18.99023,2.0039 c 0.01,0.0777 0.0186,0.15448 0.0254,0.23242 0.10676,-0.0444 0.21138,-0.0839 0.3125,-0.11914 -0.1129,-0.0362 -0.2267,-0.0734 -0.33789,-0.11328 z m 11.39649,0.81836 c -0.034,4.3e-4 -0.10182,0.0249 -0.21094,0.0859 -0.0604,0.0338 -0.11954,0.0699 -0.17773,0.10742 0.2282,0.007 0.40065,-0.11753 0.41406,-0.16992 v -0.002 -0.002 -0.002 -0.002 -0.002 -0.002 -0.002 h -0.002 v -0.002 l -0.002,-0.002 h -0.002 v -0.002 h -0.002 c -0.003,-10e-4 -0.009,-0.003 -0.0137,-0.004 h -0.002 z m -38.25391,2.43555 c -0.0228,0.002 -0.0442,0.0156 -0.0644,0.043 -0.15223,0.2056 0.32262,0.66198 0.57617,0.95703 -0.0122,-0.14581 -0.023,-0.30286 -0.0352,-0.4707 -0.15504,-0.13928 -0.33693,-0.54244 -0.47656,-0.5293 z m 11.40625,0.0976 c -0.047,0.003 -0.0956,0.005 -0.14258,0.008 -0.0436,0.11791 -0.082,0.23818 -0.11328,0.35937 0.14717,-0.0559 0.29608,-0.12182 0.44141,-0.19531 -0.0681,-0.0559 -0.12967,-0.11218 -0.18555,-0.17188 z m 22.87696,0.95118 c -0.0285,0.0175 -0.0561,0.0346 -0.084,0.0527 -0.60723,0.39503 -1.30089,0.80128 -2,1.23633 0.18754,0.26775 0.34268,0.61291 0.46484,1.04101 0.0716,0.25101 0.0933,0.55085 0.0801,0.87696 0.15036,-0.57515 0.32173,-1.14427 0.52149,-1.70508 0.36004,-0.43223 0.54469,-1.20716 1.01562,-1.42383 8.9e-4,-0.0265 0.001,-0.0517 0.002,-0.0781 z m -11.19727,2.45117 c -0.16448,0.13627 -0.3332,0.26699 -0.50391,0.39648 -0.0369,0.0836 -0.0719,0.16379 -0.10351,0.24024 0.10604,0.0804 0.2183,0.17205 0.33789,0.27539 0.0924,-0.31012 0.18123,-0.61385 0.26953,-0.91211 z m -15.2832,0.83203 c 0.005,0.0729 0.0115,0.14605 0.0195,0.21875 0.14519,1.32375 0.46309,3.05036 1.24023,4.20312 0.24691,0.36625 0.68095,0.56243 1.02149,0.84375 0.19646,-0.11396 0.43008,-0.18035 0.58984,-0.34179 0.26381,-0.26659 0.70179,-1.07027 0.99414,-1.64649 -0.3454,-0.42505 -0.42712,-1.16734 0.0332,-2.08007 -0.18847,-0.0702 -0.37441,-0.15071 -0.55664,-0.24024 -0.73497,-0.16481 -2.09375,-0.49526 -3.34179,-0.95703 z m 21.90625,1.46484 c -0.0661,0.12461 -0.13249,0.24874 -0.19922,0.37305 0.0157,0.007 0.0311,0.0145 0.0469,0.0215 0.0533,-0.13026 0.10452,-0.26237 0.15235,-0.39453 z m -24.39063,0.36133 c -0.0357,0.0276 -0.0712,0.0535 -0.10742,0.0801 0.082,0.16608 0.1553,0.33797 0.22461,0.51172 -0.0429,-0.19833 -0.0822,-0.39566 -0.11719,-0.5918 z m 14.39258,0.21094 c 0.0402,0.1115 0.0859,0.22348 0.11328,0.33203 0.0564,0.0257 0.11155,0.0525 0.16797,0.0781 0.01,-0.0775 0.0161,-0.15592 0.0176,-0.23438 8.6e-4,-0.0449 -0.002,-0.10175 -0.01,-0.16406 -0.0962,-0.004 -0.19287,-0.007 -0.28906,-0.0117 z m 12.45898,0.53125 c -0.0935,0.27154 -0.18609,0.51307 -0.26757,0.70703 0.0353,0.0648 0.0688,0.13069 0.10156,0.19727 0.0112,-0.06 0.0224,-0.11964 0.0332,-0.17969 0.0434,-0.24132 0.0877,-0.48328 0.13281,-0.72461 z m -29.98632,0.5332 c -0.0657,0.12215 -0.1348,0.24109 -0.20704,0.35547 -0.37866,0.59962 -0.79171,1.29775 -1.45117,1.55859 -0.71697,0.28356 -1.63739,0.30562 -2.31054,-0.0703 -0.44924,-0.25088 -0.45697,-0.89692 -0.61133,-1.41211 v 4.25586 c 0.12188,-0.0314 0.25065,-0.0603 0.38672,-0.0879 0.43281,-0.0876 0.51402,0.74614 0.60742,1.17774 0.10315,0.47674 -0.003,0.97635 -0.0371,1.46289 -0.0424,0.59581 -0.10871,1.25169 -0.18555,1.91992 0.42051,-0.007 0.86167,0.20478 1.33008,0.71679 0.0783,-0.24112 0.16125,-0.48184 0.25195,-0.71874 0.11045,-0.2885 0.28235,-0.54962 0.42383,-0.82422 0.45862,0.19728 0.98398,0.30304 1.47266,0.45898 0.11094,-0.32505 0.22354,-0.66608 0.38476,-0.95508 -0.002,-0.0431 -0.004,-0.0865 -0.006,-0.1289 -0.12066,-0.34075 -0.13032,-0.72848 -0.0488,-1.13477 -5e-5,-0.002 4e-5,-0.002 0,-0.004 -0.0119,-0.4076 -0.0187,-0.8151 -0.0234,-1.22265 -0.0286,-0.0946 -0.0551,-0.19555 -0.0801,-0.30078 -0.0532,-0.22403 -0.0125,-0.56042 0.0684,-0.92383 -9.1e-4,-0.0712 -0.003,-0.14173 -0.004,-0.21289 0.0116,-1.35948 0.0145,-2.62755 0.0391,-3.91016 z m -1.88282,0.0137 c -4.8e-4,0.002 -9.9e-4,0.003 -0.002,0.006 -0.0106,0.037 -0.0453,0.15785 -0.10547,0.24219 -0.0128,0.0361 -0.023,0.0713 -0.0312,0.10352 -0.0361,0.13788 0.0205,0.28368 0.0312,0.42578 0.0651,-0.54301 0.10172,-0.74198 0.10742,-0.77735 z m 18.70117,1.86133 c -0.0601,0.12673 -0.1162,0.25036 -0.16601,0.38086 0.0172,0.0258 0.0346,0.0526 0.0527,0.0801 0.0762,-0.13592 0.15123,-0.27246 0.22461,-0.41016 -0.0374,-0.0169 -0.074,-0.0339 -0.11133,-0.0508 z m -4.56445,0.0293 c 0.005,0.17627 0.0213,0.33593 0.0527,0.46289 v 0.002 0.002 l 0.002,0.002 v 0.002 c 1.5e-4,2.5e-4 0.003,0.005 0.004,0.006 l 0.002,0.004 c 2.2e-4,1.6e-4 0.003,0.001 0.004,0.002 h 0.002 v 0.002 c 4.5e-4,1.3e-4 0.005,-4.6e-4 0.006,0 v 0.002 c 0.0618,0.008 0.20906,-0.11836 0.19336,-0.18946 -7.4e-4,-0.002 -0.003,-0.01 -0.004,-0.0117 -0.058,-0.11448 -0.15681,-0.20205 -0.26172,-0.28515 z m 7.1543,1.10547 c -0.0832,0.15321 -0.16806,0.30449 -0.25586,0.45508 0.45203,-0.0286 0.92637,-0.0188 1.44727,0.0449 l -0.002,-0.002 c -0.39689,-0.16482 -0.79393,-0.33011 -1.18945,-0.49804 z m -5.67774,0.17383 c -0.22726,0.29707 -0.47469,0.55219 -0.74609,0.72461 0.017,0.005 0.0338,0.012 0.0508,0.0176 0.22388,0.0741 0.44205,0.16937 0.6543,0.28321 -0.0181,-0.324 0.0119,-0.66019 0.0371,-0.97461 10e-4,-0.0166 0.002,-0.0339 0.004,-0.0508 z m -3.54101,0.47851 c -0.19671,0.1683 -0.40912,0.32101 -0.63867,0.45117 0.25922,-0.0981 0.51885,-0.19491 0.77148,-0.30468 -0.0466,-0.0457 -0.09,-0.0951 -0.13281,-0.14649 z m -1.50391,0.8086 v 0.002 h 0.002 v -0.002 z m -3.24219,1.14453 c -0.0109,0.0388 -0.0228,0.0783 -0.0332,0.11718 -0.48914,0.74957 -1.21142,2.30632 -2.29883,2.92383 -0.034,1.03254 0.0653,1.41025 -1.07617,1.59961 -0.12537,0.74952 -0.40191,1.46748 -0.54101,2.21485 -0.10581,0.56844 -0.19248,1.09183 -0.26758,1.58789 0.0528,0.50789 0.14279,1.31446 0.24609,2.16211 0.005,-0.54197 -0.20389,-1.19927 0.18164,-1.54883 0.0675,-0.0612 0.1382,-0.11907 0.21094,-0.17383 0.005,-0.0607 0.0102,-0.12548 0.0156,-0.19336 -0.0118,-0.005 -0.0235,-0.009 -0.0352,-0.0137 h -0.002 -0.002 v -0.002 h -0.002 l -0.002,-0.002 v -0.002 h -0.002 v -0.002 l -0.002,-0.002 v -0.002 c -2.5e-4,-0.002 -3.2e-4,-0.008 0,-0.01 0.007,-0.0263 0.0456,-0.0675 0.0566,-0.0957 -0.004,0.0454 -0.006,0.0885 -0.01,0.13086 0.0571,0.0219 0.1147,0.0421 0.17383,0.0606 0.16601,-0.10731 0.34384,-0.20033 0.52735,-0.28125 0.10522,-0.94878 0.24583,-1.89209 0.45117,-2.82227 -0.0472,-0.26098 -0.0638,-0.48786 0.12109,-0.51172 0.0423,-0.17039 0.0857,-0.34047 0.13282,-0.50976 0.86592,0.2249 1.90263,0.11042 2.59765,0.67382 0.35277,0.28594 -0.0351,0.90837 -0.0879,1.35938 -0.0291,0.24904 -0.067,0.54014 -0.11133,0.85547 0.1421,-0.0101 0.28429,-0.0104 0.42774,0.002 0.28603,0.0245 0.16719,0.55519 0.18359,0.8418 8.5e-4,0.0148 9.5e-4,0.0299 0.002,0.0449 0.17075,-0.51114 0.3401,-1.02381 0.51172,-1.5332 0.12393,-0.36783 0.0934,-0.8323 0.3711,-1.10352 0.006,-0.006 0.0131,-0.0115 0.0195,-0.0176 -0.48401,-0.27039 -0.84394,-0.77965 -1.06641,-1.28711 -0.55098,-1.25684 -0.19811,-2.6522 0.54688,-3.77539 -0.29102,-0.25019 -0.59919,-0.46075 -0.9043,-0.58398 -0.11675,-0.0472 -0.22692,-0.0797 -0.33399,-0.10156 z m 14.33204,0.5332 c -0.26031,-0.006 -0.5013,9.4e-4 -0.73047,0.0195 -0.004,0.0263 -0.008,0.0518 -0.0117,0.0781 0.52561,0.15958 1.06238,0.30259 1.50195,0.58398 0.11047,-0.004 0.21972,-0.0119 0.32617,-0.0254 -0.0305,0.091 -0.0543,0.16146 -0.0723,0.21484 0.0466,0.0406 0.0917,0.0833 0.13476,0.12891 0.37397,0.3955 -0.01,1.08698 0,1.63086 0.002,0.10109 0.005,0.2205 0.008,0.35351 0.0669,-0.0403 0.11914,-0.0713 0.15234,-0.0918 0.79397,-0.48918 1.60769,-0.94831 2.41797,-1.41211 -0.66684,-0.79359 -1.62795,-1.27616 -2.88086,-1.41992 -0.30516,-0.035 -0.5854,-0.0541 -0.8457,-0.0606 z m -8.32227,0.0645 c -0.32776,0.006 -0.64939,0.19831 -0.97461,0.27539 -0.0609,0.0349 -0.12138,0.0704 -0.18359,0.10743 0.17257,0.33848 0.3128,0.68612 0.41406,1.03515 0.36347,-0.54374 0.77039,-0.96451 1.21484,-1.32422 -0.10832,-0.0369 -0.21851,-0.0658 -0.33007,-0.084 -0.0471,-0.008 -0.0938,-0.0102 -0.14063,-0.01 z m 2.38477,2.02344 c -0.51392,0.38376 -0.95912,0.83766 -1.28907,1.51367 -0.0409,0.0838 -0.0721,0.16176 -0.0937,0.23438 0.37488,-0.0885 0.75979,-0.12582 1.13086,-0.10938 0.0916,0.004 0.15322,0.0457 0.19727,0.11328 0.0971,0.0159 0.19423,0.0332 0.29101,0.0527 0.0287,-0.0809 0.0522,-0.1629 0.0606,-0.24805 0.0482,-0.48809 -0.0662,-1.03799 -0.29687,-1.55664 z m -5.32422,0.48047 c -0.0107,0.11238 -0.0111,0.23047 0,0.35156 0.0156,0.16959 0.11874,0.35634 0.27148,0.43164 0.0893,0.044 0.23428,-0.0821 0.23828,-0.18164 0.006,-0.16171 -0.14294,-0.28862 -0.21484,-0.43359 -0.0921,-0.0621 -0.19745,-0.11156 -0.29492,-0.16797 z m 1.48047,2.05078 c -0.25068,0.25551 -0.51596,0.50438 -0.73243,0.77734 0.0989,0.23278 0.19537,0.46543 0.28321,0.70118 0.0668,-0.0105 0.13586,-0.0104 0.20703,0.002 0.21086,0.0365 0.11501,0.25626 -0.0352,0.50781 0.0433,0.148 0.0794,0.29751 0.10938,0.44922 0.13581,0.68618 -0.039,1.39817 -0.041,2.09766 -2.6e-4,0.0765 -1e-4,0.16101 0,0.2539 0.14744,-0.9809 0.33302,-2.03913 0.45899,-2.64062 0.0784,-0.37433 0.066,-0.80688 0.12109,-1.20117 -0.17555,-0.29161 -0.29881,-0.61182 -0.37109,-0.94727 z m -14.21875,3.2207 c -0.10539,0.37493 -0.2159,0.74839 -0.32227,1.12305 0.008,0.29438 0.0216,0.5885 0.041,0.88281 0.20866,-0.55785 0.32231,-0.83615 0.38476,-0.9707 -0.0283,-0.33829 -0.0617,-0.67754 -0.10351,-1.03516 z m -0.0469,3.86328 c 0.009,0.0345 0.0191,0.0693 0.0293,0.10352 0.0235,0.0789 0.23136,0.17208 0.27539,0.17187 h 0.002 0.002 l 0.002,-0.002 h 0.002 v -0.002 -0.002 l -0.002,-0.002 v -0.002 l -0.002,-0.002 c -0.001,-0.001 -0.004,-0.004 -0.006,-0.006 l -0.002,-0.002 c -0.0972,-0.0881 -0.199,-0.17313 -0.30078,-0.25586 z m 9.87305,2.2168 c -0.009,0.018 -0.0195,0.0349 -0.0293,0.0527 -0.015,0.0274 -0.031,0.0552 -0.0469,0.082 0.007,0.0579 0.0156,0.11595 0.0234,0.17382 4.9e-4,0.004 9.6e-4,0.007 0.002,0.01 v 0.002 0.004 l 0.002,0.002 v 0.002 h 0.002 v 0.002 h 0.002 0.002 0.002 v -0.002 h 0.002 v -0.002 c 0.0314,-0.0344 0.0888,-0.25398 0.0391,-0.32617 z m -5.03906,6.95899 c 0.015,0.0803 0.0299,0.16036 0.0469,0.24023 v 0.002 l 0.002,0.002 v 0.002 l 0.002,0.002 v 0.002 h 0.002 v 0.002 h 0.002 0.002 0.002 0.002 0.002 0.002 v -0.002 c 0.0336,-0.0274 0.0936,-0.1481 0.0723,-0.18946 l -0.002,-0.002 -0.002,-0.002 -0.002,-0.002 -0.002,-0.002 -0.002,-0.002 -0.002,-0.002 h -0.002 c -0.0421,-0.0169 -0.0827,-0.0332 -0.12304,-0.0488 z" /><rect
   style="fill:#000000;fill-opacity:0"
   id="rect4"
   width="82.458374"
   height="15.189701"
   x="70.523613"
   y="284.80688"
   rx="1.7151316"
   ry="1.2373283" /><path
   id="rect5"
   style="fill:#000000;fill-opacity:0"
   d="m 135.71094,284.80664 c -0.95019,0 -1.7168,0.5528 -1.7168,1.23828 v 7.83203 c 0,0.68548 0.76661,1.23633 1.7168,1.23633 h 21.15039 c 0.0605,-1.18435 0.15764,-2.36769 0.24414,-3.54883 0.27388,-2.00799 -0.0722,-3.43769 2.77344,-4.01367 0.43281,-0.0876 0.51402,0.74614 0.60742,1.17774 0.10315,0.47674 -0.003,0.97635 -0.0371,1.46289 -0.0424,0.59581 -0.10871,1.25169 -0.18555,1.91992 0.42051,-0.007 0.86167,0.20478 1.33008,0.71679 0.0783,-0.24112 0.16125,-0.48184 0.25195,-0.71874 0.11045,-0.2885 0.28235,-0.54962 0.42383,-0.82422 0.45862,0.19728 0.98398,0.30304 1.47266,0.45898 0.11094,-0.32505 0.22354,-0.66608 0.38476,-0.95508 -0.002,-0.0432 -0.004,-0.0865 -0.006,-0.1289 -0.12051,-0.34026 -0.12994,-0.7291 -0.0488,-1.13477 -5e-5,-0.002 4e-5,-0.004 0,-0.006 -0.0119,-0.40754 -0.0187,-0.81321 -0.0234,-1.2207 -0.0286,-0.0947 -0.0551,-0.19551 -0.0801,-0.30078 -0.0532,-0.22406 -0.0125,-0.56038 0.0684,-0.92383 -9.1e-4,-0.0711 -0.003,-0.14183 -0.004,-0.21289 0.006,-0.70467 0.0101,-1.38458 0.0156,-2.05469 h -1.50391 c -0.0423,0.0214 -0.0864,0.041 -0.13086,0.0586 -0.70943,0.28058 -1.61789,0.30517 -2.28906,-0.0586 z m 35.83203,0 c 0.14609,0.10006 0.29546,0.19771 0.42969,0.30859 0.18242,-0.10581 0.39706,-0.17062 0.55468,-0.30859 z m 9.34765,0.0195 c -0.0601,0.1268 -0.11618,0.2503 -0.16601,0.38086 0.0172,0.0258 0.0346,0.0526 0.0527,0.0801 0.0762,-0.13598 0.15119,-0.27239 0.22461,-0.41016 -0.0374,-0.0169 -0.074,-0.0339 -0.11133,-0.0508 z m -4.56445,0.0293 c 0.005,0.17627 0.0213,0.33593 0.0527,0.46289 v 0.002 0.002 l 0.002,0.002 v 0.002 c 1.5e-4,2.5e-4 0.003,0.003 0.004,0.004 v 0.002 l 0.002,0.002 c 2.2e-4,1.7e-4 0.003,0.003 0.004,0.004 h 0.002 c 4.5e-4,1.3e-4 0.005,0.001 0.006,0.002 0.0618,0.008 0.20906,-0.11835 0.19336,-0.18945 -7.4e-4,-0.002 -0.003,-0.008 -0.004,-0.01 -0.058,-0.11448 -0.15681,-0.20205 -0.26172,-0.28515 z m 7.1543,1.10547 c -0.0832,0.15328 -0.16802,0.30442 -0.25586,0.45508 0.45203,-0.0286 0.92635,-0.0188 1.44727,0.0449 l -0.002,-0.002 c -0.39666,-0.16473 -0.79417,-0.33021 -1.18945,-0.49804 z m -5.67774,0.17383 c -0.22726,0.29707 -0.47469,0.55219 -0.74609,0.72461 0.017,0.005 0.0338,0.012 0.0508,0.0176 0.22388,0.0741 0.44205,0.16937 0.6543,0.28321 -0.0181,-0.324 0.0119,-0.66019 0.0371,-0.97461 10e-4,-0.0166 0.002,-0.0339 0.004,-0.0508 z m -3.54101,0.47851 c -0.19671,0.1683 -0.40912,0.32101 -0.63867,0.45117 0.25922,-0.0981 0.51885,-0.19491 0.77148,-0.30468 -0.0466,-0.0457 -0.09,-0.0951 -0.13281,-0.14649 z m -1.50391,0.80664 v 0.002 0.002 h 0.002 v -0.002 -0.002 z m -3.24219,1.14649 c -0.0109,0.0388 -0.0228,0.0783 -0.0332,0.11718 -0.48914,0.74957 -1.21144,2.30631 -2.29883,2.92383 -0.034,1.03268 0.0653,1.41024 -1.07617,1.59961 -0.10803,0.64585 -0.3287,1.26827 -0.47656,1.90625 h 1.29492 c 0.0536,-0.30131 0.11371,-0.60153 0.17969,-0.90039 -0.0472,-0.26098 -0.0638,-0.48786 0.12109,-0.51172 0.0423,-0.17039 0.0857,-0.34047 0.13282,-0.50976 0.86592,0.2249 1.90263,0.11042 2.59765,0.67382 0.32454,0.26306 0.0232,0.81089 -0.0684,1.24805 h 1.07227 c 0.0534,-0.2884 0.0923,-0.58527 0.29297,-0.78125 0.006,-0.006 0.0131,-0.0115 0.0195,-0.0176 -0.48407,-0.27038 -0.84392,-0.7796 -1.06641,-1.28711 -0.55098,-1.25684 -0.19811,-2.6522 0.54688,-3.77539 -0.29102,-0.25019 -0.59919,-0.46075 -0.9043,-0.58398 -0.11675,-0.0472 -0.22691,-0.0797 -0.33399,-0.10156 z m 13.88672,0.53515 c -0.0971,0.004 -0.19247,0.0101 -0.28515,0.0176 -0.004,0.0263 -0.008,0.0518 -0.0117,0.0781 0.52561,0.15958 1.06238,0.30259 1.50195,0.58398 0.11047,-0.004 0.21972,-0.0119 0.32617,-0.0254 -0.0305,0.091 -0.0543,0.16146 -0.0723,0.21484 0.0466,0.0406 0.0917,0.0833 0.13476,0.12891 0.37397,0.3955 -0.01,1.08698 0,1.63086 0.002,0.10125 0.005,0.22026 0.008,0.35351 0.0669,-0.0403 0.11914,-0.0713 0.15234,-0.0918 0.79408,-0.48925 1.60757,-0.94824 2.41797,-1.41211 -0.66685,-0.79384 -1.62773,-1.27613 -2.88086,-1.41992 -0.48655,-0.0558 -0.90813,-0.0728 -1.29102,-0.0586 z m -7.87695,0.0625 c -0.32776,0.006 -0.64939,0.19831 -0.97461,0.27539 -0.0609,0.0349 -0.12138,0.0704 -0.18359,0.10743 0.17257,0.33848 0.3128,0.68612 0.41406,1.03515 0.36347,-0.54374 0.77039,-0.96451 1.21484,-1.32422 -0.10832,-0.0369 -0.21851,-0.0658 -0.33007,-0.084 -0.0471,-0.008 -0.0938,-0.0102 -0.14063,-0.01 z m 2.38477,2.02344 c -0.51392,0.38376 -0.95912,0.83766 -1.28907,1.51367 -0.041,0.0839 -0.0721,0.16169 -0.0937,0.23438 0.37491,-0.0885 0.75976,-0.12582 1.13086,-0.10938 0.0916,0.004 0.15322,0.0457 0.19727,0.11328 0.097,0.0159 0.19426,0.0332 0.29101,0.0527 0.0287,-0.081 0.0522,-0.16281 0.0606,-0.24805 0.0482,-0.48809 -0.0662,-1.03799 -0.29687,-1.55664 z m -5.32422,0.48047 c -0.0107,0.11238 -0.0111,0.23047 0,0.35156 0.0156,0.16959 0.11874,0.35634 0.27148,0.43164 0.0893,0.044 0.23428,-0.0821 0.23828,-0.18164 0.006,-0.16171 -0.14294,-0.28862 -0.21484,-0.43359 -0.0921,-0.0621 -0.19745,-0.11156 -0.29492,-0.16797 z m 1.48047,2.05078 c -0.25069,0.25552 -0.51595,0.50438 -0.73243,0.77734 0.0872,0.20515 0.17267,0.40993 0.25196,0.61719 h 0.81054 c 0.01,-0.15142 0.0206,-0.30155 0.041,-0.44726 -0.17557,-0.2916 -0.29881,-0.61185 -0.37109,-0.94727 z" /><path
   id="rect6"
   style="fill:#000000;fill-opacity:0"
   d="m 153.07031,252.25781 c -0.95018,0 -1.71484,0.55085 -1.71484,1.23633 v 0.28516 c 1.02056,-1.12887 1.86493,-1.08451 3.02148,-0.01 0.44559,0.41442 1.18358,1.98471 1.48633,2.57422 0.008,-0.0194 0.0149,-0.0322 0.0234,-0.0391 4.8e-4,-3.2e-4 0.003,-0.003 0.004,-0.004 h 0.002 l 0.002,-0.002 h 0.002 0.002 c 0.002,-1.3e-4 0.005,-9e-5 0.008,0 h 0.002 c 1.3e-4,3e-5 0.005,5e-5 0.006,0 v 0.002 c 0.11586,0.059 0.29994,0.82556 0.52735,0.7168 l 0.002,-0.002 h 0.002 v -0.002 h 0.002 v -0.002 -0.002 -0.002 -0.002 c -0.007,-0.0641 -0.21719,-0.31303 -0.22071,-0.37695 v -0.002 -0.002 -0.002 h 0.002 v -0.002 c 0.066,-0.14024 0.21881,-0.22018 0.32812,-0.33007 0.21185,-0.213 0.42302,-0.42559 0.63477,-0.63868 0.25377,-0.27938 0.50518,-0.5623 0.75195,-0.84765 0.0563,-0.65132 -0.0249,-1.4721 0.51562,-1.76172 0.14238,-0.0763 0.29393,-0.12546 0.45118,-0.1543 -0.18632,-0.0612 -0.36586,-0.14384 -0.54883,-0.21484 -0.17352,-0.0921 -0.33133,-0.19184 -0.47656,-0.29688 -0.55216,-0.0168 -1.55252,-0.0419 -2.62891,-0.11914 z m 12.71094,0.75586 c -0.69117,0.0274 -1.38306,0.0558 -2.07422,0.0801 0.0847,0.26044 0.13731,0.54023 0.1875,0.80664 0.88401,-0.006 1.53136,0.30412 2.00977,0.80273 0.0113,-0.0625 0.0245,-0.12339 0.0391,-0.18359 0.069,-0.28633 0.45107,-0.17663 0.82031,-0.082 0.29628,-0.16731 0.6615,-0.14489 1.04297,-0.0742 0.008,-0.21539 0.0363,-0.42628 0.0801,-0.63672 -0.22017,-0.0798 -0.44027,-0.15911 -0.66211,-0.23633 -0.47919,-0.16679 -0.96048,-0.32203 -1.44336,-0.47656 z m 11.60937,0.40235 c -0.89395,0.11546 -1.78704,0.22786 -2.68164,0.33789 0.12981,0.0842 0.25115,0.17861 0.35743,0.29101 0.0645,0.0682 0.12534,0.13466 0.18164,0.20117 0.20621,0.0388 0.41612,0.0902 0.62304,0.13086 0.50794,0.0125 1.01588,0.0276 1.52344,0.0488 v -0.93164 c 0,-0.0264 -0.002,-0.0522 -0.004,-0.0781 z m -9.00781,0.76367 c -0.1137,0.0371 -0.2695,0.15242 -0.39062,0.22265 0.20698,0.0442 0.41676,0.0945 0.62109,0.13086 0.46966,0.005 0.93842,0.0101 1.4082,0.0156 -0.17062,-0.0698 -0.34239,-0.1389 -0.51367,-0.20703 -0.31855,0.032 -0.63632,0.0635 -0.95508,0.0937 -0.0534,-0.0862 -0.11092,-0.17188 -0.16992,-0.25586 z m -4.63281,2.08593 c -0.0105,0.20275 -0.0217,0.40489 -0.0332,0.60743 -0.0122,0.41186 -0.026,0.82413 -0.0391,1.23633 0.27858,0.17079 0.53142,0.36831 0.72461,0.6289 0.11648,0.15711 0.16961,0.33938 0.19532,0.5332 -0.0748,-0.85398 -0.16077,-1.73345 -0.51368,-2.50781 -0.0802,-0.176 -0.18512,-0.3724 -0.33398,-0.49805 z m -10.92383,0.13477 c -0.62006,0.92341 -1.19226,1.88886 -1.4707,2.96094 v 1.40429 c 0.14553,0.55974 0.46315,0.92446 1.17578,1.29493 0.74279,0.45663 1.10058,0.59449 1.41797,1.16406 0.8385,0.14151 1.74268,0.13481 2.55469,0.17187 1.53695,0.0701 3.07555,0.12468 4.61328,0.18555 -0.09,-0.57964 -0.13249,-1.2174 -0.13477,-1.25 -0.002,-0.0322 -0.004,-0.0635 -0.006,-0.0957 -0.0508,0.0129 -0.10248,0.0222 -0.15429,0.0293 -1.78879,0.2469 -1.90638,-0.58653 -2.59961,-1.71679 -0.10434,-0.55591 -0.25516,-1.10548 -0.31446,-1.66797 -0.005,-0.0503 -0.0108,-0.10821 -0.0156,-0.17383 -0.25088,0.1983 -0.51147,0.36804 -0.77735,0.47656 -1.7638,0.71994 -2.82694,-0.1634 -3.66601,-1.60156 -0.61364,-1.1993 -0.20359,-0.41416 -0.62305,-1.18164 z M 169,257.29297 c -0.60467,-0.008 -1.32615,0.27225 -1.9043,0.19336 0.16192,0.87823 0.22463,1.76648 0.28907,2.46679 1e-4,0.003 -1.1e-4,0.006 0,0.01 0.0432,0.002 0.0851,0.006 0.125,0.01 0.0613,-0.14276 0.14173,-0.32913 0.25195,-0.58789 0.33264,-0.31106 0.55502,-0.82809 0.99805,-0.9336 0.35286,-0.084 0.65491,-0.1176 0.92187,-0.11133 0.31169,-0.17424 0.62834,-0.31401 0.95313,-0.40234 0.0141,-0.20893 0.0507,-0.41638 0.0996,-0.62305 -0.57804,-0.006 -1.15637,-0.0138 -1.73438,-0.0215 z m 5.40039,0.92969 c 0.003,0.005 0.005,0.0116 0.008,0.0176 2.4e-4,-0.006 -2.2e-4,-0.0119 0,-0.0176 -0.003,5e-5 -0.005,-6e-5 -0.008,0 z m -13.70312,0.71093 c -0.0168,0.001 -0.0319,0.003 -0.0488,0.004 0.003,0.0151 0.005,0.0312 0.008,0.0469 0.0136,-0.0166 0.0271,-0.0344 0.041,-0.0508 z m 13.10742,0.22852 c 0.34947,0.64881 0.36357,1.4379 0.36328,2.18164 0.29986,0.21757 0.46178,0.26897 1.34961,0.72461 0.22653,-0.0337 0.4652,-0.0213 0.67969,-0.10156 0.46203,-0.17292 0.77064,-0.58606 1.08398,-0.95118 -0.13754,-0.12855 -0.26667,-0.26524 -0.38477,-0.4121 -0.47195,-0.0112 -0.94348,-0.0217 -1.41601,-0.0312 -0.23979,-0.005 -0.48262,0.008 -0.7207,-0.0215 -0.2031,-0.0247 -0.58196,0.0653 -0.59766,-0.13867 -0.0303,-0.39504 0.0109,-0.78752 0.0781,-1.17969 -0.14827,-0.0206 -0.29478,-0.0443 -0.43554,-0.0703 z m -10.15039,0.33008 v 0.002 h 0.002 v -0.002 z m -0.002,0.004 c -0.003,0.003 -0.008,0.009 -0.0117,0.0137 -9e-5,0.006 10e-5,0.0117 0,0.0176 0.007,-0.0148 0.01,-0.0257 0.0117,-0.0312 z m -2.80859,0.3418 c 0.0125,0.0578 0.0254,0.11942 0.0391,0.18359 0.011,0.006 0.0245,0.0126 0.0391,0.0215 2.2e-4,-0.0435 -3.7e-4,-0.0854 0,-0.12891 -0.0257,-0.0247 -0.0515,-0.0507 -0.0781,-0.0762 z m 9.14258,1.6543 c -0.10523,0.11764 -0.19983,0.22615 -0.28711,0.32812 -0.0286,0.0776 -0.0634,0.16917 -0.10547,0.28125 0.25389,-0.13625 0.51809,-0.24696 0.79297,-0.32812 -0.0433,-0.0364 -0.0808,-0.0699 -0.11328,-0.0977 -0.0788,-0.0675 -0.18613,-0.12381 -0.28711,-0.18359 z m -16.55469,1.62304 c 0.0773,0.0205 0.15536,0.0396 0.23438,0.0566 -0.0674,-0.033 -0.15464,-0.0399 -0.23438,-0.0566 z m -1.87695,0.81446 v 0.002 c -0.008,0.014 -0.0182,0.0695 -0.0137,0.0918 0.0434,0.22207 0.14981,0.43251 0.16601,0.6582 9e-5,10e-4 8e-5,0.003 0,0.004 v 0.002 0.002 l -0.002,0.002 v 0.002 l -0.002,0.002 h -0.002 v 0.002 h -0.002 -0.002 c -0.025,0.005 -0.0824,-0.0192 -0.10938,-0.0332 -0.0795,-0.0415 -0.15638,-0.0882 -0.23242,-0.13672 v 21.21289 c 0,0.68548 0.76466,1.23633 1.71484,1.23633 h 10.96485 c -5.3e-4,-0.0385 -9.6e-4,-0.0767 -0.002,-0.11523 0.0116,-1.3597 0.0145,-2.62735 0.0391,-3.91016 -0.0658,0.12242 -0.13465,0.24084 -0.20704,0.35547 -0.37866,0.59962 -0.79171,1.29775 -1.45117,1.55859 -0.71697,0.28356 -1.63739,0.30562 -2.31054,-0.0703 -0.50576,-0.28245 -0.45194,-1.06615 -0.67774,-1.59961 0.1404,-0.48722 0.17843,-1.01706 0.41992,-1.46289 0.26003,-0.48005 0.62852,-0.93762 1.06641,-1.31445 -0.56514,-0.78593 -0.88312,-1.39832 -0.97852,-2.82813 -0.0498,-0.74636 -0.0559,-1.55313 0.26563,-2.22851 0.80843,-1.69807 2.13766,-2.53776 3.88672,-1.29688 0.26554,0.1884 0.42597,0.46943 0.55664,0.77735 0.0227,-0.18266 0.0465,-0.36421 0.0703,-0.54492 -0.48245,-0.19629 -0.81535,-0.60572 -1.05859,-1.09376 -1.19389,0.11166 -1.75891,-0.45635 -1.89063,-1.89453 -0.0508,-0.55508 0.50589,-1.31748 0.93555,-1.86132 0.0121,-0.0402 0.0245,-0.0792 0.0371,-0.11915 -0.0868,-0.64406 -0.16859,-1.28867 -0.24414,-1.93359 -0.0511,-0.1301 -0.10007,-0.26149 -0.14844,-0.39258 -0.0871,-0.23614 -0.14377,-0.45672 -0.17383,-0.66211 -1.92374,-0.0829 -3.8476,-0.14656 -5.77148,-0.23437 -1.24643,-0.0569 -2.45899,-0.1007 -3.67578,-0.37305 -1.17074,-0.66975 -0.53909,-0.10041 -1.16211,-1.79687 v -0.002 -0.002 h -0.002 v -0.002 h -0.002 z m 19.50976,0.16601 c -0.001,5e-4 -0.003,0.001 -0.004,0.002 l -0.002,0.002 c 0.002,1.2e-4 0.004,-1.2e-4 0.006,0 v -0.002 z m 4.56836,3.8086 c 0.0172,0.0348 0.0343,0.0705 0.0508,0.10547 0.0377,-0.0165 0.0755,-0.0326 0.11329,-0.0488 -0.0539,-0.0196 -0.10891,-0.0392 -0.16407,-0.0566 z m -3.70117,0.53906 c -0.0863,0.10461 -0.1745,0.20311 -0.26562,0.29687 -0.036,0.0371 -0.0726,0.0742 -0.10938,0.11133 0.0804,0.0658 0.1546,0.13612 0.22266,0.20899 0.044,-0.1627 0.0916,-0.35628 0.14453,-0.58789 0.002,-0.01 0.006,-0.0196 0.008,-0.0293 z m 5.42383,1.80664 c -0.3381,0.13116 -0.67237,0.27464 -1.00391,0.42773 0.10641,0.0645 0.20749,0.13888 0.30664,0.22071 0.21641,-0.0901 0.43646,-0.17358 0.65821,-0.25196 0.0183,-0.13275 0.0323,-0.26486 0.0391,-0.39648 z m -7.59961,0.01 c -0.069,0.003 -0.16511,0.0607 -0.20313,0.11328 -0.0819,0.11319 -0.0411,0.27602 -0.0801,0.41015 -0.12443,0.42821 -0.23722,0.42424 -0.60352,0.79492 0.14966,-0.0778 0.29864,-0.16113 0.45117,-0.23046 0.14431,-0.18669 0.32947,-0.34786 0.43164,-0.56055 0.0719,-0.14964 0.14616,-0.34257 0.0742,-0.49219 -0.0128,-0.0266 -0.0389,-0.0365 -0.0703,-0.0351 z m -7.86719,5.25781 c -0.0228,0.002 -0.0442,0.0156 -0.0644,0.043 -0.15223,0.2056 0.32262,0.66198 0.57617,0.95703 -0.0122,-0.14581 -0.023,-0.30286 -0.0352,-0.4707 -0.15504,-0.13928 -0.33693,-0.54244 -0.47656,-0.5293 z m 11.40625,0.0976 c -0.047,0.003 -0.0956,0.005 -0.14258,0.008 -0.0436,0.11791 -0.082,0.23818 -0.11328,0.35937 0.14717,-0.0559 0.29608,-0.12182 0.44141,-0.19531 -0.0681,-0.0559 -0.12967,-0.11218 -0.18555,-0.17188 z m -3.60351,4.23438 c 0.005,0.0729 0.0115,0.14605 0.0195,0.21875 0.14519,1.32375 0.46309,3.05036 1.24023,4.20312 0.24691,0.36625 0.68095,0.56243 1.02149,0.84375 0.19646,-0.11396 0.43008,-0.18035 0.58984,-0.34179 0.26381,-0.26659 0.70179,-1.07027 0.99414,-1.64649 -0.3454,-0.42505 -0.42712,-1.16734 0.0332,-2.08007 -0.18847,-0.0702 -0.37441,-0.15071 -0.55664,-0.24024 -0.73497,-0.16481 -2.09375,-0.49526 -3.34179,-0.95703 z m -2.48438,1.82617 c -0.0357,0.0276 -0.0712,0.0535 -0.10742,0.0801 0.082,0.16608 0.1553,0.33797 0.22461,0.51172 -0.0429,-0.19833 -0.0822,-0.39566 -0.11719,-0.5918 z m -5.01758,1.28906 c -4.8e-4,0.002 -9.9e-4,0.003 -0.002,0.006 -0.0106,0.037 -0.0453,0.15785 -0.10547,0.24219 -0.0128,0.0361 -0.023,0.0713 -0.0312,0.10352 -0.0361,0.13788 0.0205,0.28368 0.0312,0.42578 0.0651,-0.54301 0.10172,-0.74198 0.10742,-0.77735 z m 14.13672,1.89063 c 0.005,0.17627 0.0213,0.33593 0.0527,0.46289 v 0.002 0.002 l 0.002,0.002 v 0.002 c 1.5e-4,2.5e-4 0.003,0.005 0.004,0.006 l 0.002,0.002 c 2.2e-4,1.7e-4 0.003,0.003 0.004,0.004 h 0.002 c 4.5e-4,1.3e-4 0.005,0.001 0.006,0.002 0.0618,0.008 0.20906,-0.11835 0.19336,-0.18945 -7.4e-4,-0.002 -0.003,-0.008 -0.004,-0.01 -0.058,-0.11448 -0.15681,-0.20205 -0.26172,-0.28515 z m -2.06445,1.75781 c -0.15421,0.13194 -0.31799,0.25386 -0.49219,0.36328 h 0.084 c 0.1819,-0.0693 0.36345,-0.13964 0.54101,-0.21679 -0.0466,-0.0457 -0.09,-0.0951 -0.13281,-0.14649 z" /></svg>
